%TF.GenerationSoftware,KiCad,Pcbnew,(5.1.6)-1*%
%TF.CreationDate,2020-10-21T10:45:23-05:00*%
%TF.ProjectId,esp-rgb-controller,6573702d-7267-4622-9d63-6f6e74726f6c,rev?*%
%TF.SameCoordinates,Original*%
%TF.FileFunction,Copper,L1,Top*%
%TF.FilePolarity,Positive*%
%FSLAX46Y46*%
G04 Gerber Fmt 4.6, Leading zero omitted, Abs format (unit mm)*
G04 Created by KiCad (PCBNEW (5.1.6)-1) date 2020-10-21 10:45:23*
%MOMM*%
%LPD*%
G01*
G04 APERTURE LIST*
%TA.AperFunction,ComponentPad*%
%ADD10C,3.000000*%
%TD*%
%TA.AperFunction,ComponentPad*%
%ADD11R,3.000000X3.000000*%
%TD*%
%TA.AperFunction,ComponentPad*%
%ADD12R,2.600000X2.600000*%
%TD*%
%TA.AperFunction,ComponentPad*%
%ADD13C,2.600000*%
%TD*%
%TA.AperFunction,SMDPad,CuDef*%
%ADD14R,2.200000X1.200000*%
%TD*%
%TA.AperFunction,SMDPad,CuDef*%
%ADD15R,6.400000X5.800000*%
%TD*%
%TA.AperFunction,SMDPad,CuDef*%
%ADD16C,0.100000*%
%TD*%
%TA.AperFunction,SMDPad,CuDef*%
%ADD17R,2.000000X0.650000*%
%TD*%
%TA.AperFunction,ComponentPad*%
%ADD18R,1.727200X1.727200*%
%TD*%
%TA.AperFunction,ComponentPad*%
%ADD19O,1.727200X1.727200*%
%TD*%
%TA.AperFunction,SMDPad,CuDef*%
%ADD20R,3.150000X1.000000*%
%TD*%
%TA.AperFunction,SMDPad,CuDef*%
%ADD21C,1.000000*%
%TD*%
%TA.AperFunction,SMDPad,CuDef*%
%ADD22R,1.600000X5.700000*%
%TD*%
%TA.AperFunction,ViaPad*%
%ADD23C,0.650000*%
%TD*%
%TA.AperFunction,ViaPad*%
%ADD24C,0.800000*%
%TD*%
%TA.AperFunction,Conductor*%
%ADD25C,0.381000*%
%TD*%
%TA.AperFunction,Conductor*%
%ADD26C,0.508000*%
%TD*%
%TA.AperFunction,Conductor*%
%ADD27C,0.889000*%
%TD*%
%TA.AperFunction,Conductor*%
%ADD28C,0.635000*%
%TD*%
%TA.AperFunction,Conductor*%
%ADD29C,3.175000*%
%TD*%
%TA.AperFunction,Conductor*%
%ADD30C,0.254000*%
%TD*%
G04 APERTURE END LIST*
D10*
%TO.P,J6,2*%
%TO.N,/G*%
X187325000Y-108585000D03*
%TO.P,J6,3*%
%TO.N,/R*%
X187325000Y-103505000D03*
D11*
%TO.P,J6,1*%
%TO.N,+12V*%
X187325000Y-113665000D03*
D10*
%TO.P,J6,4*%
%TO.N,/B*%
X187325000Y-98425000D03*
%TD*%
%TO.P,C1,2*%
%TO.N,GND*%
%TA.AperFunction,SMDPad,CuDef*%
G36*
G01*
X146373000Y-119322001D02*
X146373000Y-118421999D01*
G75*
G02*
X146622999Y-118172000I249999J0D01*
G01*
X147273001Y-118172000D01*
G75*
G02*
X147523000Y-118421999I0J-249999D01*
G01*
X147523000Y-119322001D01*
G75*
G02*
X147273001Y-119572000I-249999J0D01*
G01*
X146622999Y-119572000D01*
G75*
G02*
X146373000Y-119322001I0J249999D01*
G01*
G37*
%TD.AperFunction*%
%TO.P,C1,1*%
%TO.N,+3V3*%
%TA.AperFunction,SMDPad,CuDef*%
G36*
G01*
X144323000Y-119322001D02*
X144323000Y-118421999D01*
G75*
G02*
X144572999Y-118172000I249999J0D01*
G01*
X145223001Y-118172000D01*
G75*
G02*
X145473000Y-118421999I0J-249999D01*
G01*
X145473000Y-119322001D01*
G75*
G02*
X145223001Y-119572000I-249999J0D01*
G01*
X144572999Y-119572000D01*
G75*
G02*
X144323000Y-119322001I0J249999D01*
G01*
G37*
%TD.AperFunction*%
%TD*%
%TO.P,C3,1*%
%TO.N,Net-(C3-Pad1)*%
%TA.AperFunction,SMDPad,CuDef*%
G36*
G01*
X147777000Y-91243999D02*
X147777000Y-92144001D01*
G75*
G02*
X147527001Y-92394000I-249999J0D01*
G01*
X146876999Y-92394000D01*
G75*
G02*
X146627000Y-92144001I0J249999D01*
G01*
X146627000Y-91243999D01*
G75*
G02*
X146876999Y-90994000I249999J0D01*
G01*
X147527001Y-90994000D01*
G75*
G02*
X147777000Y-91243999I0J-249999D01*
G01*
G37*
%TD.AperFunction*%
%TO.P,C3,2*%
%TO.N,Net-(C3-Pad2)*%
%TA.AperFunction,SMDPad,CuDef*%
G36*
G01*
X145727000Y-91243999D02*
X145727000Y-92144001D01*
G75*
G02*
X145477001Y-92394000I-249999J0D01*
G01*
X144826999Y-92394000D01*
G75*
G02*
X144577000Y-92144001I0J249999D01*
G01*
X144577000Y-91243999D01*
G75*
G02*
X144826999Y-90994000I249999J0D01*
G01*
X145477001Y-90994000D01*
G75*
G02*
X145727000Y-91243999I0J-249999D01*
G01*
G37*
%TD.AperFunction*%
%TD*%
%TO.P,C4,1*%
%TO.N,+3V3*%
%TA.AperFunction,SMDPad,CuDef*%
G36*
G01*
X166077388Y-104558215D02*
X166713785Y-105194612D01*
G75*
G02*
X166713785Y-105548164I-176776J-176776D01*
G01*
X166254164Y-106007785D01*
G75*
G02*
X165900612Y-106007785I-176776J176776D01*
G01*
X165264215Y-105371388D01*
G75*
G02*
X165264215Y-105017836I176776J176776D01*
G01*
X165723836Y-104558215D01*
G75*
G02*
X166077388Y-104558215I176776J-176776D01*
G01*
G37*
%TD.AperFunction*%
%TO.P,C4,2*%
%TO.N,GND*%
%TA.AperFunction,SMDPad,CuDef*%
G36*
G01*
X164627820Y-106007783D02*
X165264217Y-106644180D01*
G75*
G02*
X165264217Y-106997732I-176776J-176776D01*
G01*
X164804596Y-107457353D01*
G75*
G02*
X164451044Y-107457353I-176776J176776D01*
G01*
X163814647Y-106820956D01*
G75*
G02*
X163814647Y-106467404I176776J176776D01*
G01*
X164274268Y-106007783D01*
G75*
G02*
X164627820Y-106007783I176776J-176776D01*
G01*
G37*
%TD.AperFunction*%
%TD*%
%TO.P,F2,2*%
%TO.N,Net-(C2-Pad1)*%
%TA.AperFunction,SMDPad,CuDef*%
G36*
G01*
X137150000Y-94438500D02*
X135900000Y-94438500D01*
G75*
G02*
X135650000Y-94188500I0J250000D01*
G01*
X135650000Y-93263500D01*
G75*
G02*
X135900000Y-93013500I250000J0D01*
G01*
X137150000Y-93013500D01*
G75*
G02*
X137400000Y-93263500I0J-250000D01*
G01*
X137400000Y-94188500D01*
G75*
G02*
X137150000Y-94438500I-250000J0D01*
G01*
G37*
%TD.AperFunction*%
%TO.P,F2,1*%
%TO.N,Net-(F1-Pad1)*%
%TA.AperFunction,SMDPad,CuDef*%
G36*
G01*
X137150000Y-97413500D02*
X135900000Y-97413500D01*
G75*
G02*
X135650000Y-97163500I0J250000D01*
G01*
X135650000Y-96238500D01*
G75*
G02*
X135900000Y-95988500I250000J0D01*
G01*
X137150000Y-95988500D01*
G75*
G02*
X137400000Y-96238500I0J-250000D01*
G01*
X137400000Y-97163500D01*
G75*
G02*
X137150000Y-97413500I-250000J0D01*
G01*
G37*
%TD.AperFunction*%
%TD*%
D12*
%TO.P,J1,1*%
%TO.N,Net-(F1-Pad1)*%
X136525000Y-106680000D03*
D13*
%TO.P,J1,2*%
%TO.N,GND*%
X130525000Y-106680000D03*
%TO.P,J1,3*%
X133525000Y-111380000D03*
%TD*%
D14*
%TO.P,Q1,1*%
%TO.N,G_PWM*%
X172457000Y-108210000D03*
%TO.P,Q1,2*%
%TO.N,/G*%
X172457000Y-110490000D03*
%TO.P,Q1,3*%
%TO.N,GND*%
X172457000Y-112770000D03*
D15*
%TO.P,Q1,4*%
%TO.N,/G*%
X178757000Y-110490000D03*
%TD*%
%TO.P,Q2,4*%
%TO.N,/R*%
X178757000Y-102489000D03*
D14*
%TO.P,Q2,3*%
%TO.N,GND*%
X172457000Y-104769000D03*
%TO.P,Q2,2*%
%TO.N,/R*%
X172457000Y-102489000D03*
%TO.P,Q2,1*%
%TO.N,R_PWM*%
X172457000Y-100209000D03*
%TD*%
%TO.P,Q3,1*%
%TO.N,B_PWM*%
X172457000Y-92335000D03*
%TO.P,Q3,2*%
%TO.N,/B*%
X172457000Y-94615000D03*
%TO.P,Q3,3*%
%TO.N,GND*%
X172457000Y-96895000D03*
D15*
%TO.P,Q3,4*%
%TO.N,/B*%
X178757000Y-94615000D03*
%TD*%
%TO.P,R1,1*%
%TO.N,Net-(R1-Pad1)*%
%TA.AperFunction,SMDPad,CuDef*%
G36*
G01*
X157047828Y-94286569D02*
X156411431Y-93650172D01*
G75*
G02*
X156411431Y-93296620I176776J176776D01*
G01*
X156871052Y-92836999D01*
G75*
G02*
X157224604Y-92836999I176776J-176776D01*
G01*
X157861001Y-93473396D01*
G75*
G02*
X157861001Y-93826948I-176776J-176776D01*
G01*
X157401380Y-94286569D01*
G75*
G02*
X157047828Y-94286569I-176776J176776D01*
G01*
G37*
%TD.AperFunction*%
%TO.P,R1,2*%
%TO.N,Net-(D1-Pad1)*%
%TA.AperFunction,SMDPad,CuDef*%
G36*
G01*
X158497396Y-92837001D02*
X157860999Y-92200604D01*
G75*
G02*
X157860999Y-91847052I176776J176776D01*
G01*
X158320620Y-91387431D01*
G75*
G02*
X158674172Y-91387431I176776J-176776D01*
G01*
X159310569Y-92023828D01*
G75*
G02*
X159310569Y-92377380I-176776J-176776D01*
G01*
X158850948Y-92837001D01*
G75*
G02*
X158497396Y-92837001I-176776J176776D01*
G01*
G37*
%TD.AperFunction*%
%TD*%
%TO.P,R2,2*%
%TO.N,Net-(D2-Pad2)*%
%TA.AperFunction,SMDPad,CuDef*%
G36*
G01*
X140774000Y-118421999D02*
X140774000Y-119322001D01*
G75*
G02*
X140524001Y-119572000I-249999J0D01*
G01*
X139873999Y-119572000D01*
G75*
G02*
X139624000Y-119322001I0J249999D01*
G01*
X139624000Y-118421999D01*
G75*
G02*
X139873999Y-118172000I249999J0D01*
G01*
X140524001Y-118172000D01*
G75*
G02*
X140774000Y-118421999I0J-249999D01*
G01*
G37*
%TD.AperFunction*%
%TO.P,R2,1*%
%TO.N,+3V3*%
%TA.AperFunction,SMDPad,CuDef*%
G36*
G01*
X142824000Y-118421999D02*
X142824000Y-119322001D01*
G75*
G02*
X142574001Y-119572000I-249999J0D01*
G01*
X141923999Y-119572000D01*
G75*
G02*
X141674000Y-119322001I0J249999D01*
G01*
X141674000Y-118421999D01*
G75*
G02*
X141923999Y-118172000I249999J0D01*
G01*
X142574001Y-118172000D01*
G75*
G02*
X142824000Y-118421999I0J-249999D01*
G01*
G37*
%TD.AperFunction*%
%TD*%
%TO.P,R3,2*%
%TO.N,GND*%
%TA.AperFunction,SMDPad,CuDef*%
G36*
G01*
X169094999Y-110940000D02*
X169995001Y-110940000D01*
G75*
G02*
X170245000Y-111189999I0J-249999D01*
G01*
X170245000Y-111840001D01*
G75*
G02*
X169995001Y-112090000I-249999J0D01*
G01*
X169094999Y-112090000D01*
G75*
G02*
X168845000Y-111840001I0J249999D01*
G01*
X168845000Y-111189999D01*
G75*
G02*
X169094999Y-110940000I249999J0D01*
G01*
G37*
%TD.AperFunction*%
%TO.P,R3,1*%
%TO.N,G_PWM*%
%TA.AperFunction,SMDPad,CuDef*%
G36*
G01*
X169094999Y-108890000D02*
X169995001Y-108890000D01*
G75*
G02*
X170245000Y-109139999I0J-249999D01*
G01*
X170245000Y-109790001D01*
G75*
G02*
X169995001Y-110040000I-249999J0D01*
G01*
X169094999Y-110040000D01*
G75*
G02*
X168845000Y-109790001I0J249999D01*
G01*
X168845000Y-109139999D01*
G75*
G02*
X169094999Y-108890000I249999J0D01*
G01*
G37*
%TD.AperFunction*%
%TD*%
%TO.P,R4,1*%
%TO.N,R_PWM*%
%TA.AperFunction,SMDPad,CuDef*%
G36*
G01*
X169094999Y-100889000D02*
X169995001Y-100889000D01*
G75*
G02*
X170245000Y-101138999I0J-249999D01*
G01*
X170245000Y-101789001D01*
G75*
G02*
X169995001Y-102039000I-249999J0D01*
G01*
X169094999Y-102039000D01*
G75*
G02*
X168845000Y-101789001I0J249999D01*
G01*
X168845000Y-101138999D01*
G75*
G02*
X169094999Y-100889000I249999J0D01*
G01*
G37*
%TD.AperFunction*%
%TO.P,R4,2*%
%TO.N,GND*%
%TA.AperFunction,SMDPad,CuDef*%
G36*
G01*
X169094999Y-102939000D02*
X169995001Y-102939000D01*
G75*
G02*
X170245000Y-103188999I0J-249999D01*
G01*
X170245000Y-103839001D01*
G75*
G02*
X169995001Y-104089000I-249999J0D01*
G01*
X169094999Y-104089000D01*
G75*
G02*
X168845000Y-103839001I0J249999D01*
G01*
X168845000Y-103188999D01*
G75*
G02*
X169094999Y-102939000I249999J0D01*
G01*
G37*
%TD.AperFunction*%
%TD*%
%TO.P,R5,1*%
%TO.N,B_PWM*%
%TA.AperFunction,SMDPad,CuDef*%
G36*
G01*
X169094999Y-93015000D02*
X169995001Y-93015000D01*
G75*
G02*
X170245000Y-93264999I0J-249999D01*
G01*
X170245000Y-93915001D01*
G75*
G02*
X169995001Y-94165000I-249999J0D01*
G01*
X169094999Y-94165000D01*
G75*
G02*
X168845000Y-93915001I0J249999D01*
G01*
X168845000Y-93264999D01*
G75*
G02*
X169094999Y-93015000I249999J0D01*
G01*
G37*
%TD.AperFunction*%
%TO.P,R5,2*%
%TO.N,GND*%
%TA.AperFunction,SMDPad,CuDef*%
G36*
G01*
X169094999Y-95065000D02*
X169995001Y-95065000D01*
G75*
G02*
X170245000Y-95314999I0J-249999D01*
G01*
X170245000Y-95965001D01*
G75*
G02*
X169995001Y-96215000I-249999J0D01*
G01*
X169094999Y-96215000D01*
G75*
G02*
X168845000Y-95965001I0J249999D01*
G01*
X168845000Y-95314999D01*
G75*
G02*
X169094999Y-95065000I249999J0D01*
G01*
G37*
%TD.AperFunction*%
%TD*%
%TA.AperFunction,SMDPad,CuDef*%
D16*
%TO.P,U1,1*%
%TO.N,ESP_RX*%
G36*
X162440445Y-105813334D02*
G01*
X162051536Y-106202243D01*
X160920165Y-105070872D01*
X161309074Y-104681963D01*
X162440445Y-105813334D01*
G37*
%TD.AperFunction*%
%TA.AperFunction,SMDPad,CuDef*%
%TO.P,U1,2*%
%TO.N,Net-(U1-Pad2)*%
G36*
X163006130Y-105247648D02*
G01*
X162617221Y-105636557D01*
X161485850Y-104505186D01*
X161874759Y-104116277D01*
X163006130Y-105247648D01*
G37*
%TD.AperFunction*%
%TA.AperFunction,SMDPad,CuDef*%
%TO.P,U1,3*%
%TO.N,GND*%
G36*
X163571816Y-104681963D02*
G01*
X163182907Y-105070872D01*
X162051536Y-103939501D01*
X162440445Y-103550592D01*
X163571816Y-104681963D01*
G37*
%TD.AperFunction*%
%TA.AperFunction,SMDPad,CuDef*%
%TO.P,U1,4*%
%TO.N,+3V3*%
G36*
X164137501Y-104116278D02*
G01*
X163748592Y-104505187D01*
X162617221Y-103373816D01*
X163006130Y-102984907D01*
X164137501Y-104116278D01*
G37*
%TD.AperFunction*%
%TA.AperFunction,SMDPad,CuDef*%
%TO.P,U1,5*%
%TO.N,GND*%
G36*
X164703187Y-103550592D02*
G01*
X164314278Y-103939501D01*
X163182907Y-102808130D01*
X163571816Y-102419221D01*
X164703187Y-103550592D01*
G37*
%TD.AperFunction*%
%TA.AperFunction,SMDPad,CuDef*%
%TO.P,U1,6*%
%TO.N,+3V3*%
G36*
X165268872Y-102984907D02*
G01*
X164879963Y-103373816D01*
X163748592Y-102242445D01*
X164137501Y-101853536D01*
X165268872Y-102984907D01*
G37*
%TD.AperFunction*%
%TA.AperFunction,SMDPad,CuDef*%
%TO.P,U1,7*%
%TO.N,Net-(U1-Pad7)*%
G36*
X165834557Y-102419221D02*
G01*
X165445648Y-102808130D01*
X164314277Y-101676759D01*
X164703186Y-101287850D01*
X165834557Y-102419221D01*
G37*
%TD.AperFunction*%
%TA.AperFunction,SMDPad,CuDef*%
%TO.P,U1,8*%
%TO.N,Net-(U1-Pad8)*%
G36*
X166400243Y-101853536D02*
G01*
X166011334Y-102242445D01*
X164879963Y-101111074D01*
X165268872Y-100722165D01*
X166400243Y-101853536D01*
G37*
%TD.AperFunction*%
%TA.AperFunction,SMDPad,CuDef*%
%TO.P,U1,9*%
%TO.N,G_PWM*%
G36*
X166011334Y-98671555D02*
G01*
X166400243Y-99060464D01*
X165268872Y-100191835D01*
X164879963Y-99802926D01*
X166011334Y-98671555D01*
G37*
%TD.AperFunction*%
%TA.AperFunction,SMDPad,CuDef*%
%TO.P,U1,10*%
%TO.N,R_PWM*%
G36*
X165445648Y-98105870D02*
G01*
X165834557Y-98494779D01*
X164703186Y-99626150D01*
X164314277Y-99237241D01*
X165445648Y-98105870D01*
G37*
%TD.AperFunction*%
%TA.AperFunction,SMDPad,CuDef*%
%TO.P,U1,11*%
%TO.N,Net-(U1-Pad11)*%
G36*
X164879963Y-97540184D02*
G01*
X165268872Y-97929093D01*
X164137501Y-99060464D01*
X163748592Y-98671555D01*
X164879963Y-97540184D01*
G37*
%TD.AperFunction*%
%TA.AperFunction,SMDPad,CuDef*%
%TO.P,U1,12*%
%TO.N,Net-(U1-Pad12)*%
G36*
X164314278Y-96974499D02*
G01*
X164703187Y-97363408D01*
X163571816Y-98494779D01*
X163182907Y-98105870D01*
X164314278Y-96974499D01*
G37*
%TD.AperFunction*%
%TA.AperFunction,SMDPad,CuDef*%
%TO.P,U1,13*%
%TO.N,B_PWM*%
G36*
X163748592Y-96408813D02*
G01*
X164137501Y-96797722D01*
X163006130Y-97929093D01*
X162617221Y-97540184D01*
X163748592Y-96408813D01*
G37*
%TD.AperFunction*%
%TA.AperFunction,SMDPad,CuDef*%
%TO.P,U1,14*%
%TO.N,Net-(U1-Pad14)*%
G36*
X163182907Y-95843128D02*
G01*
X163571816Y-96232037D01*
X162440445Y-97363408D01*
X162051536Y-96974499D01*
X163182907Y-95843128D01*
G37*
%TD.AperFunction*%
%TA.AperFunction,SMDPad,CuDef*%
%TO.P,U1,15*%
%TO.N,MOSI*%
G36*
X162617221Y-95277443D02*
G01*
X163006130Y-95666352D01*
X161874759Y-96797723D01*
X161485850Y-96408814D01*
X162617221Y-95277443D01*
G37*
%TD.AperFunction*%
%TA.AperFunction,SMDPad,CuDef*%
%TO.P,U1,16*%
%TO.N,MISO*%
G36*
X162051536Y-94711757D02*
G01*
X162440445Y-95100666D01*
X161309074Y-96232037D01*
X160920165Y-95843128D01*
X162051536Y-94711757D01*
G37*
%TD.AperFunction*%
%TA.AperFunction,SMDPad,CuDef*%
%TO.P,U1,17*%
%TO.N,SCK*%
G36*
X160389835Y-95843128D02*
G01*
X160000926Y-96232037D01*
X158869555Y-95100666D01*
X159258464Y-94711757D01*
X160389835Y-95843128D01*
G37*
%TD.AperFunction*%
%TA.AperFunction,SMDPad,CuDef*%
%TO.P,U1,18*%
%TO.N,+3V3*%
G36*
X159824150Y-96408814D02*
G01*
X159435241Y-96797723D01*
X158303870Y-95666352D01*
X158692779Y-95277443D01*
X159824150Y-96408814D01*
G37*
%TD.AperFunction*%
%TA.AperFunction,SMDPad,CuDef*%
%TO.P,U1,19*%
%TO.N,Net-(U1-Pad19)*%
G36*
X159258464Y-96974499D02*
G01*
X158869555Y-97363408D01*
X157738184Y-96232037D01*
X158127093Y-95843128D01*
X159258464Y-96974499D01*
G37*
%TD.AperFunction*%
%TA.AperFunction,SMDPad,CuDef*%
%TO.P,U1,20*%
%TO.N,+3V3*%
G36*
X158692779Y-97540184D02*
G01*
X158303870Y-97929093D01*
X157172499Y-96797722D01*
X157561408Y-96408813D01*
X158692779Y-97540184D01*
G37*
%TD.AperFunction*%
%TA.AperFunction,SMDPad,CuDef*%
%TO.P,U1,21*%
%TO.N,GND*%
G36*
X158127093Y-98105870D02*
G01*
X157738184Y-98494779D01*
X156606813Y-97363408D01*
X156995722Y-96974499D01*
X158127093Y-98105870D01*
G37*
%TD.AperFunction*%
%TA.AperFunction,SMDPad,CuDef*%
%TO.P,U1,22*%
%TO.N,Net-(U1-Pad22)*%
G36*
X157561408Y-98671555D02*
G01*
X157172499Y-99060464D01*
X156041128Y-97929093D01*
X156430037Y-97540184D01*
X157561408Y-98671555D01*
G37*
%TD.AperFunction*%
%TA.AperFunction,SMDPad,CuDef*%
%TO.P,U1,23*%
%TO.N,Net-(R1-Pad1)*%
G36*
X156995723Y-99237241D02*
G01*
X156606814Y-99626150D01*
X155475443Y-98494779D01*
X155864352Y-98105870D01*
X156995723Y-99237241D01*
G37*
%TD.AperFunction*%
%TA.AperFunction,SMDPad,CuDef*%
%TO.P,U1,24*%
%TO.N,Net-(U1-Pad24)*%
G36*
X156430037Y-99802926D02*
G01*
X156041128Y-100191835D01*
X154909757Y-99060464D01*
X155298666Y-98671555D01*
X156430037Y-99802926D01*
G37*
%TD.AperFunction*%
%TA.AperFunction,SMDPad,CuDef*%
%TO.P,U1,25*%
%TO.N,Net-(U1-Pad25)*%
G36*
X156041128Y-100722165D02*
G01*
X156430037Y-101111074D01*
X155298666Y-102242445D01*
X154909757Y-101853536D01*
X156041128Y-100722165D01*
G37*
%TD.AperFunction*%
%TA.AperFunction,SMDPad,CuDef*%
%TO.P,U1,26*%
%TO.N,Net-(U1-Pad26)*%
G36*
X156606814Y-101287850D02*
G01*
X156995723Y-101676759D01*
X155864352Y-102808130D01*
X155475443Y-102419221D01*
X156606814Y-101287850D01*
G37*
%TD.AperFunction*%
%TA.AperFunction,SMDPad,CuDef*%
%TO.P,U1,27*%
%TO.N,Net-(U1-Pad27)*%
G36*
X157172499Y-101853536D02*
G01*
X157561408Y-102242445D01*
X156430037Y-103373816D01*
X156041128Y-102984907D01*
X157172499Y-101853536D01*
G37*
%TD.AperFunction*%
%TA.AperFunction,SMDPad,CuDef*%
%TO.P,U1,28*%
%TO.N,Net-(U1-Pad28)*%
G36*
X157738184Y-102419221D02*
G01*
X158127093Y-102808130D01*
X156995722Y-103939501D01*
X156606813Y-103550592D01*
X157738184Y-102419221D01*
G37*
%TD.AperFunction*%
%TA.AperFunction,SMDPad,CuDef*%
%TO.P,U1,29*%
%TO.N,~RST*%
G36*
X158303870Y-102984907D02*
G01*
X158692779Y-103373816D01*
X157561408Y-104505187D01*
X157172499Y-104116278D01*
X158303870Y-102984907D01*
G37*
%TD.AperFunction*%
%TA.AperFunction,SMDPad,CuDef*%
%TO.P,U1,30*%
%TO.N,MCU_RX*%
G36*
X158869555Y-103550592D02*
G01*
X159258464Y-103939501D01*
X158127093Y-105070872D01*
X157738184Y-104681963D01*
X158869555Y-103550592D01*
G37*
%TD.AperFunction*%
%TA.AperFunction,SMDPad,CuDef*%
%TO.P,U1,31*%
%TO.N,MCU_TX*%
G36*
X159435241Y-104116277D02*
G01*
X159824150Y-104505186D01*
X158692779Y-105636557D01*
X158303870Y-105247648D01*
X159435241Y-104116277D01*
G37*
%TD.AperFunction*%
%TA.AperFunction,SMDPad,CuDef*%
%TO.P,U1,32*%
%TO.N,ESP_TX*%
G36*
X160000926Y-104681963D02*
G01*
X160389835Y-105070872D01*
X159258464Y-106202243D01*
X158869555Y-105813334D01*
X160000926Y-104681963D01*
G37*
%TD.AperFunction*%
%TD*%
D17*
%TO.P,U2,1*%
%TO.N,+3V3*%
X141546000Y-93538000D03*
%TO.P,U2,2*%
%TO.N,Net-(C2-Pad1)*%
X141546000Y-94488000D03*
%TO.P,U2,3*%
X141546000Y-95438000D03*
%TO.P,U2,4*%
%TO.N,GND*%
X144966000Y-95438000D03*
%TO.P,U2,5*%
%TO.N,Net-(C3-Pad1)*%
X144966000Y-94488000D03*
%TO.P,U2,6*%
%TO.N,Net-(C3-Pad2)*%
X144966000Y-93538000D03*
%TD*%
D18*
%TO.P,U3,1*%
%TO.N,ESP_TX*%
X142240000Y-115570000D03*
D19*
%TO.P,U3,2*%
%TO.N,GND*%
X142240000Y-113030000D03*
%TO.P,U3,3*%
%TO.N,+3V3*%
X144780000Y-115570000D03*
%TO.P,U3,4*%
%TO.N,Net-(U3-Pad4)*%
X144780000Y-113030000D03*
%TO.P,U3,5*%
%TO.N,~RST*%
X147320000Y-115570000D03*
%TO.P,U3,6*%
%TO.N,Net-(R6-Pad1)*%
X147320000Y-113030000D03*
%TO.P,U3,7*%
%TO.N,+3V3*%
X149860000Y-115570000D03*
%TO.P,U3,8*%
%TO.N,ESP_RX*%
X149860000Y-113030000D03*
%TD*%
D20*
%TO.P,J4,1*%
%TO.N,MISO*%
X158130000Y-110490000D03*
%TO.P,J4,2*%
%TO.N,+3V3*%
X163180000Y-110490000D03*
%TO.P,J4,3*%
%TO.N,SCK*%
X158130000Y-113030000D03*
%TO.P,J4,4*%
%TO.N,MOSI*%
X163180000Y-113030000D03*
%TO.P,J4,5*%
%TO.N,~RST*%
X158130000Y-115570000D03*
%TO.P,J4,6*%
%TO.N,GND*%
X163180000Y-115570000D03*
%TD*%
%TO.P,C2,1*%
%TO.N,Net-(C2-Pad1)*%
%TA.AperFunction,SMDPad,CuDef*%
G36*
G01*
X140881000Y-100112000D02*
X140881000Y-98262000D01*
G75*
G02*
X141131000Y-98012000I250000J0D01*
G01*
X142131000Y-98012000D01*
G75*
G02*
X142381000Y-98262000I0J-250000D01*
G01*
X142381000Y-100112000D01*
G75*
G02*
X142131000Y-100362000I-250000J0D01*
G01*
X141131000Y-100362000D01*
G75*
G02*
X140881000Y-100112000I0J250000D01*
G01*
G37*
%TD.AperFunction*%
%TO.P,C2,2*%
%TO.N,GND*%
%TA.AperFunction,SMDPad,CuDef*%
G36*
G01*
X144131000Y-100112000D02*
X144131000Y-98262000D01*
G75*
G02*
X144381000Y-98012000I250000J0D01*
G01*
X145381000Y-98012000D01*
G75*
G02*
X145631000Y-98262000I0J-250000D01*
G01*
X145631000Y-100112000D01*
G75*
G02*
X145381000Y-100362000I-250000J0D01*
G01*
X144381000Y-100362000D01*
G75*
G02*
X144131000Y-100112000I0J250000D01*
G01*
G37*
%TD.AperFunction*%
%TD*%
%TO.P,C5,2*%
%TO.N,GND*%
%TA.AperFunction,SMDPad,CuDef*%
G36*
G01*
X149112000Y-103469000D02*
X149112000Y-105319000D01*
G75*
G02*
X148862000Y-105569000I-250000J0D01*
G01*
X147862000Y-105569000D01*
G75*
G02*
X147612000Y-105319000I0J250000D01*
G01*
X147612000Y-103469000D01*
G75*
G02*
X147862000Y-103219000I250000J0D01*
G01*
X148862000Y-103219000D01*
G75*
G02*
X149112000Y-103469000I0J-250000D01*
G01*
G37*
%TD.AperFunction*%
%TO.P,C5,1*%
%TO.N,+3V3*%
%TA.AperFunction,SMDPad,CuDef*%
G36*
G01*
X152362000Y-103469000D02*
X152362000Y-105319000D01*
G75*
G02*
X152112000Y-105569000I-250000J0D01*
G01*
X151112000Y-105569000D01*
G75*
G02*
X150862000Y-105319000I0J250000D01*
G01*
X150862000Y-103469000D01*
G75*
G02*
X151112000Y-103219000I250000J0D01*
G01*
X152112000Y-103219000D01*
G75*
G02*
X152362000Y-103469000I0J-250000D01*
G01*
G37*
%TD.AperFunction*%
%TD*%
%TO.P,C6,1*%
%TO.N,+3V3*%
%TA.AperFunction,SMDPad,CuDef*%
G36*
G01*
X152362000Y-100040000D02*
X152362000Y-101890000D01*
G75*
G02*
X152112000Y-102140000I-250000J0D01*
G01*
X151112000Y-102140000D01*
G75*
G02*
X150862000Y-101890000I0J250000D01*
G01*
X150862000Y-100040000D01*
G75*
G02*
X151112000Y-99790000I250000J0D01*
G01*
X152112000Y-99790000D01*
G75*
G02*
X152362000Y-100040000I0J-250000D01*
G01*
G37*
%TD.AperFunction*%
%TO.P,C6,2*%
%TO.N,GND*%
%TA.AperFunction,SMDPad,CuDef*%
G36*
G01*
X149112000Y-100040000D02*
X149112000Y-101890000D01*
G75*
G02*
X148862000Y-102140000I-250000J0D01*
G01*
X147862000Y-102140000D01*
G75*
G02*
X147612000Y-101890000I0J250000D01*
G01*
X147612000Y-100040000D01*
G75*
G02*
X147862000Y-99790000I250000J0D01*
G01*
X148862000Y-99790000D01*
G75*
G02*
X149112000Y-100040000I0J-250000D01*
G01*
G37*
%TD.AperFunction*%
%TD*%
%TO.P,D1,2*%
%TO.N,+3V3*%
%TA.AperFunction,SMDPad,CuDef*%
G36*
G01*
X163448999Y-93473396D02*
X164085396Y-92836999D01*
G75*
G02*
X164438948Y-92836999I176776J-176776D01*
G01*
X164898569Y-93296620D01*
G75*
G02*
X164898569Y-93650172I-176776J-176776D01*
G01*
X164262172Y-94286569D01*
G75*
G02*
X163908620Y-94286569I-176776J176776D01*
G01*
X163448999Y-93826948D01*
G75*
G02*
X163448999Y-93473396I176776J176776D01*
G01*
G37*
%TD.AperFunction*%
%TO.P,D1,1*%
%TO.N,Net-(D1-Pad1)*%
%TA.AperFunction,SMDPad,CuDef*%
G36*
G01*
X161999431Y-92023828D02*
X162635828Y-91387431D01*
G75*
G02*
X162989380Y-91387431I176776J-176776D01*
G01*
X163449001Y-91847052D01*
G75*
G02*
X163449001Y-92200604I-176776J-176776D01*
G01*
X162812604Y-92837001D01*
G75*
G02*
X162459052Y-92837001I-176776J176776D01*
G01*
X161999431Y-92377380D01*
G75*
G02*
X161999431Y-92023828I176776J176776D01*
G01*
G37*
%TD.AperFunction*%
%TD*%
%TO.P,D2,1*%
%TO.N,GND*%
%TA.AperFunction,SMDPad,CuDef*%
G36*
G01*
X134789000Y-119322001D02*
X134789000Y-118421999D01*
G75*
G02*
X135038999Y-118172000I249999J0D01*
G01*
X135689001Y-118172000D01*
G75*
G02*
X135939000Y-118421999I0J-249999D01*
G01*
X135939000Y-119322001D01*
G75*
G02*
X135689001Y-119572000I-249999J0D01*
G01*
X135038999Y-119572000D01*
G75*
G02*
X134789000Y-119322001I0J249999D01*
G01*
G37*
%TD.AperFunction*%
%TO.P,D2,2*%
%TO.N,Net-(D2-Pad2)*%
%TA.AperFunction,SMDPad,CuDef*%
G36*
G01*
X136839000Y-119322001D02*
X136839000Y-118421999D01*
G75*
G02*
X137088999Y-118172000I249999J0D01*
G01*
X137739001Y-118172000D01*
G75*
G02*
X137989000Y-118421999I0J-249999D01*
G01*
X137989000Y-119322001D01*
G75*
G02*
X137739001Y-119572000I-249999J0D01*
G01*
X137088999Y-119572000D01*
G75*
G02*
X136839000Y-119322001I0J249999D01*
G01*
G37*
%TD.AperFunction*%
%TD*%
%TO.P,R6,1*%
%TO.N,Net-(R6-Pad1)*%
%TA.AperFunction,SMDPad,CuDef*%
G36*
G01*
X154127000Y-118421999D02*
X154127000Y-119322001D01*
G75*
G02*
X153877001Y-119572000I-249999J0D01*
G01*
X153226999Y-119572000D01*
G75*
G02*
X152977000Y-119322001I0J249999D01*
G01*
X152977000Y-118421999D01*
G75*
G02*
X153226999Y-118172000I249999J0D01*
G01*
X153877001Y-118172000D01*
G75*
G02*
X154127000Y-118421999I0J-249999D01*
G01*
G37*
%TD.AperFunction*%
%TO.P,R6,2*%
%TO.N,+3V3*%
%TA.AperFunction,SMDPad,CuDef*%
G36*
G01*
X152077000Y-118421999D02*
X152077000Y-119322001D01*
G75*
G02*
X151827001Y-119572000I-249999J0D01*
G01*
X151176999Y-119572000D01*
G75*
G02*
X150927000Y-119322001I0J249999D01*
G01*
X150927000Y-118421999D01*
G75*
G02*
X151176999Y-118172000I249999J0D01*
G01*
X151827001Y-118172000D01*
G75*
G02*
X152077000Y-118421999I0J-249999D01*
G01*
G37*
%TD.AperFunction*%
%TD*%
D21*
%TO.P,TP1,1*%
%TO.N,MCU_RX*%
X151130000Y-107315000D03*
%TD*%
%TO.P,TP2,1*%
%TO.N,MCU_TX*%
X151130000Y-109347000D03*
%TD*%
%TO.P,TP3,1*%
%TO.N,GND*%
X146050000Y-109347000D03*
%TD*%
%TO.P,TP4,1*%
%TO.N,+3V3*%
X146050000Y-107315000D03*
%TD*%
D22*
%TO.P,L1,1*%
%TO.N,Net-(C3-Pad1)*%
X147510000Y-95885000D03*
%TO.P,L1,2*%
%TO.N,+3V3*%
X152210000Y-95885000D03*
%TD*%
D23*
%TO.N,GND*%
X163449000Y-101473000D03*
X164465000Y-100457000D03*
X163449000Y-99441000D03*
X163449000Y-100457000D03*
X163957000Y-105537000D03*
X163195000Y-106299000D03*
X166370000Y-103124000D03*
X167132000Y-102362000D03*
%TO.N,+3V3*%
X155829000Y-96393000D03*
X154051000Y-94996000D03*
D24*
%TO.N,MISO*%
X159766000Y-109474000D03*
X161290000Y-98933000D03*
%TO.N,SCK*%
X160020000Y-98044000D03*
X158623000Y-111760000D03*
%TO.N,MOSI*%
X162290003Y-98933000D03*
X161163000Y-109347000D03*
D23*
%TO.N,~RST*%
X155194000Y-106426000D03*
X154940000Y-113157000D03*
D24*
%TO.N,ESP_TX*%
X152236282Y-112202782D03*
D23*
%TO.N,Net-(R6-Pad1)*%
X152654000Y-115697000D03*
%TD*%
D25*
%TO.N,GND*%
X146065899Y-117989899D02*
X146948000Y-118872000D01*
X146065899Y-114999829D02*
X146065899Y-117989899D01*
X145381969Y-114315899D02*
X146065899Y-114999829D01*
X143525899Y-114315899D02*
X145381969Y-114315899D01*
X142240000Y-113030000D02*
X143525899Y-114315899D01*
D26*
%TO.N,+3V3*%
X164915314Y-105283000D02*
X165989000Y-105283000D01*
X163377361Y-103745047D02*
X164915314Y-105283000D01*
X165989000Y-104093944D02*
X165989000Y-105283000D01*
X164508732Y-102613676D02*
X165989000Y-104093944D01*
X163276969Y-103745047D02*
X159639000Y-100107078D01*
X163377361Y-103745047D02*
X163276969Y-103745047D01*
X159639000Y-98875314D02*
X157932639Y-97168953D01*
X159639000Y-100107078D02*
X159639000Y-98875314D01*
X159064010Y-96037583D02*
X158276427Y-95250000D01*
X158276427Y-95250000D02*
X157734000Y-95250000D01*
X157284174Y-96520488D02*
X157932639Y-97168953D01*
X157284174Y-95699826D02*
X157284174Y-96520488D01*
X164173784Y-93561784D02*
X159422216Y-93561784D01*
X157734000Y-95250000D02*
X157607000Y-95377000D01*
X157607000Y-95377000D02*
X157284174Y-95699826D01*
X151760000Y-94996000D02*
X152654000Y-94996000D01*
X159422216Y-93561784D02*
X157607000Y-95377000D01*
D27*
X144780000Y-116586000D02*
X144780000Y-115570000D01*
X144018000Y-117348000D02*
X144780000Y-116586000D01*
X142249000Y-117466000D02*
X142367000Y-117348000D01*
X142249000Y-118872000D02*
X142249000Y-117466000D01*
X142367000Y-117348000D02*
X144018000Y-117348000D01*
X144898000Y-118228000D02*
X144018000Y-117348000D01*
X144898000Y-118872000D02*
X144898000Y-118228000D01*
X144898000Y-118872000D02*
X144898000Y-120133000D01*
X144898000Y-120133000D02*
X145415000Y-120650000D01*
X145415000Y-120650000D02*
X150749000Y-120650000D01*
X151529000Y-119870000D02*
X151529000Y-118872000D01*
X150749000Y-120650000D02*
X151529000Y-119870000D01*
X151529000Y-117239000D02*
X149860000Y-115570000D01*
X151529000Y-118872000D02*
X151529000Y-117239000D01*
D28*
X163180000Y-110490000D02*
X164719000Y-110490000D01*
X165989000Y-109220000D02*
X165989000Y-105283000D01*
X164719000Y-110490000D02*
X165989000Y-109220000D01*
X157284174Y-95699826D02*
X156522174Y-95699826D01*
X156522174Y-95699826D02*
X155829000Y-96393000D01*
D25*
X149698490Y-90603490D02*
X142949510Y-90603490D01*
X151760000Y-94996000D02*
X151760000Y-92665000D01*
X151760000Y-92665000D02*
X149698490Y-90603490D01*
X141546000Y-92007000D02*
X141546000Y-93538000D01*
X142949510Y-90603490D02*
X141546000Y-92007000D01*
D27*
X140335000Y-117348000D02*
X142367000Y-117348000D01*
X138049000Y-115062000D02*
X140335000Y-117348000D01*
X138049000Y-110490000D02*
X138049000Y-115062000D01*
X153099000Y-94996000D02*
X152210000Y-95885000D01*
X154051000Y-94996000D02*
X153099000Y-94996000D01*
X141224000Y-107315000D02*
X138049000Y-110490000D01*
X146050000Y-107315000D02*
X141224000Y-107315000D01*
X148691000Y-107315000D02*
X151612000Y-104394000D01*
X146050000Y-107315000D02*
X148691000Y-107315000D01*
%TO.N,Net-(C2-Pad1)*%
X136525000Y-93726000D02*
X137668000Y-94869000D01*
X141165000Y-94869000D02*
X141292000Y-94996000D01*
X137668000Y-94869000D02*
X141165000Y-94869000D01*
X141292000Y-94996000D02*
X141605000Y-94996000D01*
D26*
%TO.N,Net-(D1-Pad1)*%
X158585784Y-92112216D02*
X162724216Y-92112216D01*
D28*
%TO.N,Net-(D2-Pad2)*%
X140199000Y-118872000D02*
X137414000Y-118872000D01*
D27*
%TO.N,Net-(F1-Pad1)*%
X136525000Y-96701000D02*
X136525000Y-106680000D01*
D25*
%TO.N,MCU_TX*%
X154403232Y-109347000D02*
X151130000Y-109347000D01*
X158873815Y-104876417D02*
X154403232Y-109347000D01*
X159064010Y-104876417D02*
X158873815Y-104876417D01*
%TO.N,MCU_RX*%
X155494056Y-107315000D02*
X158498324Y-104310732D01*
X151130000Y-107315000D02*
X155494056Y-107315000D01*
%TO.N,MISO*%
X158130000Y-110490000D02*
X158750000Y-110490000D01*
X158750000Y-110490000D02*
X159766000Y-109474000D01*
X160890001Y-98533001D02*
X160890001Y-96262201D01*
X160890001Y-96262201D02*
X161680305Y-95471897D01*
X161290000Y-98933000D02*
X160890001Y-98533001D01*
%TO.N,SCK*%
X160283510Y-97780490D02*
X160020000Y-98044000D01*
X159629695Y-95471897D02*
X160283510Y-96125712D01*
X160283510Y-96125712D02*
X160283510Y-97780490D01*
X158623000Y-112537000D02*
X158130000Y-113030000D01*
X158623000Y-111760000D02*
X158623000Y-112537000D01*
%TO.N,MOSI*%
X162290003Y-98771476D02*
X162290003Y-98933000D01*
X161661026Y-98142499D02*
X162290003Y-98771476D01*
X162245990Y-96037583D02*
X161661026Y-96622547D01*
X161661026Y-96622547D02*
X161661026Y-98142499D01*
X161224000Y-113030000D02*
X163180000Y-113030000D01*
X161163000Y-112969000D02*
X161224000Y-113030000D01*
X161163000Y-109347000D02*
X161163000Y-112969000D01*
%TO.N,~RST*%
X156875899Y-114315899D02*
X158130000Y-115570000D01*
X148574101Y-114315899D02*
X156875899Y-114315899D01*
X148574101Y-114315899D02*
X147320000Y-115570000D01*
X157932639Y-103745047D02*
X157874953Y-103745047D01*
X157874953Y-103745047D02*
X155194000Y-106426000D01*
X156098899Y-114315899D02*
X156875899Y-114315899D01*
X154940000Y-113157000D02*
X156098899Y-114315899D01*
%TO.N,ESP_RX*%
X149860000Y-113030000D02*
X152527000Y-113030000D01*
X152527000Y-113030000D02*
X156972000Y-108585000D01*
X158537408Y-108585000D02*
X161680305Y-105442103D01*
X156972000Y-108585000D02*
X158537408Y-108585000D01*
%TO.N,ESP_TX*%
X152369122Y-112202782D02*
X152236282Y-112202782D01*
X159629695Y-105442103D02*
X159044731Y-106027067D01*
X158544837Y-106027067D02*
X152369122Y-112202782D01*
X159044731Y-106027067D02*
X158544837Y-106027067D01*
D29*
%TO.N,/G*%
X180662000Y-108585000D02*
X187325000Y-108585000D01*
X178757000Y-110490000D02*
X180662000Y-108585000D01*
D28*
X172457000Y-110490000D02*
X178757000Y-110490000D01*
D29*
%TO.N,/R*%
X179773000Y-103505000D02*
X178757000Y-102489000D01*
X187325000Y-103505000D02*
X179773000Y-103505000D01*
D28*
X172457000Y-102489000D02*
X178757000Y-102489000D01*
D29*
%TO.N,/B*%
X183515000Y-94615000D02*
X178757000Y-94615000D01*
X187325000Y-98425000D02*
X183515000Y-94615000D01*
D28*
X172457000Y-94615000D02*
X178757000Y-94615000D01*
%TO.N,G_PWM*%
X170800000Y-108210000D02*
X172457000Y-108210000D01*
X169545000Y-109465000D02*
X170800000Y-108210000D01*
D25*
X165640103Y-99431695D02*
X166868695Y-99431695D01*
X166868695Y-99431695D02*
X167894000Y-100457000D01*
X167894000Y-107814000D02*
X169545000Y-109465000D01*
X167894000Y-100457000D02*
X167894000Y-107814000D01*
D28*
%TO.N,R_PWM*%
X170800000Y-100209000D02*
X172457000Y-100209000D01*
X169545000Y-101464000D02*
X170800000Y-100209000D01*
D25*
X165074417Y-98866010D02*
X166658427Y-97282000D01*
X166658427Y-97282000D02*
X169037000Y-97282000D01*
X169545000Y-97790000D02*
X169545000Y-101464000D01*
X169037000Y-97282000D02*
X169545000Y-97790000D01*
D28*
%TO.N,B_PWM*%
X170800000Y-92335000D02*
X172457000Y-92335000D01*
X169545000Y-93590000D02*
X170800000Y-92335000D01*
D25*
X167146510Y-93590000D02*
X169545000Y-93590000D01*
X163567557Y-97168953D02*
X167146510Y-93590000D01*
X163377361Y-97168953D02*
X163567557Y-97168953D01*
D26*
%TO.N,Net-(R1-Pad1)*%
X156235583Y-98866010D02*
X154559000Y-97189427D01*
X154559000Y-96139000D02*
X157136216Y-93561784D01*
X154559000Y-97189427D02*
X154559000Y-96139000D01*
D25*
%TO.N,Net-(R6-Pad1)*%
X153552000Y-118872000D02*
X153552000Y-116595000D01*
X153552000Y-116595000D02*
X152654000Y-115697000D01*
%TD*%
D30*
%TO.N,GND*%
G36*
X141161748Y-91583030D02*
G01*
X141139933Y-91600933D01*
X141072360Y-91683272D01*
X141068516Y-91687956D01*
X141015448Y-91787239D01*
X140982769Y-91894967D01*
X140971735Y-92007000D01*
X140974500Y-92035075D01*
X140974501Y-92830157D01*
X140546000Y-92830157D01*
X140471311Y-92837513D01*
X140399492Y-92859299D01*
X140333304Y-92894678D01*
X140275289Y-92942289D01*
X140227678Y-93000304D01*
X140192299Y-93066492D01*
X140170513Y-93138311D01*
X140163157Y-93213000D01*
X140163157Y-93768921D01*
X140123328Y-93790210D01*
X140065592Y-93837592D01*
X140018210Y-93895328D01*
X139983002Y-93961198D01*
X139961321Y-94032671D01*
X139960254Y-94043500D01*
X138009933Y-94043500D01*
X137782843Y-93816410D01*
X137782843Y-93263500D01*
X137770683Y-93140038D01*
X137734671Y-93021321D01*
X137676190Y-92911911D01*
X137597488Y-92816012D01*
X137501589Y-92737310D01*
X137392179Y-92678829D01*
X137273462Y-92642817D01*
X137150000Y-92630657D01*
X135900000Y-92630657D01*
X135776538Y-92642817D01*
X135657821Y-92678829D01*
X135548411Y-92737310D01*
X135452512Y-92816012D01*
X135373810Y-92911911D01*
X135315329Y-93021321D01*
X135279317Y-93140038D01*
X135267157Y-93263500D01*
X135267157Y-94188500D01*
X135279317Y-94311962D01*
X135315329Y-94430679D01*
X135373810Y-94540089D01*
X135452512Y-94635988D01*
X135548411Y-94714690D01*
X135657821Y-94773171D01*
X135776538Y-94809183D01*
X135900000Y-94821343D01*
X136452911Y-94821343D01*
X137055606Y-95424039D01*
X137081459Y-95455541D01*
X137137437Y-95501481D01*
X137207157Y-95558699D01*
X137342422Y-95631000D01*
X137350566Y-95635353D01*
X137506174Y-95682556D01*
X137627447Y-95694500D01*
X137627449Y-95694500D01*
X137667999Y-95698494D01*
X137708550Y-95694500D01*
X139954000Y-95694500D01*
X139954000Y-100711000D01*
X139961321Y-100785329D01*
X139983002Y-100856802D01*
X140018210Y-100922672D01*
X140065592Y-100980408D01*
X140123328Y-101027790D01*
X140189198Y-101062998D01*
X140260671Y-101084679D01*
X140335000Y-101092000D01*
X142875000Y-101092000D01*
X142949329Y-101084679D01*
X143020802Y-101062998D01*
X143086672Y-101027790D01*
X143144408Y-100980408D01*
X143191790Y-100922672D01*
X143226998Y-100856802D01*
X143248679Y-100785329D01*
X143256000Y-100711000D01*
X143256000Y-100362000D01*
X143492928Y-100362000D01*
X143505188Y-100486482D01*
X143541498Y-100606180D01*
X143600463Y-100716494D01*
X143679815Y-100813185D01*
X143776506Y-100892537D01*
X143886820Y-100951502D01*
X144006518Y-100987812D01*
X144131000Y-101000072D01*
X144595250Y-100997000D01*
X144754000Y-100838250D01*
X144754000Y-99314000D01*
X145008000Y-99314000D01*
X145008000Y-100838250D01*
X145166750Y-100997000D01*
X145631000Y-101000072D01*
X145755482Y-100987812D01*
X145875180Y-100951502D01*
X145985494Y-100892537D01*
X146082185Y-100813185D01*
X146161537Y-100716494D01*
X146220502Y-100606180D01*
X146256812Y-100486482D01*
X146269072Y-100362000D01*
X146266000Y-99472750D01*
X146107250Y-99314000D01*
X145008000Y-99314000D01*
X144754000Y-99314000D01*
X143654750Y-99314000D01*
X143496000Y-99472750D01*
X143492928Y-100362000D01*
X143256000Y-100362000D01*
X143256000Y-98012000D01*
X143492928Y-98012000D01*
X143496000Y-98901250D01*
X143654750Y-99060000D01*
X144754000Y-99060000D01*
X144754000Y-97535750D01*
X144595250Y-97377000D01*
X144131000Y-97373928D01*
X144006518Y-97386188D01*
X143886820Y-97422498D01*
X143776506Y-97481463D01*
X143679815Y-97560815D01*
X143600463Y-97657506D01*
X143541498Y-97767820D01*
X143505188Y-97887518D01*
X143492928Y-98012000D01*
X143256000Y-98012000D01*
X143256000Y-95763000D01*
X143327928Y-95763000D01*
X143340188Y-95887482D01*
X143376498Y-96007180D01*
X143435463Y-96117494D01*
X143514815Y-96214185D01*
X143611506Y-96293537D01*
X143721820Y-96352502D01*
X143841518Y-96388812D01*
X143966000Y-96401072D01*
X144680250Y-96398000D01*
X144839000Y-96239250D01*
X144839000Y-95565000D01*
X143489750Y-95565000D01*
X143331000Y-95723750D01*
X143327928Y-95763000D01*
X143256000Y-95763000D01*
X143256000Y-94107000D01*
X143248679Y-94032671D01*
X143226998Y-93961198D01*
X143191790Y-93895328D01*
X143144408Y-93837592D01*
X143086672Y-93790210D01*
X143020802Y-93755002D01*
X142949329Y-93733321D01*
X142928843Y-93731303D01*
X142928843Y-93213000D01*
X142921487Y-93138311D01*
X142899701Y-93066492D01*
X142864322Y-93000304D01*
X142816711Y-92942289D01*
X142758696Y-92894678D01*
X142692508Y-92859299D01*
X142620689Y-92837513D01*
X142546000Y-92830157D01*
X142117500Y-92830157D01*
X142117500Y-92243722D01*
X143186233Y-91174990D01*
X143510000Y-91174990D01*
X143510000Y-93853000D01*
X143517321Y-93927329D01*
X143533299Y-93980000D01*
X143517321Y-94032671D01*
X143510000Y-94107000D01*
X143510000Y-94667682D01*
X143435463Y-94758506D01*
X143376498Y-94868820D01*
X143340188Y-94988518D01*
X143327928Y-95113000D01*
X143331000Y-95152250D01*
X143489750Y-95311000D01*
X144839000Y-95311000D01*
X144839000Y-95291000D01*
X145093000Y-95291000D01*
X145093000Y-95311000D01*
X145113000Y-95311000D01*
X145113000Y-95565000D01*
X145093000Y-95565000D01*
X145093000Y-96239250D01*
X145251750Y-96398000D01*
X145966000Y-96401072D01*
X146090482Y-96388812D01*
X146177000Y-96362567D01*
X146177000Y-97686435D01*
X146161537Y-97657506D01*
X146082185Y-97560815D01*
X145985494Y-97481463D01*
X145875180Y-97422498D01*
X145755482Y-97386188D01*
X145631000Y-97373928D01*
X145166750Y-97377000D01*
X145008000Y-97535750D01*
X145008000Y-99060000D01*
X146107250Y-99060000D01*
X146182133Y-98985117D01*
X146184321Y-99007329D01*
X146206002Y-99078802D01*
X146241210Y-99144672D01*
X146288592Y-99202408D01*
X146346328Y-99249790D01*
X146412198Y-99284998D01*
X146483671Y-99306679D01*
X146558000Y-99314000D01*
X147191052Y-99314000D01*
X147160815Y-99338815D01*
X147081463Y-99435506D01*
X147022498Y-99545820D01*
X146986188Y-99665518D01*
X146973928Y-99790000D01*
X146977000Y-100679250D01*
X147135750Y-100838000D01*
X148235000Y-100838000D01*
X148235000Y-100818000D01*
X148489000Y-100818000D01*
X148489000Y-100838000D01*
X149588250Y-100838000D01*
X149747000Y-100679250D01*
X149750072Y-99790000D01*
X149737812Y-99665518D01*
X149701502Y-99545820D01*
X149642537Y-99435506D01*
X149563185Y-99338815D01*
X149466494Y-99259463D01*
X149356180Y-99200498D01*
X149236482Y-99164188D01*
X149112000Y-99151928D01*
X148899682Y-99153333D01*
X148906790Y-99144672D01*
X148941998Y-99078802D01*
X148963679Y-99007329D01*
X148971000Y-98933000D01*
X148971000Y-92837000D01*
X148963679Y-92762671D01*
X148941998Y-92691198D01*
X148906790Y-92625328D01*
X148859408Y-92567592D01*
X148801672Y-92520210D01*
X148735802Y-92485002D01*
X148664329Y-92463321D01*
X148590000Y-92456000D01*
X148336000Y-92456000D01*
X148336000Y-91174990D01*
X149461768Y-91174990D01*
X150742777Y-92456000D01*
X150495000Y-92456000D01*
X150420671Y-92463321D01*
X150349198Y-92485002D01*
X150283328Y-92520210D01*
X150225592Y-92567592D01*
X150178210Y-92625328D01*
X150143002Y-92691198D01*
X150121321Y-92762671D01*
X150114000Y-92837000D01*
X150114000Y-104724567D01*
X149748418Y-105090149D01*
X149747000Y-104679750D01*
X149588250Y-104521000D01*
X148489000Y-104521000D01*
X148489000Y-106045250D01*
X148641159Y-106197409D01*
X148349068Y-106489500D01*
X146359231Y-106489500D01*
X146306978Y-106467856D01*
X146136771Y-106434000D01*
X145963229Y-106434000D01*
X145793022Y-106467856D01*
X145740769Y-106489500D01*
X141264550Y-106489500D01*
X141223999Y-106485506D01*
X141183449Y-106489500D01*
X141183447Y-106489500D01*
X141062174Y-106501444D01*
X140941556Y-106538033D01*
X140906566Y-106548647D01*
X140763157Y-106625301D01*
X140738227Y-106645761D01*
X140637459Y-106728459D01*
X140611608Y-106759959D01*
X137493966Y-109877602D01*
X137462459Y-109903459D01*
X137396629Y-109983674D01*
X137359301Y-110029158D01*
X137306612Y-110127732D01*
X137282647Y-110172567D01*
X137235444Y-110328175D01*
X137225469Y-110429458D01*
X137219506Y-110490000D01*
X137223500Y-110530551D01*
X137223501Y-115021440D01*
X137219506Y-115062000D01*
X137235445Y-115223826D01*
X137282647Y-115379433D01*
X137359301Y-115522842D01*
X137398003Y-115570000D01*
X137462460Y-115648541D01*
X137493961Y-115674393D01*
X139651060Y-117831493D01*
X139631821Y-117837329D01*
X139522411Y-117895810D01*
X139426512Y-117974512D01*
X139347810Y-118070411D01*
X139292708Y-118173500D01*
X138320292Y-118173500D01*
X138265190Y-118070411D01*
X138186488Y-117974512D01*
X138090589Y-117895810D01*
X137981179Y-117837329D01*
X137862462Y-117801317D01*
X137739001Y-117789157D01*
X137088999Y-117789157D01*
X136965538Y-117801317D01*
X136846821Y-117837329D01*
X136737411Y-117895810D01*
X136641512Y-117974512D01*
X136566611Y-118065780D01*
X136564812Y-118047518D01*
X136528502Y-117927820D01*
X136469537Y-117817506D01*
X136390185Y-117720815D01*
X136293494Y-117641463D01*
X136183180Y-117582498D01*
X136063482Y-117546188D01*
X135939000Y-117533928D01*
X135649750Y-117537000D01*
X135491000Y-117695750D01*
X135491000Y-118745000D01*
X135511000Y-118745000D01*
X135511000Y-118999000D01*
X135491000Y-118999000D01*
X135491000Y-120048250D01*
X135649750Y-120207000D01*
X135939000Y-120210072D01*
X136063482Y-120197812D01*
X136183180Y-120161502D01*
X136293494Y-120102537D01*
X136390185Y-120023185D01*
X136469537Y-119926494D01*
X136528502Y-119816180D01*
X136564812Y-119696482D01*
X136566611Y-119678220D01*
X136641512Y-119769488D01*
X136737411Y-119848190D01*
X136846821Y-119906671D01*
X136965538Y-119942683D01*
X137088999Y-119954843D01*
X137739001Y-119954843D01*
X137862462Y-119942683D01*
X137981179Y-119906671D01*
X138090589Y-119848190D01*
X138186488Y-119769488D01*
X138265190Y-119673589D01*
X138320292Y-119570500D01*
X139292708Y-119570500D01*
X139347810Y-119673589D01*
X139426512Y-119769488D01*
X139522411Y-119848190D01*
X139631821Y-119906671D01*
X139750538Y-119942683D01*
X139873999Y-119954843D01*
X140524001Y-119954843D01*
X140647462Y-119942683D01*
X140766179Y-119906671D01*
X140875589Y-119848190D01*
X140971488Y-119769488D01*
X141050190Y-119673589D01*
X141108671Y-119564179D01*
X141144683Y-119445462D01*
X141156843Y-119322001D01*
X141156843Y-118421999D01*
X141144683Y-118298538D01*
X141108671Y-118179821D01*
X141105292Y-118173500D01*
X141342708Y-118173500D01*
X141339329Y-118179821D01*
X141303317Y-118298538D01*
X141291157Y-118421999D01*
X141291157Y-119322001D01*
X141303317Y-119445462D01*
X141339329Y-119564179D01*
X141397810Y-119673589D01*
X141476512Y-119769488D01*
X141572411Y-119848190D01*
X141681821Y-119906671D01*
X141800538Y-119942683D01*
X141923999Y-119954843D01*
X142574001Y-119954843D01*
X142697462Y-119942683D01*
X142816179Y-119906671D01*
X142925589Y-119848190D01*
X143021488Y-119769488D01*
X143100190Y-119673589D01*
X143158671Y-119564179D01*
X143194683Y-119445462D01*
X143206843Y-119322001D01*
X143206843Y-118421999D01*
X143194683Y-118298538D01*
X143158671Y-118179821D01*
X143155292Y-118173500D01*
X143676068Y-118173500D01*
X143940157Y-118437590D01*
X143940157Y-119322001D01*
X143952317Y-119445462D01*
X143988329Y-119564179D01*
X144046810Y-119673589D01*
X144072501Y-119704893D01*
X144072501Y-120092440D01*
X144068506Y-120133000D01*
X144084445Y-120294826D01*
X144131647Y-120450433D01*
X144208301Y-120593842D01*
X144254389Y-120650000D01*
X144311460Y-120719541D01*
X144342961Y-120745393D01*
X144802602Y-121205034D01*
X144828459Y-121236541D01*
X144954158Y-121339699D01*
X145097566Y-121416353D01*
X145253174Y-121463556D01*
X145374447Y-121475500D01*
X145374456Y-121475500D01*
X145414999Y-121479493D01*
X145455542Y-121475500D01*
X150708450Y-121475500D01*
X150749000Y-121479494D01*
X150789550Y-121475500D01*
X150789553Y-121475500D01*
X150910826Y-121463556D01*
X151066434Y-121416353D01*
X151209842Y-121339699D01*
X151335541Y-121236541D01*
X151361397Y-121205035D01*
X152084046Y-120482388D01*
X152115541Y-120456541D01*
X152141389Y-120425045D01*
X152141392Y-120425042D01*
X152218699Y-120330843D01*
X152295353Y-120187434D01*
X152304490Y-120157314D01*
X152342556Y-120031826D01*
X152354500Y-119910553D01*
X152354500Y-119910551D01*
X152358494Y-119870000D01*
X152354500Y-119829450D01*
X152354500Y-119671138D01*
X152411671Y-119564179D01*
X152447683Y-119445462D01*
X152459843Y-119322001D01*
X152459843Y-118421999D01*
X152447683Y-118298538D01*
X152411671Y-118179821D01*
X152354500Y-118072862D01*
X152354500Y-117279542D01*
X152358493Y-117238999D01*
X152354500Y-117198456D01*
X152354500Y-117198447D01*
X152342556Y-117077174D01*
X152295353Y-116921566D01*
X152218699Y-116778158D01*
X152218698Y-116778156D01*
X152161181Y-116708072D01*
X152115541Y-116652459D01*
X152084039Y-116626606D01*
X151104600Y-115647168D01*
X151104600Y-115627465D01*
X151948000Y-115627465D01*
X151948000Y-115766535D01*
X151975131Y-115902933D01*
X152028351Y-116031416D01*
X152105614Y-116147049D01*
X152203951Y-116245386D01*
X152319584Y-116322649D01*
X152448067Y-116375869D01*
X152543661Y-116394884D01*
X152980501Y-116831724D01*
X152980500Y-117839638D01*
X152875411Y-117895810D01*
X152779512Y-117974512D01*
X152700810Y-118070411D01*
X152642329Y-118179821D01*
X152606317Y-118298538D01*
X152594157Y-118421999D01*
X152594157Y-119322001D01*
X152606317Y-119445462D01*
X152642329Y-119564179D01*
X152700810Y-119673589D01*
X152779512Y-119769488D01*
X152875411Y-119848190D01*
X152984821Y-119906671D01*
X153103538Y-119942683D01*
X153226999Y-119954843D01*
X153877001Y-119954843D01*
X154000462Y-119942683D01*
X154119179Y-119906671D01*
X154228589Y-119848190D01*
X154324488Y-119769488D01*
X154403190Y-119673589D01*
X154461671Y-119564179D01*
X154497683Y-119445462D01*
X154509843Y-119322001D01*
X154509843Y-119239059D01*
X185894000Y-119239059D01*
X185894000Y-119520941D01*
X185948993Y-119797407D01*
X186056864Y-120057833D01*
X186213470Y-120292209D01*
X186412791Y-120491530D01*
X186647167Y-120648136D01*
X186907593Y-120756007D01*
X187184059Y-120811000D01*
X187465941Y-120811000D01*
X187742407Y-120756007D01*
X188002833Y-120648136D01*
X188237209Y-120491530D01*
X188436530Y-120292209D01*
X188593136Y-120057833D01*
X188701007Y-119797407D01*
X188756000Y-119520941D01*
X188756000Y-119239059D01*
X188701007Y-118962593D01*
X188593136Y-118702167D01*
X188436530Y-118467791D01*
X188237209Y-118268470D01*
X188002833Y-118111864D01*
X187742407Y-118003993D01*
X187465941Y-117949000D01*
X187184059Y-117949000D01*
X186907593Y-118003993D01*
X186647167Y-118111864D01*
X186412791Y-118268470D01*
X186213470Y-118467791D01*
X186056864Y-118702167D01*
X185948993Y-118962593D01*
X185894000Y-119239059D01*
X154509843Y-119239059D01*
X154509843Y-118421999D01*
X154497683Y-118298538D01*
X154461671Y-118179821D01*
X154403190Y-118070411D01*
X154324488Y-117974512D01*
X154228589Y-117895810D01*
X154123500Y-117839639D01*
X154123500Y-116623074D01*
X154126265Y-116595000D01*
X154115231Y-116482966D01*
X154082552Y-116375238D01*
X154029484Y-116275955D01*
X154023421Y-116268567D01*
X153958067Y-116188933D01*
X153936257Y-116171034D01*
X153351884Y-115586661D01*
X153332869Y-115491067D01*
X153279649Y-115362584D01*
X153202386Y-115246951D01*
X153104049Y-115148614D01*
X152988416Y-115071351D01*
X152859933Y-115018131D01*
X152723535Y-114991000D01*
X152584465Y-114991000D01*
X152448067Y-115018131D01*
X152319584Y-115071351D01*
X152203951Y-115148614D01*
X152105614Y-115246951D01*
X152028351Y-115362584D01*
X151975131Y-115491067D01*
X151948000Y-115627465D01*
X151104600Y-115627465D01*
X151104600Y-115447418D01*
X151056771Y-115206964D01*
X150962950Y-114980461D01*
X150900768Y-114887399D01*
X156070825Y-114887399D01*
X156098899Y-114890164D01*
X156126973Y-114887399D01*
X156220592Y-114887399D01*
X156201299Y-114923492D01*
X156179513Y-114995311D01*
X156172157Y-115070000D01*
X156172157Y-116070000D01*
X156179513Y-116144689D01*
X156201299Y-116216508D01*
X156236678Y-116282696D01*
X156284289Y-116340711D01*
X156342304Y-116388322D01*
X156408492Y-116423701D01*
X156480311Y-116445487D01*
X156555000Y-116452843D01*
X159705000Y-116452843D01*
X159779689Y-116445487D01*
X159851508Y-116423701D01*
X159917696Y-116388322D01*
X159975711Y-116340711D01*
X160023322Y-116282696D01*
X160058701Y-116216508D01*
X160080487Y-116144689D01*
X160087843Y-116070000D01*
X160966928Y-116070000D01*
X160979188Y-116194482D01*
X161015498Y-116314180D01*
X161074463Y-116424494D01*
X161153815Y-116521185D01*
X161250506Y-116600537D01*
X161360820Y-116659502D01*
X161480518Y-116695812D01*
X161605000Y-116708072D01*
X162894250Y-116705000D01*
X163053000Y-116546250D01*
X163053000Y-115697000D01*
X163307000Y-115697000D01*
X163307000Y-116546250D01*
X163465750Y-116705000D01*
X164755000Y-116708072D01*
X164879482Y-116695812D01*
X164999180Y-116659502D01*
X165109494Y-116600537D01*
X165206185Y-116521185D01*
X165285537Y-116424494D01*
X165344502Y-116314180D01*
X165380812Y-116194482D01*
X165393072Y-116070000D01*
X165390000Y-115855750D01*
X165231250Y-115697000D01*
X163307000Y-115697000D01*
X163053000Y-115697000D01*
X161128750Y-115697000D01*
X160970000Y-115855750D01*
X160966928Y-116070000D01*
X160087843Y-116070000D01*
X160087843Y-115070000D01*
X160966928Y-115070000D01*
X160970000Y-115284250D01*
X161128750Y-115443000D01*
X163053000Y-115443000D01*
X163053000Y-114593750D01*
X163307000Y-114593750D01*
X163307000Y-115443000D01*
X165231250Y-115443000D01*
X165390000Y-115284250D01*
X165393072Y-115070000D01*
X165380812Y-114945518D01*
X165344502Y-114825820D01*
X165285537Y-114715506D01*
X165206185Y-114618815D01*
X165109494Y-114539463D01*
X164999180Y-114480498D01*
X164879482Y-114444188D01*
X164755000Y-114431928D01*
X163465750Y-114435000D01*
X163307000Y-114593750D01*
X163053000Y-114593750D01*
X162894250Y-114435000D01*
X161605000Y-114431928D01*
X161480518Y-114444188D01*
X161360820Y-114480498D01*
X161250506Y-114539463D01*
X161153815Y-114618815D01*
X161074463Y-114715506D01*
X161015498Y-114825820D01*
X160979188Y-114945518D01*
X160966928Y-115070000D01*
X160087843Y-115070000D01*
X160080487Y-114995311D01*
X160058701Y-114923492D01*
X160023322Y-114857304D01*
X159975711Y-114799289D01*
X159917696Y-114751678D01*
X159851508Y-114716299D01*
X159779689Y-114694513D01*
X159705000Y-114687157D01*
X158055380Y-114687157D01*
X157299869Y-113931647D01*
X157284437Y-113912843D01*
X159705000Y-113912843D01*
X159779689Y-113905487D01*
X159851508Y-113883701D01*
X159917696Y-113848322D01*
X159975711Y-113800711D01*
X160023322Y-113742696D01*
X160058701Y-113676508D01*
X160080487Y-113604689D01*
X160087843Y-113530000D01*
X160087843Y-112530000D01*
X160080487Y-112455311D01*
X160058701Y-112383492D01*
X160023322Y-112317304D01*
X159975711Y-112259289D01*
X159917696Y-112211678D01*
X159851508Y-112176299D01*
X159779689Y-112154513D01*
X159705000Y-112147157D01*
X159303610Y-112147157D01*
X159315113Y-112129942D01*
X159373987Y-111987809D01*
X159404000Y-111836922D01*
X159404000Y-111683078D01*
X159373987Y-111532191D01*
X159315113Y-111390058D01*
X159303610Y-111372843D01*
X159705000Y-111372843D01*
X159779689Y-111365487D01*
X159851508Y-111343701D01*
X159917696Y-111308322D01*
X159975711Y-111260711D01*
X160023322Y-111202696D01*
X160058701Y-111136508D01*
X160080487Y-111064689D01*
X160087843Y-110990000D01*
X160087843Y-110186036D01*
X160135942Y-110166113D01*
X160263859Y-110080642D01*
X160372642Y-109971859D01*
X160458113Y-109843942D01*
X160495476Y-109753742D01*
X160556358Y-109844859D01*
X160591500Y-109880001D01*
X160591501Y-112940916D01*
X160588735Y-112969000D01*
X160599769Y-113081033D01*
X160632448Y-113188761D01*
X160679323Y-113276457D01*
X160685517Y-113288045D01*
X160756934Y-113375067D01*
X160778744Y-113392966D01*
X160800030Y-113414252D01*
X160817933Y-113436067D01*
X160904955Y-113507484D01*
X161004238Y-113560552D01*
X161111966Y-113593231D01*
X161154015Y-113597372D01*
X161223999Y-113604265D01*
X161229419Y-113603731D01*
X161229513Y-113604689D01*
X161251299Y-113676508D01*
X161286678Y-113742696D01*
X161334289Y-113800711D01*
X161392304Y-113848322D01*
X161458492Y-113883701D01*
X161530311Y-113905487D01*
X161605000Y-113912843D01*
X164755000Y-113912843D01*
X164829689Y-113905487D01*
X164901508Y-113883701D01*
X164967696Y-113848322D01*
X165025711Y-113800711D01*
X165073322Y-113742696D01*
X165108701Y-113676508D01*
X165130487Y-113604689D01*
X165137843Y-113530000D01*
X165137843Y-113370000D01*
X170718928Y-113370000D01*
X170731188Y-113494482D01*
X170767498Y-113614180D01*
X170826463Y-113724494D01*
X170905815Y-113821185D01*
X171002506Y-113900537D01*
X171112820Y-113959502D01*
X171232518Y-113995812D01*
X171357000Y-114008072D01*
X172171250Y-114005000D01*
X172330000Y-113846250D01*
X172330000Y-112897000D01*
X172584000Y-112897000D01*
X172584000Y-113846250D01*
X172742750Y-114005000D01*
X173557000Y-114008072D01*
X173681482Y-113995812D01*
X173801180Y-113959502D01*
X173911494Y-113900537D01*
X174008185Y-113821185D01*
X174087537Y-113724494D01*
X174146502Y-113614180D01*
X174182812Y-113494482D01*
X174195072Y-113370000D01*
X174192000Y-113055750D01*
X174033250Y-112897000D01*
X172584000Y-112897000D01*
X172330000Y-112897000D01*
X170880750Y-112897000D01*
X170722000Y-113055750D01*
X170718928Y-113370000D01*
X165137843Y-113370000D01*
X165137843Y-112530000D01*
X165130487Y-112455311D01*
X165108701Y-112383492D01*
X165073322Y-112317304D01*
X165025711Y-112259289D01*
X164967696Y-112211678D01*
X164901508Y-112176299D01*
X164829689Y-112154513D01*
X164755000Y-112147157D01*
X161734500Y-112147157D01*
X161734500Y-112090000D01*
X168206928Y-112090000D01*
X168219188Y-112214482D01*
X168255498Y-112334180D01*
X168314463Y-112444494D01*
X168393815Y-112541185D01*
X168490506Y-112620537D01*
X168600820Y-112679502D01*
X168720518Y-112715812D01*
X168845000Y-112728072D01*
X169259250Y-112725000D01*
X169418000Y-112566250D01*
X169418000Y-111642000D01*
X169672000Y-111642000D01*
X169672000Y-112566250D01*
X169830750Y-112725000D01*
X170245000Y-112728072D01*
X170369482Y-112715812D01*
X170489180Y-112679502D01*
X170599494Y-112620537D01*
X170696185Y-112541185D01*
X170733485Y-112495735D01*
X170880750Y-112643000D01*
X172330000Y-112643000D01*
X172330000Y-111693750D01*
X172584000Y-111693750D01*
X172584000Y-112643000D01*
X174033250Y-112643000D01*
X174192000Y-112484250D01*
X174195072Y-112170000D01*
X174182812Y-112045518D01*
X174146502Y-111925820D01*
X174087537Y-111815506D01*
X174008185Y-111718815D01*
X173911494Y-111639463D01*
X173801180Y-111580498D01*
X173681482Y-111544188D01*
X173557000Y-111531928D01*
X172742750Y-111535000D01*
X172584000Y-111693750D01*
X172330000Y-111693750D01*
X172171250Y-111535000D01*
X171357000Y-111531928D01*
X171232518Y-111544188D01*
X171112820Y-111580498D01*
X171002506Y-111639463D01*
X170905815Y-111718815D01*
X170857246Y-111777996D01*
X170721250Y-111642000D01*
X169672000Y-111642000D01*
X169418000Y-111642000D01*
X168368750Y-111642000D01*
X168210000Y-111800750D01*
X168206928Y-112090000D01*
X161734500Y-112090000D01*
X161734500Y-111372843D01*
X164755000Y-111372843D01*
X164829689Y-111365487D01*
X164901508Y-111343701D01*
X164967696Y-111308322D01*
X165025711Y-111260711D01*
X165073322Y-111202696D01*
X165108701Y-111136508D01*
X165130487Y-111064689D01*
X165131428Y-111055138D01*
X165215303Y-110986303D01*
X165237175Y-110959652D01*
X166458667Y-109738162D01*
X166485302Y-109716303D01*
X166507162Y-109689667D01*
X166507174Y-109689655D01*
X166572591Y-109609944D01*
X166637451Y-109488599D01*
X166644989Y-109463750D01*
X166677393Y-109356930D01*
X166687500Y-109254309D01*
X166687500Y-109254299D01*
X166690878Y-109220001D01*
X166687500Y-109185703D01*
X166687500Y-106115871D01*
X166984496Y-105818875D01*
X167063198Y-105722976D01*
X167121679Y-105613566D01*
X167157691Y-105494849D01*
X167169851Y-105371388D01*
X167157691Y-105247927D01*
X167121679Y-105129210D01*
X167063198Y-105019800D01*
X166984496Y-104923901D01*
X166624000Y-104563405D01*
X166624000Y-104125124D01*
X166627071Y-104093943D01*
X166624000Y-104062762D01*
X166624000Y-104062752D01*
X166614812Y-103969462D01*
X166578502Y-103849764D01*
X166519537Y-103739450D01*
X166440185Y-103642759D01*
X166415956Y-103622875D01*
X165794140Y-103001060D01*
X166105268Y-102689932D01*
X166152879Y-102631917D01*
X166177662Y-102585552D01*
X166224030Y-102560767D01*
X166282045Y-102513156D01*
X166670954Y-102124247D01*
X166718565Y-102066232D01*
X166753944Y-102000044D01*
X166775730Y-101928225D01*
X166783086Y-101853536D01*
X166775730Y-101778847D01*
X166753944Y-101707028D01*
X166718565Y-101640840D01*
X166670954Y-101582825D01*
X165545129Y-100457000D01*
X165998934Y-100003195D01*
X166631973Y-100003195D01*
X167322500Y-100693723D01*
X167322501Y-107785916D01*
X167319735Y-107814000D01*
X167330769Y-107926033D01*
X167363448Y-108033761D01*
X167416516Y-108133044D01*
X167416517Y-108133045D01*
X167487934Y-108220067D01*
X167509744Y-108237966D01*
X168462157Y-109190380D01*
X168462157Y-109790001D01*
X168474317Y-109913462D01*
X168510329Y-110032179D01*
X168568810Y-110141589D01*
X168647512Y-110237488D01*
X168738780Y-110312389D01*
X168720518Y-110314188D01*
X168600820Y-110350498D01*
X168490506Y-110409463D01*
X168393815Y-110488815D01*
X168314463Y-110585506D01*
X168255498Y-110695820D01*
X168219188Y-110815518D01*
X168206928Y-110940000D01*
X168210000Y-111229250D01*
X168368750Y-111388000D01*
X169418000Y-111388000D01*
X169418000Y-111368000D01*
X169672000Y-111368000D01*
X169672000Y-111388000D01*
X170721250Y-111388000D01*
X170880000Y-111229250D01*
X170883072Y-110940000D01*
X170870812Y-110815518D01*
X170834502Y-110695820D01*
X170775537Y-110585506D01*
X170696185Y-110488815D01*
X170599494Y-110409463D01*
X170489180Y-110350498D01*
X170369482Y-110314188D01*
X170351220Y-110312389D01*
X170442488Y-110237488D01*
X170521190Y-110141589D01*
X170579671Y-110032179D01*
X170615683Y-109913462D01*
X170617993Y-109890000D01*
X170974157Y-109890000D01*
X170974157Y-111090000D01*
X170981513Y-111164689D01*
X171003299Y-111236508D01*
X171038678Y-111302696D01*
X171086289Y-111360711D01*
X171144304Y-111408322D01*
X171210492Y-111443701D01*
X171282311Y-111465487D01*
X171357000Y-111472843D01*
X173557000Y-111472843D01*
X173631689Y-111465487D01*
X173703508Y-111443701D01*
X173769696Y-111408322D01*
X173827711Y-111360711D01*
X173875322Y-111302696D01*
X173910701Y-111236508D01*
X173925264Y-111188500D01*
X175174157Y-111188500D01*
X175174157Y-113390000D01*
X175181513Y-113464689D01*
X175203299Y-113536508D01*
X175238678Y-113602696D01*
X175286289Y-113660711D01*
X175344304Y-113708322D01*
X175410492Y-113743701D01*
X175482311Y-113765487D01*
X175557000Y-113772843D01*
X181957000Y-113772843D01*
X182031689Y-113765487D01*
X182103508Y-113743701D01*
X182169696Y-113708322D01*
X182227711Y-113660711D01*
X182275322Y-113602696D01*
X182310701Y-113536508D01*
X182332487Y-113464689D01*
X182339843Y-113390000D01*
X182339843Y-112165000D01*
X185442157Y-112165000D01*
X185442157Y-115165000D01*
X185449513Y-115239689D01*
X185471299Y-115311508D01*
X185506678Y-115377696D01*
X185554289Y-115435711D01*
X185612304Y-115483322D01*
X185678492Y-115518701D01*
X185750311Y-115540487D01*
X185825000Y-115547843D01*
X188825000Y-115547843D01*
X188899689Y-115540487D01*
X188971508Y-115518701D01*
X189037696Y-115483322D01*
X189095711Y-115435711D01*
X189143322Y-115377696D01*
X189178701Y-115311508D01*
X189200487Y-115239689D01*
X189207843Y-115165000D01*
X189207843Y-112165000D01*
X189200487Y-112090311D01*
X189178701Y-112018492D01*
X189143322Y-111952304D01*
X189095711Y-111894289D01*
X189037696Y-111846678D01*
X188971508Y-111811299D01*
X188899689Y-111789513D01*
X188825000Y-111782157D01*
X185825000Y-111782157D01*
X185750311Y-111789513D01*
X185678492Y-111811299D01*
X185612304Y-111846678D01*
X185554289Y-111894289D01*
X185506678Y-111952304D01*
X185471299Y-112018492D01*
X185449513Y-112090311D01*
X185442157Y-112165000D01*
X182339843Y-112165000D01*
X182339843Y-110553500D01*
X187421699Y-110553500D01*
X187710893Y-110525017D01*
X188081957Y-110412456D01*
X188423931Y-110229667D01*
X188723674Y-109983674D01*
X188969667Y-109683931D01*
X189152456Y-109341957D01*
X189265017Y-108970893D01*
X189303024Y-108585000D01*
X189265017Y-108199107D01*
X189152456Y-107828043D01*
X188969667Y-107486069D01*
X188723674Y-107186326D01*
X188423931Y-106940333D01*
X188081957Y-106757544D01*
X187710893Y-106644983D01*
X187421699Y-106616500D01*
X180758689Y-106616500D01*
X180662000Y-106606977D01*
X180565311Y-106616500D01*
X180565301Y-106616500D01*
X180276107Y-106644983D01*
X179905043Y-106757544D01*
X179563069Y-106940333D01*
X179563067Y-106940334D01*
X179563068Y-106940334D01*
X179338436Y-107124684D01*
X179338432Y-107124688D01*
X179263326Y-107186326D01*
X179246230Y-107207157D01*
X175557000Y-107207157D01*
X175482311Y-107214513D01*
X175410492Y-107236299D01*
X175344304Y-107271678D01*
X175286289Y-107319289D01*
X175238678Y-107377304D01*
X175203299Y-107443492D01*
X175181513Y-107515311D01*
X175174157Y-107590000D01*
X175174157Y-109791500D01*
X173925264Y-109791500D01*
X173910701Y-109743492D01*
X173875322Y-109677304D01*
X173827711Y-109619289D01*
X173769696Y-109571678D01*
X173703508Y-109536299D01*
X173631689Y-109514513D01*
X173557000Y-109507157D01*
X171357000Y-109507157D01*
X171282311Y-109514513D01*
X171210492Y-109536299D01*
X171144304Y-109571678D01*
X171086289Y-109619289D01*
X171038678Y-109677304D01*
X171003299Y-109743492D01*
X170981513Y-109815311D01*
X170974157Y-109890000D01*
X170617993Y-109890000D01*
X170627843Y-109790001D01*
X170627843Y-109369984D01*
X171016543Y-108981285D01*
X171038678Y-109022696D01*
X171086289Y-109080711D01*
X171144304Y-109128322D01*
X171210492Y-109163701D01*
X171282311Y-109185487D01*
X171357000Y-109192843D01*
X173557000Y-109192843D01*
X173631689Y-109185487D01*
X173703508Y-109163701D01*
X173769696Y-109128322D01*
X173827711Y-109080711D01*
X173875322Y-109022696D01*
X173910701Y-108956508D01*
X173932487Y-108884689D01*
X173939843Y-108810000D01*
X173939843Y-107610000D01*
X173932487Y-107535311D01*
X173910701Y-107463492D01*
X173875322Y-107397304D01*
X173827711Y-107339289D01*
X173769696Y-107291678D01*
X173703508Y-107256299D01*
X173631689Y-107234513D01*
X173557000Y-107227157D01*
X171357000Y-107227157D01*
X171282311Y-107234513D01*
X171210492Y-107256299D01*
X171144304Y-107291678D01*
X171086289Y-107339289D01*
X171038678Y-107397304D01*
X171003299Y-107463492D01*
X170988736Y-107511500D01*
X170834297Y-107511500D01*
X170799999Y-107508122D01*
X170765701Y-107511500D01*
X170765691Y-107511500D01*
X170663070Y-107521607D01*
X170531403Y-107561548D01*
X170531401Y-107561549D01*
X170410056Y-107626409D01*
X170330346Y-107691826D01*
X170330343Y-107691829D01*
X170303697Y-107713697D01*
X170281829Y-107740343D01*
X169515016Y-108507157D01*
X169395380Y-108507157D01*
X168465500Y-107577278D01*
X168465500Y-105369000D01*
X170718928Y-105369000D01*
X170731188Y-105493482D01*
X170767498Y-105613180D01*
X170826463Y-105723494D01*
X170905815Y-105820185D01*
X171002506Y-105899537D01*
X171112820Y-105958502D01*
X171232518Y-105994812D01*
X171357000Y-106007072D01*
X172171250Y-106004000D01*
X172330000Y-105845250D01*
X172330000Y-104896000D01*
X172584000Y-104896000D01*
X172584000Y-105845250D01*
X172742750Y-106004000D01*
X173557000Y-106007072D01*
X173681482Y-105994812D01*
X173801180Y-105958502D01*
X173911494Y-105899537D01*
X174008185Y-105820185D01*
X174087537Y-105723494D01*
X174146502Y-105613180D01*
X174182812Y-105493482D01*
X174195072Y-105369000D01*
X174192000Y-105054750D01*
X174033250Y-104896000D01*
X172584000Y-104896000D01*
X172330000Y-104896000D01*
X170880750Y-104896000D01*
X170722000Y-105054750D01*
X170718928Y-105369000D01*
X168465500Y-105369000D01*
X168465500Y-104599015D01*
X168490506Y-104619537D01*
X168600820Y-104678502D01*
X168720518Y-104714812D01*
X168845000Y-104727072D01*
X169259250Y-104724000D01*
X169418000Y-104565250D01*
X169418000Y-103641000D01*
X169672000Y-103641000D01*
X169672000Y-104565250D01*
X169830750Y-104724000D01*
X170245000Y-104727072D01*
X170369482Y-104714812D01*
X170489180Y-104678502D01*
X170599494Y-104619537D01*
X170696185Y-104540185D01*
X170733485Y-104494735D01*
X170880750Y-104642000D01*
X172330000Y-104642000D01*
X172330000Y-103692750D01*
X172584000Y-103692750D01*
X172584000Y-104642000D01*
X174033250Y-104642000D01*
X174192000Y-104483250D01*
X174195072Y-104169000D01*
X174182812Y-104044518D01*
X174146502Y-103924820D01*
X174087537Y-103814506D01*
X174008185Y-103717815D01*
X173911494Y-103638463D01*
X173801180Y-103579498D01*
X173681482Y-103543188D01*
X173557000Y-103530928D01*
X172742750Y-103534000D01*
X172584000Y-103692750D01*
X172330000Y-103692750D01*
X172171250Y-103534000D01*
X171357000Y-103530928D01*
X171232518Y-103543188D01*
X171112820Y-103579498D01*
X171002506Y-103638463D01*
X170905815Y-103717815D01*
X170857246Y-103776996D01*
X170721250Y-103641000D01*
X169672000Y-103641000D01*
X169418000Y-103641000D01*
X169398000Y-103641000D01*
X169398000Y-103387000D01*
X169418000Y-103387000D01*
X169418000Y-103367000D01*
X169672000Y-103367000D01*
X169672000Y-103387000D01*
X170721250Y-103387000D01*
X170880000Y-103228250D01*
X170883072Y-102939000D01*
X170870812Y-102814518D01*
X170834502Y-102694820D01*
X170775537Y-102584506D01*
X170696185Y-102487815D01*
X170599494Y-102408463D01*
X170489180Y-102349498D01*
X170369482Y-102313188D01*
X170351220Y-102311389D01*
X170442488Y-102236488D01*
X170521190Y-102140589D01*
X170579671Y-102031179D01*
X170615683Y-101912462D01*
X170617993Y-101889000D01*
X170974157Y-101889000D01*
X170974157Y-103089000D01*
X170981513Y-103163689D01*
X171003299Y-103235508D01*
X171038678Y-103301696D01*
X171086289Y-103359711D01*
X171144304Y-103407322D01*
X171210492Y-103442701D01*
X171282311Y-103464487D01*
X171357000Y-103471843D01*
X173557000Y-103471843D01*
X173631689Y-103464487D01*
X173703508Y-103442701D01*
X173769696Y-103407322D01*
X173827711Y-103359711D01*
X173875322Y-103301696D01*
X173910701Y-103235508D01*
X173925264Y-103187500D01*
X175174157Y-103187500D01*
X175174157Y-105389000D01*
X175181513Y-105463689D01*
X175203299Y-105535508D01*
X175238678Y-105601696D01*
X175286289Y-105659711D01*
X175344304Y-105707322D01*
X175410492Y-105742701D01*
X175482311Y-105764487D01*
X175557000Y-105771843D01*
X181957000Y-105771843D01*
X182031689Y-105764487D01*
X182103508Y-105742701D01*
X182169696Y-105707322D01*
X182227711Y-105659711D01*
X182275322Y-105601696D01*
X182310701Y-105535508D01*
X182329511Y-105473500D01*
X187421699Y-105473500D01*
X187710893Y-105445017D01*
X188081957Y-105332456D01*
X188423931Y-105149667D01*
X188723674Y-104903674D01*
X188969667Y-104603931D01*
X189152456Y-104261957D01*
X189265017Y-103890893D01*
X189303024Y-103505000D01*
X189265017Y-103119107D01*
X189152456Y-102748043D01*
X188969667Y-102406069D01*
X188723674Y-102106326D01*
X188423931Y-101860333D01*
X188081957Y-101677544D01*
X187710893Y-101564983D01*
X187421699Y-101536500D01*
X182339843Y-101536500D01*
X182339843Y-99589000D01*
X182332487Y-99514311D01*
X182310701Y-99442492D01*
X182275322Y-99376304D01*
X182227711Y-99318289D01*
X182169696Y-99270678D01*
X182103508Y-99235299D01*
X182031689Y-99213513D01*
X181957000Y-99206157D01*
X175557000Y-99206157D01*
X175482311Y-99213513D01*
X175410492Y-99235299D01*
X175344304Y-99270678D01*
X175286289Y-99318289D01*
X175238678Y-99376304D01*
X175203299Y-99442492D01*
X175181513Y-99514311D01*
X175174157Y-99589000D01*
X175174157Y-101790500D01*
X173925264Y-101790500D01*
X173910701Y-101742492D01*
X173875322Y-101676304D01*
X173827711Y-101618289D01*
X173769696Y-101570678D01*
X173703508Y-101535299D01*
X173631689Y-101513513D01*
X173557000Y-101506157D01*
X171357000Y-101506157D01*
X171282311Y-101513513D01*
X171210492Y-101535299D01*
X171144304Y-101570678D01*
X171086289Y-101618289D01*
X171038678Y-101676304D01*
X171003299Y-101742492D01*
X170981513Y-101814311D01*
X170974157Y-101889000D01*
X170617993Y-101889000D01*
X170627843Y-101789001D01*
X170627843Y-101368984D01*
X171016543Y-100980285D01*
X171038678Y-101021696D01*
X171086289Y-101079711D01*
X171144304Y-101127322D01*
X171210492Y-101162701D01*
X171282311Y-101184487D01*
X171357000Y-101191843D01*
X173557000Y-101191843D01*
X173631689Y-101184487D01*
X173703508Y-101162701D01*
X173769696Y-101127322D01*
X173827711Y-101079711D01*
X173875322Y-101021696D01*
X173910701Y-100955508D01*
X173932487Y-100883689D01*
X173939843Y-100809000D01*
X173939843Y-99609000D01*
X173932487Y-99534311D01*
X173910701Y-99462492D01*
X173875322Y-99396304D01*
X173827711Y-99338289D01*
X173769696Y-99290678D01*
X173703508Y-99255299D01*
X173631689Y-99233513D01*
X173557000Y-99226157D01*
X171357000Y-99226157D01*
X171282311Y-99233513D01*
X171210492Y-99255299D01*
X171144304Y-99290678D01*
X171086289Y-99338289D01*
X171038678Y-99396304D01*
X171003299Y-99462492D01*
X170988736Y-99510500D01*
X170834297Y-99510500D01*
X170799999Y-99507122D01*
X170765701Y-99510500D01*
X170765691Y-99510500D01*
X170663070Y-99520607D01*
X170531403Y-99560548D01*
X170531401Y-99560549D01*
X170410056Y-99625409D01*
X170330346Y-99690826D01*
X170330343Y-99690829D01*
X170303697Y-99712697D01*
X170281829Y-99739343D01*
X170116500Y-99904672D01*
X170116500Y-97818071D01*
X170119265Y-97789999D01*
X170114385Y-97740453D01*
X170108231Y-97677966D01*
X170075552Y-97570238D01*
X170035337Y-97495000D01*
X170718928Y-97495000D01*
X170731188Y-97619482D01*
X170767498Y-97739180D01*
X170826463Y-97849494D01*
X170905815Y-97946185D01*
X171002506Y-98025537D01*
X171112820Y-98084502D01*
X171232518Y-98120812D01*
X171357000Y-98133072D01*
X172171250Y-98130000D01*
X172330000Y-97971250D01*
X172330000Y-97022000D01*
X172584000Y-97022000D01*
X172584000Y-97971250D01*
X172742750Y-98130000D01*
X173557000Y-98133072D01*
X173681482Y-98120812D01*
X173801180Y-98084502D01*
X173911494Y-98025537D01*
X174008185Y-97946185D01*
X174087537Y-97849494D01*
X174146502Y-97739180D01*
X174182812Y-97619482D01*
X174195072Y-97495000D01*
X174192000Y-97180750D01*
X174033250Y-97022000D01*
X172584000Y-97022000D01*
X172330000Y-97022000D01*
X170880750Y-97022000D01*
X170722000Y-97180750D01*
X170718928Y-97495000D01*
X170035337Y-97495000D01*
X170022484Y-97470955D01*
X169951067Y-97383933D01*
X169929258Y-97366035D01*
X169460970Y-96897748D01*
X169443067Y-96875933D01*
X169356045Y-96804516D01*
X169322607Y-96786643D01*
X169418000Y-96691250D01*
X169418000Y-95767000D01*
X169672000Y-95767000D01*
X169672000Y-96691250D01*
X169830750Y-96850000D01*
X170245000Y-96853072D01*
X170369482Y-96840812D01*
X170489180Y-96804502D01*
X170599494Y-96745537D01*
X170696185Y-96666185D01*
X170733485Y-96620735D01*
X170880750Y-96768000D01*
X172330000Y-96768000D01*
X172330000Y-95818750D01*
X172584000Y-95818750D01*
X172584000Y-96768000D01*
X174033250Y-96768000D01*
X174192000Y-96609250D01*
X174195072Y-96295000D01*
X174182812Y-96170518D01*
X174146502Y-96050820D01*
X174087537Y-95940506D01*
X174008185Y-95843815D01*
X173911494Y-95764463D01*
X173801180Y-95705498D01*
X173681482Y-95669188D01*
X173557000Y-95656928D01*
X172742750Y-95660000D01*
X172584000Y-95818750D01*
X172330000Y-95818750D01*
X172171250Y-95660000D01*
X171357000Y-95656928D01*
X171232518Y-95669188D01*
X171112820Y-95705498D01*
X171002506Y-95764463D01*
X170905815Y-95843815D01*
X170857246Y-95902996D01*
X170721250Y-95767000D01*
X169672000Y-95767000D01*
X169418000Y-95767000D01*
X168368750Y-95767000D01*
X168210000Y-95925750D01*
X168206928Y-96215000D01*
X168219188Y-96339482D01*
X168255498Y-96459180D01*
X168314463Y-96569494D01*
X168393815Y-96666185D01*
X168447813Y-96710500D01*
X166686498Y-96710500D01*
X166658426Y-96707735D01*
X166630354Y-96710500D01*
X166630353Y-96710500D01*
X166546393Y-96718769D01*
X166438665Y-96751448D01*
X166339382Y-96804516D01*
X166252360Y-96875933D01*
X166234461Y-96897743D01*
X165506703Y-97625502D01*
X165150674Y-97269473D01*
X165092659Y-97221862D01*
X165046293Y-97197078D01*
X165021509Y-97150712D01*
X164973898Y-97092697D01*
X164712967Y-96831766D01*
X167383233Y-94161500D01*
X168512639Y-94161500D01*
X168568810Y-94266589D01*
X168647512Y-94362488D01*
X168738780Y-94437389D01*
X168720518Y-94439188D01*
X168600820Y-94475498D01*
X168490506Y-94534463D01*
X168393815Y-94613815D01*
X168314463Y-94710506D01*
X168255498Y-94820820D01*
X168219188Y-94940518D01*
X168206928Y-95065000D01*
X168210000Y-95354250D01*
X168368750Y-95513000D01*
X169418000Y-95513000D01*
X169418000Y-95493000D01*
X169672000Y-95493000D01*
X169672000Y-95513000D01*
X170721250Y-95513000D01*
X170880000Y-95354250D01*
X170883072Y-95065000D01*
X170870812Y-94940518D01*
X170834502Y-94820820D01*
X170775537Y-94710506D01*
X170696185Y-94613815D01*
X170599494Y-94534463D01*
X170489180Y-94475498D01*
X170369482Y-94439188D01*
X170351220Y-94437389D01*
X170442488Y-94362488D01*
X170521190Y-94266589D01*
X170579671Y-94157179D01*
X170615683Y-94038462D01*
X170617993Y-94015000D01*
X170974157Y-94015000D01*
X170974157Y-95215000D01*
X170981513Y-95289689D01*
X171003299Y-95361508D01*
X171038678Y-95427696D01*
X171086289Y-95485711D01*
X171144304Y-95533322D01*
X171210492Y-95568701D01*
X171282311Y-95590487D01*
X171357000Y-95597843D01*
X173557000Y-95597843D01*
X173631689Y-95590487D01*
X173703508Y-95568701D01*
X173769696Y-95533322D01*
X173827711Y-95485711D01*
X173875322Y-95427696D01*
X173910701Y-95361508D01*
X173925264Y-95313500D01*
X175174157Y-95313500D01*
X175174157Y-97515000D01*
X175181513Y-97589689D01*
X175203299Y-97661508D01*
X175238678Y-97727696D01*
X175286289Y-97785711D01*
X175344304Y-97833322D01*
X175410492Y-97868701D01*
X175482311Y-97890487D01*
X175557000Y-97897843D01*
X181957000Y-97897843D01*
X182031689Y-97890487D01*
X182103508Y-97868701D01*
X182169696Y-97833322D01*
X182227711Y-97785711D01*
X182275322Y-97727696D01*
X182310701Y-97661508D01*
X182332487Y-97589689D01*
X182339843Y-97515000D01*
X182339843Y-96583500D01*
X182699621Y-96583500D01*
X186001437Y-99885316D01*
X186226068Y-100069666D01*
X186568043Y-100252456D01*
X186939106Y-100365016D01*
X187325000Y-100403023D01*
X187710893Y-100365016D01*
X188081957Y-100252456D01*
X188423931Y-100069666D01*
X188723674Y-99823674D01*
X188969666Y-99523931D01*
X189152456Y-99181957D01*
X189265016Y-98810893D01*
X189303023Y-98425000D01*
X189265016Y-98039106D01*
X189152456Y-97668043D01*
X188969666Y-97326068D01*
X188785316Y-97101437D01*
X184975316Y-93291437D01*
X184913674Y-93216326D01*
X184613931Y-92970333D01*
X184271957Y-92787544D01*
X183900893Y-92674983D01*
X183611699Y-92646500D01*
X183611689Y-92646500D01*
X183515000Y-92636977D01*
X183418311Y-92646500D01*
X182339843Y-92646500D01*
X182339843Y-92569059D01*
X185894000Y-92569059D01*
X185894000Y-92850941D01*
X185948993Y-93127407D01*
X186056864Y-93387833D01*
X186213470Y-93622209D01*
X186412791Y-93821530D01*
X186647167Y-93978136D01*
X186907593Y-94086007D01*
X187184059Y-94141000D01*
X187465941Y-94141000D01*
X187742407Y-94086007D01*
X188002833Y-93978136D01*
X188237209Y-93821530D01*
X188436530Y-93622209D01*
X188593136Y-93387833D01*
X188701007Y-93127407D01*
X188756000Y-92850941D01*
X188756000Y-92569059D01*
X188701007Y-92292593D01*
X188593136Y-92032167D01*
X188436530Y-91797791D01*
X188237209Y-91598470D01*
X188002833Y-91441864D01*
X187742407Y-91333993D01*
X187465941Y-91279000D01*
X187184059Y-91279000D01*
X186907593Y-91333993D01*
X186647167Y-91441864D01*
X186412791Y-91598470D01*
X186213470Y-91797791D01*
X186056864Y-92032167D01*
X185948993Y-92292593D01*
X185894000Y-92569059D01*
X182339843Y-92569059D01*
X182339843Y-91715000D01*
X182332487Y-91640311D01*
X182310701Y-91568492D01*
X182275322Y-91502304D01*
X182227711Y-91444289D01*
X182169696Y-91396678D01*
X182103508Y-91361299D01*
X182031689Y-91339513D01*
X181957000Y-91332157D01*
X175557000Y-91332157D01*
X175482311Y-91339513D01*
X175410492Y-91361299D01*
X175344304Y-91396678D01*
X175286289Y-91444289D01*
X175238678Y-91502304D01*
X175203299Y-91568492D01*
X175181513Y-91640311D01*
X175174157Y-91715000D01*
X175174157Y-93916500D01*
X173925264Y-93916500D01*
X173910701Y-93868492D01*
X173875322Y-93802304D01*
X173827711Y-93744289D01*
X173769696Y-93696678D01*
X173703508Y-93661299D01*
X173631689Y-93639513D01*
X173557000Y-93632157D01*
X171357000Y-93632157D01*
X171282311Y-93639513D01*
X171210492Y-93661299D01*
X171144304Y-93696678D01*
X171086289Y-93744289D01*
X171038678Y-93802304D01*
X171003299Y-93868492D01*
X170981513Y-93940311D01*
X170974157Y-94015000D01*
X170617993Y-94015000D01*
X170627843Y-93915001D01*
X170627843Y-93494984D01*
X171016543Y-93106285D01*
X171038678Y-93147696D01*
X171086289Y-93205711D01*
X171144304Y-93253322D01*
X171210492Y-93288701D01*
X171282311Y-93310487D01*
X171357000Y-93317843D01*
X173557000Y-93317843D01*
X173631689Y-93310487D01*
X173703508Y-93288701D01*
X173769696Y-93253322D01*
X173827711Y-93205711D01*
X173875322Y-93147696D01*
X173910701Y-93081508D01*
X173932487Y-93009689D01*
X173939843Y-92935000D01*
X173939843Y-91735000D01*
X173932487Y-91660311D01*
X173910701Y-91588492D01*
X173875322Y-91522304D01*
X173827711Y-91464289D01*
X173769696Y-91416678D01*
X173703508Y-91381299D01*
X173631689Y-91359513D01*
X173557000Y-91352157D01*
X171357000Y-91352157D01*
X171282311Y-91359513D01*
X171210492Y-91381299D01*
X171144304Y-91416678D01*
X171086289Y-91464289D01*
X171038678Y-91522304D01*
X171003299Y-91588492D01*
X170988736Y-91636500D01*
X170834297Y-91636500D01*
X170799999Y-91633122D01*
X170765701Y-91636500D01*
X170765691Y-91636500D01*
X170663070Y-91646607D01*
X170531403Y-91686548D01*
X170531401Y-91686549D01*
X170410056Y-91751409D01*
X170330346Y-91816826D01*
X170330343Y-91816829D01*
X170303697Y-91838697D01*
X170281829Y-91865343D01*
X169515016Y-92632157D01*
X169094999Y-92632157D01*
X168971538Y-92644317D01*
X168852821Y-92680329D01*
X168743411Y-92738810D01*
X168647512Y-92817512D01*
X168568810Y-92913411D01*
X168512639Y-93018500D01*
X167174584Y-93018500D01*
X167146510Y-93015735D01*
X167043208Y-93025909D01*
X167034476Y-93026769D01*
X166926748Y-93059448D01*
X166827465Y-93112516D01*
X166740443Y-93183933D01*
X166722544Y-93205743D01*
X163896690Y-96031598D01*
X163890138Y-96019341D01*
X163842527Y-95961326D01*
X163453618Y-95572417D01*
X163395603Y-95524806D01*
X163349235Y-95500021D01*
X163324452Y-95453656D01*
X163276841Y-95395641D01*
X162887932Y-95006732D01*
X162829917Y-94959121D01*
X162783552Y-94934338D01*
X162758767Y-94887970D01*
X162711156Y-94829955D01*
X162322247Y-94441046D01*
X162264232Y-94393435D01*
X162198044Y-94358056D01*
X162126225Y-94336270D01*
X162051536Y-94328914D01*
X161976847Y-94336270D01*
X161905028Y-94358056D01*
X161838840Y-94393435D01*
X161780825Y-94441046D01*
X160655000Y-95566871D01*
X159529175Y-94441046D01*
X159480733Y-94401291D01*
X159685241Y-94196784D01*
X163277413Y-94196784D01*
X163637909Y-94557280D01*
X163733808Y-94635982D01*
X163843218Y-94694463D01*
X163961935Y-94730475D01*
X164085396Y-94742635D01*
X164208857Y-94730475D01*
X164327574Y-94694463D01*
X164436984Y-94635982D01*
X164532883Y-94557280D01*
X165169280Y-93920883D01*
X165247982Y-93824984D01*
X165306463Y-93715574D01*
X165342475Y-93596857D01*
X165354635Y-93473396D01*
X165342475Y-93349935D01*
X165306463Y-93231218D01*
X165247982Y-93121808D01*
X165169280Y-93025909D01*
X164709659Y-92566288D01*
X164613760Y-92487586D01*
X164504350Y-92429105D01*
X164385633Y-92393093D01*
X164262172Y-92380933D01*
X164138711Y-92393093D01*
X164019994Y-92429105D01*
X163910584Y-92487586D01*
X163814685Y-92566288D01*
X163454189Y-92926784D01*
X163264243Y-92926784D01*
X163719712Y-92471315D01*
X163798414Y-92375416D01*
X163856895Y-92266006D01*
X163892907Y-92147289D01*
X163905067Y-92023828D01*
X163892907Y-91900367D01*
X163856895Y-91781650D01*
X163798414Y-91672240D01*
X163719712Y-91576341D01*
X163260091Y-91116720D01*
X163164192Y-91038018D01*
X163054782Y-90979537D01*
X162936065Y-90943525D01*
X162812604Y-90931365D01*
X162689143Y-90943525D01*
X162570426Y-90979537D01*
X162461016Y-91038018D01*
X162365117Y-91116720D01*
X162004621Y-91477216D01*
X159305379Y-91477216D01*
X158944883Y-91116720D01*
X158848984Y-91038018D01*
X158739574Y-90979537D01*
X158620857Y-90943525D01*
X158497396Y-90931365D01*
X158373935Y-90943525D01*
X158255218Y-90979537D01*
X158145808Y-91038018D01*
X158049909Y-91116720D01*
X157590288Y-91576341D01*
X157511586Y-91672240D01*
X157453105Y-91781650D01*
X157417093Y-91900367D01*
X157404933Y-92023828D01*
X157417093Y-92147289D01*
X157453105Y-92266006D01*
X157511586Y-92375416D01*
X157590288Y-92471315D01*
X158226685Y-93107712D01*
X158322584Y-93186414D01*
X158431994Y-93244895D01*
X158550711Y-93280907D01*
X158674172Y-93293067D01*
X158797633Y-93280907D01*
X158808306Y-93277670D01*
X158301669Y-93784306D01*
X158304907Y-93773633D01*
X158317067Y-93650172D01*
X158304907Y-93526711D01*
X158268895Y-93407994D01*
X158210414Y-93298584D01*
X158131712Y-93202685D01*
X157495315Y-92566288D01*
X157399416Y-92487586D01*
X157290006Y-92429105D01*
X157171289Y-92393093D01*
X157047828Y-92380933D01*
X156924367Y-92393093D01*
X156805650Y-92429105D01*
X156696240Y-92487586D01*
X156600341Y-92566288D01*
X156140720Y-93025909D01*
X156062018Y-93121808D01*
X156003537Y-93231218D01*
X155967525Y-93349935D01*
X155955365Y-93473396D01*
X155967525Y-93596857D01*
X156003537Y-93715574D01*
X156031704Y-93768271D01*
X154873633Y-94926342D01*
X154864556Y-94834174D01*
X154817353Y-94678566D01*
X154740699Y-94535158D01*
X154637541Y-94409459D01*
X154511842Y-94306301D01*
X154368434Y-94229647D01*
X154212826Y-94182444D01*
X154091553Y-94170500D01*
X153543000Y-94170500D01*
X153543000Y-92837000D01*
X153535679Y-92762671D01*
X153513998Y-92691198D01*
X153478790Y-92625328D01*
X153431408Y-92567592D01*
X153373672Y-92520210D01*
X153307802Y-92485002D01*
X153236329Y-92463321D01*
X153162000Y-92456000D01*
X152293817Y-92456000D01*
X152290552Y-92445238D01*
X152237484Y-92345955D01*
X152166067Y-92258933D01*
X152144257Y-92241034D01*
X150479222Y-90576000D01*
X187305146Y-90576000D01*
X187739115Y-90618551D01*
X188137462Y-90738819D01*
X188504864Y-90934170D01*
X188827317Y-91197157D01*
X189092553Y-91517773D01*
X189290460Y-91883795D01*
X189413506Y-92281291D01*
X189459001Y-92714146D01*
X189459000Y-119360146D01*
X189416449Y-119794115D01*
X189296181Y-120192464D01*
X189100831Y-120559862D01*
X188837845Y-120882315D01*
X188517226Y-121147554D01*
X188151204Y-121345461D01*
X187753708Y-121468506D01*
X187320863Y-121514000D01*
X128924854Y-121514000D01*
X128490885Y-121471449D01*
X128092536Y-121351181D01*
X127725138Y-121155831D01*
X127402685Y-120892845D01*
X127137446Y-120572226D01*
X126939539Y-120206204D01*
X126816494Y-119808708D01*
X126771000Y-119375863D01*
X126771000Y-119239059D01*
X127474000Y-119239059D01*
X127474000Y-119520941D01*
X127528993Y-119797407D01*
X127636864Y-120057833D01*
X127793470Y-120292209D01*
X127992791Y-120491530D01*
X128227167Y-120648136D01*
X128487593Y-120756007D01*
X128764059Y-120811000D01*
X129045941Y-120811000D01*
X129322407Y-120756007D01*
X129582833Y-120648136D01*
X129817209Y-120491530D01*
X130016530Y-120292209D01*
X130173136Y-120057833D01*
X130281007Y-119797407D01*
X130325843Y-119572000D01*
X134150928Y-119572000D01*
X134163188Y-119696482D01*
X134199498Y-119816180D01*
X134258463Y-119926494D01*
X134337815Y-120023185D01*
X134434506Y-120102537D01*
X134544820Y-120161502D01*
X134664518Y-120197812D01*
X134789000Y-120210072D01*
X135078250Y-120207000D01*
X135237000Y-120048250D01*
X135237000Y-118999000D01*
X134312750Y-118999000D01*
X134154000Y-119157750D01*
X134150928Y-119572000D01*
X130325843Y-119572000D01*
X130336000Y-119520941D01*
X130336000Y-119239059D01*
X130281007Y-118962593D01*
X130173136Y-118702167D01*
X130016530Y-118467791D01*
X129817209Y-118268470D01*
X129672833Y-118172000D01*
X134150928Y-118172000D01*
X134154000Y-118586250D01*
X134312750Y-118745000D01*
X135237000Y-118745000D01*
X135237000Y-117695750D01*
X135078250Y-117537000D01*
X134789000Y-117533928D01*
X134664518Y-117546188D01*
X134544820Y-117582498D01*
X134434506Y-117641463D01*
X134337815Y-117720815D01*
X134258463Y-117817506D01*
X134199498Y-117927820D01*
X134163188Y-118047518D01*
X134150928Y-118172000D01*
X129672833Y-118172000D01*
X129582833Y-118111864D01*
X129322407Y-118003993D01*
X129045941Y-117949000D01*
X128764059Y-117949000D01*
X128487593Y-118003993D01*
X128227167Y-118111864D01*
X127992791Y-118268470D01*
X127793470Y-118467791D01*
X127636864Y-118702167D01*
X127528993Y-118962593D01*
X127474000Y-119239059D01*
X126771000Y-119239059D01*
X126771000Y-112729224D01*
X132355381Y-112729224D01*
X132487317Y-113024312D01*
X132828045Y-113195159D01*
X133195557Y-113296250D01*
X133575729Y-113323701D01*
X133953951Y-113276457D01*
X134315690Y-113156333D01*
X134562683Y-113024312D01*
X134694619Y-112729224D01*
X133525000Y-111559605D01*
X132355381Y-112729224D01*
X126771000Y-112729224D01*
X126771000Y-111430729D01*
X131581299Y-111430729D01*
X131628543Y-111808951D01*
X131748667Y-112170690D01*
X131880688Y-112417683D01*
X132175776Y-112549619D01*
X133345395Y-111380000D01*
X133704605Y-111380000D01*
X134874224Y-112549619D01*
X135169312Y-112417683D01*
X135340159Y-112076955D01*
X135441250Y-111709443D01*
X135468701Y-111329271D01*
X135421457Y-110951049D01*
X135301333Y-110589310D01*
X135169312Y-110342317D01*
X134874224Y-110210381D01*
X133704605Y-111380000D01*
X133345395Y-111380000D01*
X132175776Y-110210381D01*
X131880688Y-110342317D01*
X131709841Y-110683045D01*
X131608750Y-111050557D01*
X131581299Y-111430729D01*
X126771000Y-111430729D01*
X126771000Y-110030776D01*
X132355381Y-110030776D01*
X133525000Y-111200395D01*
X134694619Y-110030776D01*
X134562683Y-109735688D01*
X134221955Y-109564841D01*
X133854443Y-109463750D01*
X133474271Y-109436299D01*
X133096049Y-109483543D01*
X132734310Y-109603667D01*
X132487317Y-109735688D01*
X132355381Y-110030776D01*
X126771000Y-110030776D01*
X126771000Y-108029224D01*
X129355381Y-108029224D01*
X129487317Y-108324312D01*
X129828045Y-108495159D01*
X130195557Y-108596250D01*
X130575729Y-108623701D01*
X130953951Y-108576457D01*
X131315690Y-108456333D01*
X131562683Y-108324312D01*
X131694619Y-108029224D01*
X130525000Y-106859605D01*
X129355381Y-108029224D01*
X126771000Y-108029224D01*
X126771000Y-106730729D01*
X128581299Y-106730729D01*
X128628543Y-107108951D01*
X128748667Y-107470690D01*
X128880688Y-107717683D01*
X129175776Y-107849619D01*
X130345395Y-106680000D01*
X130704605Y-106680000D01*
X131874224Y-107849619D01*
X132169312Y-107717683D01*
X132340159Y-107376955D01*
X132441250Y-107009443D01*
X132468701Y-106629271D01*
X132421457Y-106251049D01*
X132301333Y-105889310D01*
X132169312Y-105642317D01*
X131874224Y-105510381D01*
X130704605Y-106680000D01*
X130345395Y-106680000D01*
X129175776Y-105510381D01*
X128880688Y-105642317D01*
X128709841Y-105983045D01*
X128608750Y-106350557D01*
X128581299Y-106730729D01*
X126771000Y-106730729D01*
X126771000Y-105330776D01*
X129355381Y-105330776D01*
X130525000Y-106500395D01*
X131645395Y-105380000D01*
X134842157Y-105380000D01*
X134842157Y-107980000D01*
X134849513Y-108054689D01*
X134871299Y-108126508D01*
X134906678Y-108192696D01*
X134954289Y-108250711D01*
X135012304Y-108298322D01*
X135078492Y-108333701D01*
X135150311Y-108355487D01*
X135225000Y-108362843D01*
X137825000Y-108362843D01*
X137899689Y-108355487D01*
X137971508Y-108333701D01*
X138037696Y-108298322D01*
X138095711Y-108250711D01*
X138143322Y-108192696D01*
X138178701Y-108126508D01*
X138200487Y-108054689D01*
X138207843Y-107980000D01*
X138207843Y-105569000D01*
X146973928Y-105569000D01*
X146986188Y-105693482D01*
X147022498Y-105813180D01*
X147081463Y-105923494D01*
X147160815Y-106020185D01*
X147257506Y-106099537D01*
X147367820Y-106158502D01*
X147487518Y-106194812D01*
X147612000Y-106207072D01*
X148076250Y-106204000D01*
X148235000Y-106045250D01*
X148235000Y-104521000D01*
X147135750Y-104521000D01*
X146977000Y-104679750D01*
X146973928Y-105569000D01*
X138207843Y-105569000D01*
X138207843Y-105380000D01*
X138200487Y-105305311D01*
X138178701Y-105233492D01*
X138143322Y-105167304D01*
X138095711Y-105109289D01*
X138037696Y-105061678D01*
X137971508Y-105026299D01*
X137899689Y-105004513D01*
X137825000Y-104997157D01*
X137350500Y-104997157D01*
X137350500Y-102140000D01*
X146973928Y-102140000D01*
X146986188Y-102264482D01*
X147022498Y-102384180D01*
X147081463Y-102494494D01*
X147160815Y-102591185D01*
X147257506Y-102670537D01*
X147274274Y-102679500D01*
X147257506Y-102688463D01*
X147160815Y-102767815D01*
X147081463Y-102864506D01*
X147022498Y-102974820D01*
X146986188Y-103094518D01*
X146973928Y-103219000D01*
X146977000Y-104108250D01*
X147135750Y-104267000D01*
X148235000Y-104267000D01*
X148235000Y-102742750D01*
X148171750Y-102679500D01*
X148235000Y-102616250D01*
X148235000Y-101092000D01*
X148489000Y-101092000D01*
X148489000Y-102616250D01*
X148552250Y-102679500D01*
X148489000Y-102742750D01*
X148489000Y-104267000D01*
X149588250Y-104267000D01*
X149747000Y-104108250D01*
X149750072Y-103219000D01*
X149737812Y-103094518D01*
X149701502Y-102974820D01*
X149642537Y-102864506D01*
X149563185Y-102767815D01*
X149466494Y-102688463D01*
X149449726Y-102679500D01*
X149466494Y-102670537D01*
X149563185Y-102591185D01*
X149642537Y-102494494D01*
X149701502Y-102384180D01*
X149737812Y-102264482D01*
X149750072Y-102140000D01*
X149747000Y-101250750D01*
X149588250Y-101092000D01*
X148489000Y-101092000D01*
X148235000Y-101092000D01*
X147135750Y-101092000D01*
X146977000Y-101250750D01*
X146973928Y-102140000D01*
X137350500Y-102140000D01*
X137350500Y-97760814D01*
X137392179Y-97748171D01*
X137501589Y-97689690D01*
X137597488Y-97610988D01*
X137676190Y-97515089D01*
X137734671Y-97405679D01*
X137770683Y-97286962D01*
X137782843Y-97163500D01*
X137782843Y-96238500D01*
X137770683Y-96115038D01*
X137734671Y-95996321D01*
X137676190Y-95886911D01*
X137597488Y-95791012D01*
X137501589Y-95712310D01*
X137392179Y-95653829D01*
X137273462Y-95617817D01*
X137150000Y-95605657D01*
X135900000Y-95605657D01*
X135776538Y-95617817D01*
X135657821Y-95653829D01*
X135548411Y-95712310D01*
X135452512Y-95791012D01*
X135373810Y-95886911D01*
X135315329Y-95996321D01*
X135279317Y-96115038D01*
X135267157Y-96238500D01*
X135267157Y-97163500D01*
X135279317Y-97286962D01*
X135315329Y-97405679D01*
X135373810Y-97515089D01*
X135452512Y-97610988D01*
X135548411Y-97689690D01*
X135657821Y-97748171D01*
X135699500Y-97760814D01*
X135699501Y-104997157D01*
X135225000Y-104997157D01*
X135150311Y-105004513D01*
X135078492Y-105026299D01*
X135012304Y-105061678D01*
X134954289Y-105109289D01*
X134906678Y-105167304D01*
X134871299Y-105233492D01*
X134849513Y-105305311D01*
X134842157Y-105380000D01*
X131645395Y-105380000D01*
X131694619Y-105330776D01*
X131562683Y-105035688D01*
X131221955Y-104864841D01*
X130854443Y-104763750D01*
X130474271Y-104736299D01*
X130096049Y-104783543D01*
X129734310Y-104903667D01*
X129487317Y-105035688D01*
X129355381Y-105330776D01*
X126771000Y-105330776D01*
X126771000Y-92729854D01*
X126786766Y-92569059D01*
X127474000Y-92569059D01*
X127474000Y-92850941D01*
X127528993Y-93127407D01*
X127636864Y-93387833D01*
X127793470Y-93622209D01*
X127992791Y-93821530D01*
X128227167Y-93978136D01*
X128487593Y-94086007D01*
X128764059Y-94141000D01*
X129045941Y-94141000D01*
X129322407Y-94086007D01*
X129582833Y-93978136D01*
X129817209Y-93821530D01*
X130016530Y-93622209D01*
X130173136Y-93387833D01*
X130281007Y-93127407D01*
X130336000Y-92850941D01*
X130336000Y-92569059D01*
X130281007Y-92292593D01*
X130173136Y-92032167D01*
X130016530Y-91797791D01*
X129817209Y-91598470D01*
X129582833Y-91441864D01*
X129322407Y-91333993D01*
X129045941Y-91279000D01*
X128764059Y-91279000D01*
X128487593Y-91333993D01*
X128227167Y-91441864D01*
X127992791Y-91598470D01*
X127793470Y-91797791D01*
X127636864Y-92032167D01*
X127528993Y-92292593D01*
X127474000Y-92569059D01*
X126786766Y-92569059D01*
X126813551Y-92295885D01*
X126933819Y-91897538D01*
X127129170Y-91530136D01*
X127392157Y-91207683D01*
X127712773Y-90942447D01*
X128078795Y-90744540D01*
X128476291Y-90621494D01*
X128909137Y-90576000D01*
X142168777Y-90576000D01*
X141161748Y-91583030D01*
G37*
X141161748Y-91583030D02*
X141139933Y-91600933D01*
X141072360Y-91683272D01*
X141068516Y-91687956D01*
X141015448Y-91787239D01*
X140982769Y-91894967D01*
X140971735Y-92007000D01*
X140974500Y-92035075D01*
X140974501Y-92830157D01*
X140546000Y-92830157D01*
X140471311Y-92837513D01*
X140399492Y-92859299D01*
X140333304Y-92894678D01*
X140275289Y-92942289D01*
X140227678Y-93000304D01*
X140192299Y-93066492D01*
X140170513Y-93138311D01*
X140163157Y-93213000D01*
X140163157Y-93768921D01*
X140123328Y-93790210D01*
X140065592Y-93837592D01*
X140018210Y-93895328D01*
X139983002Y-93961198D01*
X139961321Y-94032671D01*
X139960254Y-94043500D01*
X138009933Y-94043500D01*
X137782843Y-93816410D01*
X137782843Y-93263500D01*
X137770683Y-93140038D01*
X137734671Y-93021321D01*
X137676190Y-92911911D01*
X137597488Y-92816012D01*
X137501589Y-92737310D01*
X137392179Y-92678829D01*
X137273462Y-92642817D01*
X137150000Y-92630657D01*
X135900000Y-92630657D01*
X135776538Y-92642817D01*
X135657821Y-92678829D01*
X135548411Y-92737310D01*
X135452512Y-92816012D01*
X135373810Y-92911911D01*
X135315329Y-93021321D01*
X135279317Y-93140038D01*
X135267157Y-93263500D01*
X135267157Y-94188500D01*
X135279317Y-94311962D01*
X135315329Y-94430679D01*
X135373810Y-94540089D01*
X135452512Y-94635988D01*
X135548411Y-94714690D01*
X135657821Y-94773171D01*
X135776538Y-94809183D01*
X135900000Y-94821343D01*
X136452911Y-94821343D01*
X137055606Y-95424039D01*
X137081459Y-95455541D01*
X137137437Y-95501481D01*
X137207157Y-95558699D01*
X137342422Y-95631000D01*
X137350566Y-95635353D01*
X137506174Y-95682556D01*
X137627447Y-95694500D01*
X137627449Y-95694500D01*
X137667999Y-95698494D01*
X137708550Y-95694500D01*
X139954000Y-95694500D01*
X139954000Y-100711000D01*
X139961321Y-100785329D01*
X139983002Y-100856802D01*
X140018210Y-100922672D01*
X140065592Y-100980408D01*
X140123328Y-101027790D01*
X140189198Y-101062998D01*
X140260671Y-101084679D01*
X140335000Y-101092000D01*
X142875000Y-101092000D01*
X142949329Y-101084679D01*
X143020802Y-101062998D01*
X143086672Y-101027790D01*
X143144408Y-100980408D01*
X143191790Y-100922672D01*
X143226998Y-100856802D01*
X143248679Y-100785329D01*
X143256000Y-100711000D01*
X143256000Y-100362000D01*
X143492928Y-100362000D01*
X143505188Y-100486482D01*
X143541498Y-100606180D01*
X143600463Y-100716494D01*
X143679815Y-100813185D01*
X143776506Y-100892537D01*
X143886820Y-100951502D01*
X144006518Y-100987812D01*
X144131000Y-101000072D01*
X144595250Y-100997000D01*
X144754000Y-100838250D01*
X144754000Y-99314000D01*
X145008000Y-99314000D01*
X145008000Y-100838250D01*
X145166750Y-100997000D01*
X145631000Y-101000072D01*
X145755482Y-100987812D01*
X145875180Y-100951502D01*
X145985494Y-100892537D01*
X146082185Y-100813185D01*
X146161537Y-100716494D01*
X146220502Y-100606180D01*
X146256812Y-100486482D01*
X146269072Y-100362000D01*
X146266000Y-99472750D01*
X146107250Y-99314000D01*
X145008000Y-99314000D01*
X144754000Y-99314000D01*
X143654750Y-99314000D01*
X143496000Y-99472750D01*
X143492928Y-100362000D01*
X143256000Y-100362000D01*
X143256000Y-98012000D01*
X143492928Y-98012000D01*
X143496000Y-98901250D01*
X143654750Y-99060000D01*
X144754000Y-99060000D01*
X144754000Y-97535750D01*
X144595250Y-97377000D01*
X144131000Y-97373928D01*
X144006518Y-97386188D01*
X143886820Y-97422498D01*
X143776506Y-97481463D01*
X143679815Y-97560815D01*
X143600463Y-97657506D01*
X143541498Y-97767820D01*
X143505188Y-97887518D01*
X143492928Y-98012000D01*
X143256000Y-98012000D01*
X143256000Y-95763000D01*
X143327928Y-95763000D01*
X143340188Y-95887482D01*
X143376498Y-96007180D01*
X143435463Y-96117494D01*
X143514815Y-96214185D01*
X143611506Y-96293537D01*
X143721820Y-96352502D01*
X143841518Y-96388812D01*
X143966000Y-96401072D01*
X144680250Y-96398000D01*
X144839000Y-96239250D01*
X144839000Y-95565000D01*
X143489750Y-95565000D01*
X143331000Y-95723750D01*
X143327928Y-95763000D01*
X143256000Y-95763000D01*
X143256000Y-94107000D01*
X143248679Y-94032671D01*
X143226998Y-93961198D01*
X143191790Y-93895328D01*
X143144408Y-93837592D01*
X143086672Y-93790210D01*
X143020802Y-93755002D01*
X142949329Y-93733321D01*
X142928843Y-93731303D01*
X142928843Y-93213000D01*
X142921487Y-93138311D01*
X142899701Y-93066492D01*
X142864322Y-93000304D01*
X142816711Y-92942289D01*
X142758696Y-92894678D01*
X142692508Y-92859299D01*
X142620689Y-92837513D01*
X142546000Y-92830157D01*
X142117500Y-92830157D01*
X142117500Y-92243722D01*
X143186233Y-91174990D01*
X143510000Y-91174990D01*
X143510000Y-93853000D01*
X143517321Y-93927329D01*
X143533299Y-93980000D01*
X143517321Y-94032671D01*
X143510000Y-94107000D01*
X143510000Y-94667682D01*
X143435463Y-94758506D01*
X143376498Y-94868820D01*
X143340188Y-94988518D01*
X143327928Y-95113000D01*
X143331000Y-95152250D01*
X143489750Y-95311000D01*
X144839000Y-95311000D01*
X144839000Y-95291000D01*
X145093000Y-95291000D01*
X145093000Y-95311000D01*
X145113000Y-95311000D01*
X145113000Y-95565000D01*
X145093000Y-95565000D01*
X145093000Y-96239250D01*
X145251750Y-96398000D01*
X145966000Y-96401072D01*
X146090482Y-96388812D01*
X146177000Y-96362567D01*
X146177000Y-97686435D01*
X146161537Y-97657506D01*
X146082185Y-97560815D01*
X145985494Y-97481463D01*
X145875180Y-97422498D01*
X145755482Y-97386188D01*
X145631000Y-97373928D01*
X145166750Y-97377000D01*
X145008000Y-97535750D01*
X145008000Y-99060000D01*
X146107250Y-99060000D01*
X146182133Y-98985117D01*
X146184321Y-99007329D01*
X146206002Y-99078802D01*
X146241210Y-99144672D01*
X146288592Y-99202408D01*
X146346328Y-99249790D01*
X146412198Y-99284998D01*
X146483671Y-99306679D01*
X146558000Y-99314000D01*
X147191052Y-99314000D01*
X147160815Y-99338815D01*
X147081463Y-99435506D01*
X147022498Y-99545820D01*
X146986188Y-99665518D01*
X146973928Y-99790000D01*
X146977000Y-100679250D01*
X147135750Y-100838000D01*
X148235000Y-100838000D01*
X148235000Y-100818000D01*
X148489000Y-100818000D01*
X148489000Y-100838000D01*
X149588250Y-100838000D01*
X149747000Y-100679250D01*
X149750072Y-99790000D01*
X149737812Y-99665518D01*
X149701502Y-99545820D01*
X149642537Y-99435506D01*
X149563185Y-99338815D01*
X149466494Y-99259463D01*
X149356180Y-99200498D01*
X149236482Y-99164188D01*
X149112000Y-99151928D01*
X148899682Y-99153333D01*
X148906790Y-99144672D01*
X148941998Y-99078802D01*
X148963679Y-99007329D01*
X148971000Y-98933000D01*
X148971000Y-92837000D01*
X148963679Y-92762671D01*
X148941998Y-92691198D01*
X148906790Y-92625328D01*
X148859408Y-92567592D01*
X148801672Y-92520210D01*
X148735802Y-92485002D01*
X148664329Y-92463321D01*
X148590000Y-92456000D01*
X148336000Y-92456000D01*
X148336000Y-91174990D01*
X149461768Y-91174990D01*
X150742777Y-92456000D01*
X150495000Y-92456000D01*
X150420671Y-92463321D01*
X150349198Y-92485002D01*
X150283328Y-92520210D01*
X150225592Y-92567592D01*
X150178210Y-92625328D01*
X150143002Y-92691198D01*
X150121321Y-92762671D01*
X150114000Y-92837000D01*
X150114000Y-104724567D01*
X149748418Y-105090149D01*
X149747000Y-104679750D01*
X149588250Y-104521000D01*
X148489000Y-104521000D01*
X148489000Y-106045250D01*
X148641159Y-106197409D01*
X148349068Y-106489500D01*
X146359231Y-106489500D01*
X146306978Y-106467856D01*
X146136771Y-106434000D01*
X145963229Y-106434000D01*
X145793022Y-106467856D01*
X145740769Y-106489500D01*
X141264550Y-106489500D01*
X141223999Y-106485506D01*
X141183449Y-106489500D01*
X141183447Y-106489500D01*
X141062174Y-106501444D01*
X140941556Y-106538033D01*
X140906566Y-106548647D01*
X140763157Y-106625301D01*
X140738227Y-106645761D01*
X140637459Y-106728459D01*
X140611608Y-106759959D01*
X137493966Y-109877602D01*
X137462459Y-109903459D01*
X137396629Y-109983674D01*
X137359301Y-110029158D01*
X137306612Y-110127732D01*
X137282647Y-110172567D01*
X137235444Y-110328175D01*
X137225469Y-110429458D01*
X137219506Y-110490000D01*
X137223500Y-110530551D01*
X137223501Y-115021440D01*
X137219506Y-115062000D01*
X137235445Y-115223826D01*
X137282647Y-115379433D01*
X137359301Y-115522842D01*
X137398003Y-115570000D01*
X137462460Y-115648541D01*
X137493961Y-115674393D01*
X139651060Y-117831493D01*
X139631821Y-117837329D01*
X139522411Y-117895810D01*
X139426512Y-117974512D01*
X139347810Y-118070411D01*
X139292708Y-118173500D01*
X138320292Y-118173500D01*
X138265190Y-118070411D01*
X138186488Y-117974512D01*
X138090589Y-117895810D01*
X137981179Y-117837329D01*
X137862462Y-117801317D01*
X137739001Y-117789157D01*
X137088999Y-117789157D01*
X136965538Y-117801317D01*
X136846821Y-117837329D01*
X136737411Y-117895810D01*
X136641512Y-117974512D01*
X136566611Y-118065780D01*
X136564812Y-118047518D01*
X136528502Y-117927820D01*
X136469537Y-117817506D01*
X136390185Y-117720815D01*
X136293494Y-117641463D01*
X136183180Y-117582498D01*
X136063482Y-117546188D01*
X135939000Y-117533928D01*
X135649750Y-117537000D01*
X135491000Y-117695750D01*
X135491000Y-118745000D01*
X135511000Y-118745000D01*
X135511000Y-118999000D01*
X135491000Y-118999000D01*
X135491000Y-120048250D01*
X135649750Y-120207000D01*
X135939000Y-120210072D01*
X136063482Y-120197812D01*
X136183180Y-120161502D01*
X136293494Y-120102537D01*
X136390185Y-120023185D01*
X136469537Y-119926494D01*
X136528502Y-119816180D01*
X136564812Y-119696482D01*
X136566611Y-119678220D01*
X136641512Y-119769488D01*
X136737411Y-119848190D01*
X136846821Y-119906671D01*
X136965538Y-119942683D01*
X137088999Y-119954843D01*
X137739001Y-119954843D01*
X137862462Y-119942683D01*
X137981179Y-119906671D01*
X138090589Y-119848190D01*
X138186488Y-119769488D01*
X138265190Y-119673589D01*
X138320292Y-119570500D01*
X139292708Y-119570500D01*
X139347810Y-119673589D01*
X139426512Y-119769488D01*
X139522411Y-119848190D01*
X139631821Y-119906671D01*
X139750538Y-119942683D01*
X139873999Y-119954843D01*
X140524001Y-119954843D01*
X140647462Y-119942683D01*
X140766179Y-119906671D01*
X140875589Y-119848190D01*
X140971488Y-119769488D01*
X141050190Y-119673589D01*
X141108671Y-119564179D01*
X141144683Y-119445462D01*
X141156843Y-119322001D01*
X141156843Y-118421999D01*
X141144683Y-118298538D01*
X141108671Y-118179821D01*
X141105292Y-118173500D01*
X141342708Y-118173500D01*
X141339329Y-118179821D01*
X141303317Y-118298538D01*
X141291157Y-118421999D01*
X141291157Y-119322001D01*
X141303317Y-119445462D01*
X141339329Y-119564179D01*
X141397810Y-119673589D01*
X141476512Y-119769488D01*
X141572411Y-119848190D01*
X141681821Y-119906671D01*
X141800538Y-119942683D01*
X141923999Y-119954843D01*
X142574001Y-119954843D01*
X142697462Y-119942683D01*
X142816179Y-119906671D01*
X142925589Y-119848190D01*
X143021488Y-119769488D01*
X143100190Y-119673589D01*
X143158671Y-119564179D01*
X143194683Y-119445462D01*
X143206843Y-119322001D01*
X143206843Y-118421999D01*
X143194683Y-118298538D01*
X143158671Y-118179821D01*
X143155292Y-118173500D01*
X143676068Y-118173500D01*
X143940157Y-118437590D01*
X143940157Y-119322001D01*
X143952317Y-119445462D01*
X143988329Y-119564179D01*
X144046810Y-119673589D01*
X144072501Y-119704893D01*
X144072501Y-120092440D01*
X144068506Y-120133000D01*
X144084445Y-120294826D01*
X144131647Y-120450433D01*
X144208301Y-120593842D01*
X144254389Y-120650000D01*
X144311460Y-120719541D01*
X144342961Y-120745393D01*
X144802602Y-121205034D01*
X144828459Y-121236541D01*
X144954158Y-121339699D01*
X145097566Y-121416353D01*
X145253174Y-121463556D01*
X145374447Y-121475500D01*
X145374456Y-121475500D01*
X145414999Y-121479493D01*
X145455542Y-121475500D01*
X150708450Y-121475500D01*
X150749000Y-121479494D01*
X150789550Y-121475500D01*
X150789553Y-121475500D01*
X150910826Y-121463556D01*
X151066434Y-121416353D01*
X151209842Y-121339699D01*
X151335541Y-121236541D01*
X151361397Y-121205035D01*
X152084046Y-120482388D01*
X152115541Y-120456541D01*
X152141389Y-120425045D01*
X152141392Y-120425042D01*
X152218699Y-120330843D01*
X152295353Y-120187434D01*
X152304490Y-120157314D01*
X152342556Y-120031826D01*
X152354500Y-119910553D01*
X152354500Y-119910551D01*
X152358494Y-119870000D01*
X152354500Y-119829450D01*
X152354500Y-119671138D01*
X152411671Y-119564179D01*
X152447683Y-119445462D01*
X152459843Y-119322001D01*
X152459843Y-118421999D01*
X152447683Y-118298538D01*
X152411671Y-118179821D01*
X152354500Y-118072862D01*
X152354500Y-117279542D01*
X152358493Y-117238999D01*
X152354500Y-117198456D01*
X152354500Y-117198447D01*
X152342556Y-117077174D01*
X152295353Y-116921566D01*
X152218699Y-116778158D01*
X152218698Y-116778156D01*
X152161181Y-116708072D01*
X152115541Y-116652459D01*
X152084039Y-116626606D01*
X151104600Y-115647168D01*
X151104600Y-115627465D01*
X151948000Y-115627465D01*
X151948000Y-115766535D01*
X151975131Y-115902933D01*
X152028351Y-116031416D01*
X152105614Y-116147049D01*
X152203951Y-116245386D01*
X152319584Y-116322649D01*
X152448067Y-116375869D01*
X152543661Y-116394884D01*
X152980501Y-116831724D01*
X152980500Y-117839638D01*
X152875411Y-117895810D01*
X152779512Y-117974512D01*
X152700810Y-118070411D01*
X152642329Y-118179821D01*
X152606317Y-118298538D01*
X152594157Y-118421999D01*
X152594157Y-119322001D01*
X152606317Y-119445462D01*
X152642329Y-119564179D01*
X152700810Y-119673589D01*
X152779512Y-119769488D01*
X152875411Y-119848190D01*
X152984821Y-119906671D01*
X153103538Y-119942683D01*
X153226999Y-119954843D01*
X153877001Y-119954843D01*
X154000462Y-119942683D01*
X154119179Y-119906671D01*
X154228589Y-119848190D01*
X154324488Y-119769488D01*
X154403190Y-119673589D01*
X154461671Y-119564179D01*
X154497683Y-119445462D01*
X154509843Y-119322001D01*
X154509843Y-119239059D01*
X185894000Y-119239059D01*
X185894000Y-119520941D01*
X185948993Y-119797407D01*
X186056864Y-120057833D01*
X186213470Y-120292209D01*
X186412791Y-120491530D01*
X186647167Y-120648136D01*
X186907593Y-120756007D01*
X187184059Y-120811000D01*
X187465941Y-120811000D01*
X187742407Y-120756007D01*
X188002833Y-120648136D01*
X188237209Y-120491530D01*
X188436530Y-120292209D01*
X188593136Y-120057833D01*
X188701007Y-119797407D01*
X188756000Y-119520941D01*
X188756000Y-119239059D01*
X188701007Y-118962593D01*
X188593136Y-118702167D01*
X188436530Y-118467791D01*
X188237209Y-118268470D01*
X188002833Y-118111864D01*
X187742407Y-118003993D01*
X187465941Y-117949000D01*
X187184059Y-117949000D01*
X186907593Y-118003993D01*
X186647167Y-118111864D01*
X186412791Y-118268470D01*
X186213470Y-118467791D01*
X186056864Y-118702167D01*
X185948993Y-118962593D01*
X185894000Y-119239059D01*
X154509843Y-119239059D01*
X154509843Y-118421999D01*
X154497683Y-118298538D01*
X154461671Y-118179821D01*
X154403190Y-118070411D01*
X154324488Y-117974512D01*
X154228589Y-117895810D01*
X154123500Y-117839639D01*
X154123500Y-116623074D01*
X154126265Y-116595000D01*
X154115231Y-116482966D01*
X154082552Y-116375238D01*
X154029484Y-116275955D01*
X154023421Y-116268567D01*
X153958067Y-116188933D01*
X153936257Y-116171034D01*
X153351884Y-115586661D01*
X153332869Y-115491067D01*
X153279649Y-115362584D01*
X153202386Y-115246951D01*
X153104049Y-115148614D01*
X152988416Y-115071351D01*
X152859933Y-115018131D01*
X152723535Y-114991000D01*
X152584465Y-114991000D01*
X152448067Y-115018131D01*
X152319584Y-115071351D01*
X152203951Y-115148614D01*
X152105614Y-115246951D01*
X152028351Y-115362584D01*
X151975131Y-115491067D01*
X151948000Y-115627465D01*
X151104600Y-115627465D01*
X151104600Y-115447418D01*
X151056771Y-115206964D01*
X150962950Y-114980461D01*
X150900768Y-114887399D01*
X156070825Y-114887399D01*
X156098899Y-114890164D01*
X156126973Y-114887399D01*
X156220592Y-114887399D01*
X156201299Y-114923492D01*
X156179513Y-114995311D01*
X156172157Y-115070000D01*
X156172157Y-116070000D01*
X156179513Y-116144689D01*
X156201299Y-116216508D01*
X156236678Y-116282696D01*
X156284289Y-116340711D01*
X156342304Y-116388322D01*
X156408492Y-116423701D01*
X156480311Y-116445487D01*
X156555000Y-116452843D01*
X159705000Y-116452843D01*
X159779689Y-116445487D01*
X159851508Y-116423701D01*
X159917696Y-116388322D01*
X159975711Y-116340711D01*
X160023322Y-116282696D01*
X160058701Y-116216508D01*
X160080487Y-116144689D01*
X160087843Y-116070000D01*
X160966928Y-116070000D01*
X160979188Y-116194482D01*
X161015498Y-116314180D01*
X161074463Y-116424494D01*
X161153815Y-116521185D01*
X161250506Y-116600537D01*
X161360820Y-116659502D01*
X161480518Y-116695812D01*
X161605000Y-116708072D01*
X162894250Y-116705000D01*
X163053000Y-116546250D01*
X163053000Y-115697000D01*
X163307000Y-115697000D01*
X163307000Y-116546250D01*
X163465750Y-116705000D01*
X164755000Y-116708072D01*
X164879482Y-116695812D01*
X164999180Y-116659502D01*
X165109494Y-116600537D01*
X165206185Y-116521185D01*
X165285537Y-116424494D01*
X165344502Y-116314180D01*
X165380812Y-116194482D01*
X165393072Y-116070000D01*
X165390000Y-115855750D01*
X165231250Y-115697000D01*
X163307000Y-115697000D01*
X163053000Y-115697000D01*
X161128750Y-115697000D01*
X160970000Y-115855750D01*
X160966928Y-116070000D01*
X160087843Y-116070000D01*
X160087843Y-115070000D01*
X160966928Y-115070000D01*
X160970000Y-115284250D01*
X161128750Y-115443000D01*
X163053000Y-115443000D01*
X163053000Y-114593750D01*
X163307000Y-114593750D01*
X163307000Y-115443000D01*
X165231250Y-115443000D01*
X165390000Y-115284250D01*
X165393072Y-115070000D01*
X165380812Y-114945518D01*
X165344502Y-114825820D01*
X165285537Y-114715506D01*
X165206185Y-114618815D01*
X165109494Y-114539463D01*
X164999180Y-114480498D01*
X164879482Y-114444188D01*
X164755000Y-114431928D01*
X163465750Y-114435000D01*
X163307000Y-114593750D01*
X163053000Y-114593750D01*
X162894250Y-114435000D01*
X161605000Y-114431928D01*
X161480518Y-114444188D01*
X161360820Y-114480498D01*
X161250506Y-114539463D01*
X161153815Y-114618815D01*
X161074463Y-114715506D01*
X161015498Y-114825820D01*
X160979188Y-114945518D01*
X160966928Y-115070000D01*
X160087843Y-115070000D01*
X160080487Y-114995311D01*
X160058701Y-114923492D01*
X160023322Y-114857304D01*
X159975711Y-114799289D01*
X159917696Y-114751678D01*
X159851508Y-114716299D01*
X159779689Y-114694513D01*
X159705000Y-114687157D01*
X158055380Y-114687157D01*
X157299869Y-113931647D01*
X157284437Y-113912843D01*
X159705000Y-113912843D01*
X159779689Y-113905487D01*
X159851508Y-113883701D01*
X159917696Y-113848322D01*
X159975711Y-113800711D01*
X160023322Y-113742696D01*
X160058701Y-113676508D01*
X160080487Y-113604689D01*
X160087843Y-113530000D01*
X160087843Y-112530000D01*
X160080487Y-112455311D01*
X160058701Y-112383492D01*
X160023322Y-112317304D01*
X159975711Y-112259289D01*
X159917696Y-112211678D01*
X159851508Y-112176299D01*
X159779689Y-112154513D01*
X159705000Y-112147157D01*
X159303610Y-112147157D01*
X159315113Y-112129942D01*
X159373987Y-111987809D01*
X159404000Y-111836922D01*
X159404000Y-111683078D01*
X159373987Y-111532191D01*
X159315113Y-111390058D01*
X159303610Y-111372843D01*
X159705000Y-111372843D01*
X159779689Y-111365487D01*
X159851508Y-111343701D01*
X159917696Y-111308322D01*
X159975711Y-111260711D01*
X160023322Y-111202696D01*
X160058701Y-111136508D01*
X160080487Y-111064689D01*
X160087843Y-110990000D01*
X160087843Y-110186036D01*
X160135942Y-110166113D01*
X160263859Y-110080642D01*
X160372642Y-109971859D01*
X160458113Y-109843942D01*
X160495476Y-109753742D01*
X160556358Y-109844859D01*
X160591500Y-109880001D01*
X160591501Y-112940916D01*
X160588735Y-112969000D01*
X160599769Y-113081033D01*
X160632448Y-113188761D01*
X160679323Y-113276457D01*
X160685517Y-113288045D01*
X160756934Y-113375067D01*
X160778744Y-113392966D01*
X160800030Y-113414252D01*
X160817933Y-113436067D01*
X160904955Y-113507484D01*
X161004238Y-113560552D01*
X161111966Y-113593231D01*
X161154015Y-113597372D01*
X161223999Y-113604265D01*
X161229419Y-113603731D01*
X161229513Y-113604689D01*
X161251299Y-113676508D01*
X161286678Y-113742696D01*
X161334289Y-113800711D01*
X161392304Y-113848322D01*
X161458492Y-113883701D01*
X161530311Y-113905487D01*
X161605000Y-113912843D01*
X164755000Y-113912843D01*
X164829689Y-113905487D01*
X164901508Y-113883701D01*
X164967696Y-113848322D01*
X165025711Y-113800711D01*
X165073322Y-113742696D01*
X165108701Y-113676508D01*
X165130487Y-113604689D01*
X165137843Y-113530000D01*
X165137843Y-113370000D01*
X170718928Y-113370000D01*
X170731188Y-113494482D01*
X170767498Y-113614180D01*
X170826463Y-113724494D01*
X170905815Y-113821185D01*
X171002506Y-113900537D01*
X171112820Y-113959502D01*
X171232518Y-113995812D01*
X171357000Y-114008072D01*
X172171250Y-114005000D01*
X172330000Y-113846250D01*
X172330000Y-112897000D01*
X172584000Y-112897000D01*
X172584000Y-113846250D01*
X172742750Y-114005000D01*
X173557000Y-114008072D01*
X173681482Y-113995812D01*
X173801180Y-113959502D01*
X173911494Y-113900537D01*
X174008185Y-113821185D01*
X174087537Y-113724494D01*
X174146502Y-113614180D01*
X174182812Y-113494482D01*
X174195072Y-113370000D01*
X174192000Y-113055750D01*
X174033250Y-112897000D01*
X172584000Y-112897000D01*
X172330000Y-112897000D01*
X170880750Y-112897000D01*
X170722000Y-113055750D01*
X170718928Y-113370000D01*
X165137843Y-113370000D01*
X165137843Y-112530000D01*
X165130487Y-112455311D01*
X165108701Y-112383492D01*
X165073322Y-112317304D01*
X165025711Y-112259289D01*
X164967696Y-112211678D01*
X164901508Y-112176299D01*
X164829689Y-112154513D01*
X164755000Y-112147157D01*
X161734500Y-112147157D01*
X161734500Y-112090000D01*
X168206928Y-112090000D01*
X168219188Y-112214482D01*
X168255498Y-112334180D01*
X168314463Y-112444494D01*
X168393815Y-112541185D01*
X168490506Y-112620537D01*
X168600820Y-112679502D01*
X168720518Y-112715812D01*
X168845000Y-112728072D01*
X169259250Y-112725000D01*
X169418000Y-112566250D01*
X169418000Y-111642000D01*
X169672000Y-111642000D01*
X169672000Y-112566250D01*
X169830750Y-112725000D01*
X170245000Y-112728072D01*
X170369482Y-112715812D01*
X170489180Y-112679502D01*
X170599494Y-112620537D01*
X170696185Y-112541185D01*
X170733485Y-112495735D01*
X170880750Y-112643000D01*
X172330000Y-112643000D01*
X172330000Y-111693750D01*
X172584000Y-111693750D01*
X172584000Y-112643000D01*
X174033250Y-112643000D01*
X174192000Y-112484250D01*
X174195072Y-112170000D01*
X174182812Y-112045518D01*
X174146502Y-111925820D01*
X174087537Y-111815506D01*
X174008185Y-111718815D01*
X173911494Y-111639463D01*
X173801180Y-111580498D01*
X173681482Y-111544188D01*
X173557000Y-111531928D01*
X172742750Y-111535000D01*
X172584000Y-111693750D01*
X172330000Y-111693750D01*
X172171250Y-111535000D01*
X171357000Y-111531928D01*
X171232518Y-111544188D01*
X171112820Y-111580498D01*
X171002506Y-111639463D01*
X170905815Y-111718815D01*
X170857246Y-111777996D01*
X170721250Y-111642000D01*
X169672000Y-111642000D01*
X169418000Y-111642000D01*
X168368750Y-111642000D01*
X168210000Y-111800750D01*
X168206928Y-112090000D01*
X161734500Y-112090000D01*
X161734500Y-111372843D01*
X164755000Y-111372843D01*
X164829689Y-111365487D01*
X164901508Y-111343701D01*
X164967696Y-111308322D01*
X165025711Y-111260711D01*
X165073322Y-111202696D01*
X165108701Y-111136508D01*
X165130487Y-111064689D01*
X165131428Y-111055138D01*
X165215303Y-110986303D01*
X165237175Y-110959652D01*
X166458667Y-109738162D01*
X166485302Y-109716303D01*
X166507162Y-109689667D01*
X166507174Y-109689655D01*
X166572591Y-109609944D01*
X166637451Y-109488599D01*
X166644989Y-109463750D01*
X166677393Y-109356930D01*
X166687500Y-109254309D01*
X166687500Y-109254299D01*
X166690878Y-109220001D01*
X166687500Y-109185703D01*
X166687500Y-106115871D01*
X166984496Y-105818875D01*
X167063198Y-105722976D01*
X167121679Y-105613566D01*
X167157691Y-105494849D01*
X167169851Y-105371388D01*
X167157691Y-105247927D01*
X167121679Y-105129210D01*
X167063198Y-105019800D01*
X166984496Y-104923901D01*
X166624000Y-104563405D01*
X166624000Y-104125124D01*
X166627071Y-104093943D01*
X166624000Y-104062762D01*
X166624000Y-104062752D01*
X166614812Y-103969462D01*
X166578502Y-103849764D01*
X166519537Y-103739450D01*
X166440185Y-103642759D01*
X166415956Y-103622875D01*
X165794140Y-103001060D01*
X166105268Y-102689932D01*
X166152879Y-102631917D01*
X166177662Y-102585552D01*
X166224030Y-102560767D01*
X166282045Y-102513156D01*
X166670954Y-102124247D01*
X166718565Y-102066232D01*
X166753944Y-102000044D01*
X166775730Y-101928225D01*
X166783086Y-101853536D01*
X166775730Y-101778847D01*
X166753944Y-101707028D01*
X166718565Y-101640840D01*
X166670954Y-101582825D01*
X165545129Y-100457000D01*
X165998934Y-100003195D01*
X166631973Y-100003195D01*
X167322500Y-100693723D01*
X167322501Y-107785916D01*
X167319735Y-107814000D01*
X167330769Y-107926033D01*
X167363448Y-108033761D01*
X167416516Y-108133044D01*
X167416517Y-108133045D01*
X167487934Y-108220067D01*
X167509744Y-108237966D01*
X168462157Y-109190380D01*
X168462157Y-109790001D01*
X168474317Y-109913462D01*
X168510329Y-110032179D01*
X168568810Y-110141589D01*
X168647512Y-110237488D01*
X168738780Y-110312389D01*
X168720518Y-110314188D01*
X168600820Y-110350498D01*
X168490506Y-110409463D01*
X168393815Y-110488815D01*
X168314463Y-110585506D01*
X168255498Y-110695820D01*
X168219188Y-110815518D01*
X168206928Y-110940000D01*
X168210000Y-111229250D01*
X168368750Y-111388000D01*
X169418000Y-111388000D01*
X169418000Y-111368000D01*
X169672000Y-111368000D01*
X169672000Y-111388000D01*
X170721250Y-111388000D01*
X170880000Y-111229250D01*
X170883072Y-110940000D01*
X170870812Y-110815518D01*
X170834502Y-110695820D01*
X170775537Y-110585506D01*
X170696185Y-110488815D01*
X170599494Y-110409463D01*
X170489180Y-110350498D01*
X170369482Y-110314188D01*
X170351220Y-110312389D01*
X170442488Y-110237488D01*
X170521190Y-110141589D01*
X170579671Y-110032179D01*
X170615683Y-109913462D01*
X170617993Y-109890000D01*
X170974157Y-109890000D01*
X170974157Y-111090000D01*
X170981513Y-111164689D01*
X171003299Y-111236508D01*
X171038678Y-111302696D01*
X171086289Y-111360711D01*
X171144304Y-111408322D01*
X171210492Y-111443701D01*
X171282311Y-111465487D01*
X171357000Y-111472843D01*
X173557000Y-111472843D01*
X173631689Y-111465487D01*
X173703508Y-111443701D01*
X173769696Y-111408322D01*
X173827711Y-111360711D01*
X173875322Y-111302696D01*
X173910701Y-111236508D01*
X173925264Y-111188500D01*
X175174157Y-111188500D01*
X175174157Y-113390000D01*
X175181513Y-113464689D01*
X175203299Y-113536508D01*
X175238678Y-113602696D01*
X175286289Y-113660711D01*
X175344304Y-113708322D01*
X175410492Y-113743701D01*
X175482311Y-113765487D01*
X175557000Y-113772843D01*
X181957000Y-113772843D01*
X182031689Y-113765487D01*
X182103508Y-113743701D01*
X182169696Y-113708322D01*
X182227711Y-113660711D01*
X182275322Y-113602696D01*
X182310701Y-113536508D01*
X182332487Y-113464689D01*
X182339843Y-113390000D01*
X182339843Y-112165000D01*
X185442157Y-112165000D01*
X185442157Y-115165000D01*
X185449513Y-115239689D01*
X185471299Y-115311508D01*
X185506678Y-115377696D01*
X185554289Y-115435711D01*
X185612304Y-115483322D01*
X185678492Y-115518701D01*
X185750311Y-115540487D01*
X185825000Y-115547843D01*
X188825000Y-115547843D01*
X188899689Y-115540487D01*
X188971508Y-115518701D01*
X189037696Y-115483322D01*
X189095711Y-115435711D01*
X189143322Y-115377696D01*
X189178701Y-115311508D01*
X189200487Y-115239689D01*
X189207843Y-115165000D01*
X189207843Y-112165000D01*
X189200487Y-112090311D01*
X189178701Y-112018492D01*
X189143322Y-111952304D01*
X189095711Y-111894289D01*
X189037696Y-111846678D01*
X188971508Y-111811299D01*
X188899689Y-111789513D01*
X188825000Y-111782157D01*
X185825000Y-111782157D01*
X185750311Y-111789513D01*
X185678492Y-111811299D01*
X185612304Y-111846678D01*
X185554289Y-111894289D01*
X185506678Y-111952304D01*
X185471299Y-112018492D01*
X185449513Y-112090311D01*
X185442157Y-112165000D01*
X182339843Y-112165000D01*
X182339843Y-110553500D01*
X187421699Y-110553500D01*
X187710893Y-110525017D01*
X188081957Y-110412456D01*
X188423931Y-110229667D01*
X188723674Y-109983674D01*
X188969667Y-109683931D01*
X189152456Y-109341957D01*
X189265017Y-108970893D01*
X189303024Y-108585000D01*
X189265017Y-108199107D01*
X189152456Y-107828043D01*
X188969667Y-107486069D01*
X188723674Y-107186326D01*
X188423931Y-106940333D01*
X188081957Y-106757544D01*
X187710893Y-106644983D01*
X187421699Y-106616500D01*
X180758689Y-106616500D01*
X180662000Y-106606977D01*
X180565311Y-106616500D01*
X180565301Y-106616500D01*
X180276107Y-106644983D01*
X179905043Y-106757544D01*
X179563069Y-106940333D01*
X179563067Y-106940334D01*
X179563068Y-106940334D01*
X179338436Y-107124684D01*
X179338432Y-107124688D01*
X179263326Y-107186326D01*
X179246230Y-107207157D01*
X175557000Y-107207157D01*
X175482311Y-107214513D01*
X175410492Y-107236299D01*
X175344304Y-107271678D01*
X175286289Y-107319289D01*
X175238678Y-107377304D01*
X175203299Y-107443492D01*
X175181513Y-107515311D01*
X175174157Y-107590000D01*
X175174157Y-109791500D01*
X173925264Y-109791500D01*
X173910701Y-109743492D01*
X173875322Y-109677304D01*
X173827711Y-109619289D01*
X173769696Y-109571678D01*
X173703508Y-109536299D01*
X173631689Y-109514513D01*
X173557000Y-109507157D01*
X171357000Y-109507157D01*
X171282311Y-109514513D01*
X171210492Y-109536299D01*
X171144304Y-109571678D01*
X171086289Y-109619289D01*
X171038678Y-109677304D01*
X171003299Y-109743492D01*
X170981513Y-109815311D01*
X170974157Y-109890000D01*
X170617993Y-109890000D01*
X170627843Y-109790001D01*
X170627843Y-109369984D01*
X171016543Y-108981285D01*
X171038678Y-109022696D01*
X171086289Y-109080711D01*
X171144304Y-109128322D01*
X171210492Y-109163701D01*
X171282311Y-109185487D01*
X171357000Y-109192843D01*
X173557000Y-109192843D01*
X173631689Y-109185487D01*
X173703508Y-109163701D01*
X173769696Y-109128322D01*
X173827711Y-109080711D01*
X173875322Y-109022696D01*
X173910701Y-108956508D01*
X173932487Y-108884689D01*
X173939843Y-108810000D01*
X173939843Y-107610000D01*
X173932487Y-107535311D01*
X173910701Y-107463492D01*
X173875322Y-107397304D01*
X173827711Y-107339289D01*
X173769696Y-107291678D01*
X173703508Y-107256299D01*
X173631689Y-107234513D01*
X173557000Y-107227157D01*
X171357000Y-107227157D01*
X171282311Y-107234513D01*
X171210492Y-107256299D01*
X171144304Y-107291678D01*
X171086289Y-107339289D01*
X171038678Y-107397304D01*
X171003299Y-107463492D01*
X170988736Y-107511500D01*
X170834297Y-107511500D01*
X170799999Y-107508122D01*
X170765701Y-107511500D01*
X170765691Y-107511500D01*
X170663070Y-107521607D01*
X170531403Y-107561548D01*
X170531401Y-107561549D01*
X170410056Y-107626409D01*
X170330346Y-107691826D01*
X170330343Y-107691829D01*
X170303697Y-107713697D01*
X170281829Y-107740343D01*
X169515016Y-108507157D01*
X169395380Y-108507157D01*
X168465500Y-107577278D01*
X168465500Y-105369000D01*
X170718928Y-105369000D01*
X170731188Y-105493482D01*
X170767498Y-105613180D01*
X170826463Y-105723494D01*
X170905815Y-105820185D01*
X171002506Y-105899537D01*
X171112820Y-105958502D01*
X171232518Y-105994812D01*
X171357000Y-106007072D01*
X172171250Y-106004000D01*
X172330000Y-105845250D01*
X172330000Y-104896000D01*
X172584000Y-104896000D01*
X172584000Y-105845250D01*
X172742750Y-106004000D01*
X173557000Y-106007072D01*
X173681482Y-105994812D01*
X173801180Y-105958502D01*
X173911494Y-105899537D01*
X174008185Y-105820185D01*
X174087537Y-105723494D01*
X174146502Y-105613180D01*
X174182812Y-105493482D01*
X174195072Y-105369000D01*
X174192000Y-105054750D01*
X174033250Y-104896000D01*
X172584000Y-104896000D01*
X172330000Y-104896000D01*
X170880750Y-104896000D01*
X170722000Y-105054750D01*
X170718928Y-105369000D01*
X168465500Y-105369000D01*
X168465500Y-104599015D01*
X168490506Y-104619537D01*
X168600820Y-104678502D01*
X168720518Y-104714812D01*
X168845000Y-104727072D01*
X169259250Y-104724000D01*
X169418000Y-104565250D01*
X169418000Y-103641000D01*
X169672000Y-103641000D01*
X169672000Y-104565250D01*
X169830750Y-104724000D01*
X170245000Y-104727072D01*
X170369482Y-104714812D01*
X170489180Y-104678502D01*
X170599494Y-104619537D01*
X170696185Y-104540185D01*
X170733485Y-104494735D01*
X170880750Y-104642000D01*
X172330000Y-104642000D01*
X172330000Y-103692750D01*
X172584000Y-103692750D01*
X172584000Y-104642000D01*
X174033250Y-104642000D01*
X174192000Y-104483250D01*
X174195072Y-104169000D01*
X174182812Y-104044518D01*
X174146502Y-103924820D01*
X174087537Y-103814506D01*
X174008185Y-103717815D01*
X173911494Y-103638463D01*
X173801180Y-103579498D01*
X173681482Y-103543188D01*
X173557000Y-103530928D01*
X172742750Y-103534000D01*
X172584000Y-103692750D01*
X172330000Y-103692750D01*
X172171250Y-103534000D01*
X171357000Y-103530928D01*
X171232518Y-103543188D01*
X171112820Y-103579498D01*
X171002506Y-103638463D01*
X170905815Y-103717815D01*
X170857246Y-103776996D01*
X170721250Y-103641000D01*
X169672000Y-103641000D01*
X169418000Y-103641000D01*
X169398000Y-103641000D01*
X169398000Y-103387000D01*
X169418000Y-103387000D01*
X169418000Y-103367000D01*
X169672000Y-103367000D01*
X169672000Y-103387000D01*
X170721250Y-103387000D01*
X170880000Y-103228250D01*
X170883072Y-102939000D01*
X170870812Y-102814518D01*
X170834502Y-102694820D01*
X170775537Y-102584506D01*
X170696185Y-102487815D01*
X170599494Y-102408463D01*
X170489180Y-102349498D01*
X170369482Y-102313188D01*
X170351220Y-102311389D01*
X170442488Y-102236488D01*
X170521190Y-102140589D01*
X170579671Y-102031179D01*
X170615683Y-101912462D01*
X170617993Y-101889000D01*
X170974157Y-101889000D01*
X170974157Y-103089000D01*
X170981513Y-103163689D01*
X171003299Y-103235508D01*
X171038678Y-103301696D01*
X171086289Y-103359711D01*
X171144304Y-103407322D01*
X171210492Y-103442701D01*
X171282311Y-103464487D01*
X171357000Y-103471843D01*
X173557000Y-103471843D01*
X173631689Y-103464487D01*
X173703508Y-103442701D01*
X173769696Y-103407322D01*
X173827711Y-103359711D01*
X173875322Y-103301696D01*
X173910701Y-103235508D01*
X173925264Y-103187500D01*
X175174157Y-103187500D01*
X175174157Y-105389000D01*
X175181513Y-105463689D01*
X175203299Y-105535508D01*
X175238678Y-105601696D01*
X175286289Y-105659711D01*
X175344304Y-105707322D01*
X175410492Y-105742701D01*
X175482311Y-105764487D01*
X175557000Y-105771843D01*
X181957000Y-105771843D01*
X182031689Y-105764487D01*
X182103508Y-105742701D01*
X182169696Y-105707322D01*
X182227711Y-105659711D01*
X182275322Y-105601696D01*
X182310701Y-105535508D01*
X182329511Y-105473500D01*
X187421699Y-105473500D01*
X187710893Y-105445017D01*
X188081957Y-105332456D01*
X188423931Y-105149667D01*
X188723674Y-104903674D01*
X188969667Y-104603931D01*
X189152456Y-104261957D01*
X189265017Y-103890893D01*
X189303024Y-103505000D01*
X189265017Y-103119107D01*
X189152456Y-102748043D01*
X188969667Y-102406069D01*
X188723674Y-102106326D01*
X188423931Y-101860333D01*
X188081957Y-101677544D01*
X187710893Y-101564983D01*
X187421699Y-101536500D01*
X182339843Y-101536500D01*
X182339843Y-99589000D01*
X182332487Y-99514311D01*
X182310701Y-99442492D01*
X182275322Y-99376304D01*
X182227711Y-99318289D01*
X182169696Y-99270678D01*
X182103508Y-99235299D01*
X182031689Y-99213513D01*
X181957000Y-99206157D01*
X175557000Y-99206157D01*
X175482311Y-99213513D01*
X175410492Y-99235299D01*
X175344304Y-99270678D01*
X175286289Y-99318289D01*
X175238678Y-99376304D01*
X175203299Y-99442492D01*
X175181513Y-99514311D01*
X175174157Y-99589000D01*
X175174157Y-101790500D01*
X173925264Y-101790500D01*
X173910701Y-101742492D01*
X173875322Y-101676304D01*
X173827711Y-101618289D01*
X173769696Y-101570678D01*
X173703508Y-101535299D01*
X173631689Y-101513513D01*
X173557000Y-101506157D01*
X171357000Y-101506157D01*
X171282311Y-101513513D01*
X171210492Y-101535299D01*
X171144304Y-101570678D01*
X171086289Y-101618289D01*
X171038678Y-101676304D01*
X171003299Y-101742492D01*
X170981513Y-101814311D01*
X170974157Y-101889000D01*
X170617993Y-101889000D01*
X170627843Y-101789001D01*
X170627843Y-101368984D01*
X171016543Y-100980285D01*
X171038678Y-101021696D01*
X171086289Y-101079711D01*
X171144304Y-101127322D01*
X171210492Y-101162701D01*
X171282311Y-101184487D01*
X171357000Y-101191843D01*
X173557000Y-101191843D01*
X173631689Y-101184487D01*
X173703508Y-101162701D01*
X173769696Y-101127322D01*
X173827711Y-101079711D01*
X173875322Y-101021696D01*
X173910701Y-100955508D01*
X173932487Y-100883689D01*
X173939843Y-100809000D01*
X173939843Y-99609000D01*
X173932487Y-99534311D01*
X173910701Y-99462492D01*
X173875322Y-99396304D01*
X173827711Y-99338289D01*
X173769696Y-99290678D01*
X173703508Y-99255299D01*
X173631689Y-99233513D01*
X173557000Y-99226157D01*
X171357000Y-99226157D01*
X171282311Y-99233513D01*
X171210492Y-99255299D01*
X171144304Y-99290678D01*
X171086289Y-99338289D01*
X171038678Y-99396304D01*
X171003299Y-99462492D01*
X170988736Y-99510500D01*
X170834297Y-99510500D01*
X170799999Y-99507122D01*
X170765701Y-99510500D01*
X170765691Y-99510500D01*
X170663070Y-99520607D01*
X170531403Y-99560548D01*
X170531401Y-99560549D01*
X170410056Y-99625409D01*
X170330346Y-99690826D01*
X170330343Y-99690829D01*
X170303697Y-99712697D01*
X170281829Y-99739343D01*
X170116500Y-99904672D01*
X170116500Y-97818071D01*
X170119265Y-97789999D01*
X170114385Y-97740453D01*
X170108231Y-97677966D01*
X170075552Y-97570238D01*
X170035337Y-97495000D01*
X170718928Y-97495000D01*
X170731188Y-97619482D01*
X170767498Y-97739180D01*
X170826463Y-97849494D01*
X170905815Y-97946185D01*
X171002506Y-98025537D01*
X171112820Y-98084502D01*
X171232518Y-98120812D01*
X171357000Y-98133072D01*
X172171250Y-98130000D01*
X172330000Y-97971250D01*
X172330000Y-97022000D01*
X172584000Y-97022000D01*
X172584000Y-97971250D01*
X172742750Y-98130000D01*
X173557000Y-98133072D01*
X173681482Y-98120812D01*
X173801180Y-98084502D01*
X173911494Y-98025537D01*
X174008185Y-97946185D01*
X174087537Y-97849494D01*
X174146502Y-97739180D01*
X174182812Y-97619482D01*
X174195072Y-97495000D01*
X174192000Y-97180750D01*
X174033250Y-97022000D01*
X172584000Y-97022000D01*
X172330000Y-97022000D01*
X170880750Y-97022000D01*
X170722000Y-97180750D01*
X170718928Y-97495000D01*
X170035337Y-97495000D01*
X170022484Y-97470955D01*
X169951067Y-97383933D01*
X169929258Y-97366035D01*
X169460970Y-96897748D01*
X169443067Y-96875933D01*
X169356045Y-96804516D01*
X169322607Y-96786643D01*
X169418000Y-96691250D01*
X169418000Y-95767000D01*
X169672000Y-95767000D01*
X169672000Y-96691250D01*
X169830750Y-96850000D01*
X170245000Y-96853072D01*
X170369482Y-96840812D01*
X170489180Y-96804502D01*
X170599494Y-96745537D01*
X170696185Y-96666185D01*
X170733485Y-96620735D01*
X170880750Y-96768000D01*
X172330000Y-96768000D01*
X172330000Y-95818750D01*
X172584000Y-95818750D01*
X172584000Y-96768000D01*
X174033250Y-96768000D01*
X174192000Y-96609250D01*
X174195072Y-96295000D01*
X174182812Y-96170518D01*
X174146502Y-96050820D01*
X174087537Y-95940506D01*
X174008185Y-95843815D01*
X173911494Y-95764463D01*
X173801180Y-95705498D01*
X173681482Y-95669188D01*
X173557000Y-95656928D01*
X172742750Y-95660000D01*
X172584000Y-95818750D01*
X172330000Y-95818750D01*
X172171250Y-95660000D01*
X171357000Y-95656928D01*
X171232518Y-95669188D01*
X171112820Y-95705498D01*
X171002506Y-95764463D01*
X170905815Y-95843815D01*
X170857246Y-95902996D01*
X170721250Y-95767000D01*
X169672000Y-95767000D01*
X169418000Y-95767000D01*
X168368750Y-95767000D01*
X168210000Y-95925750D01*
X168206928Y-96215000D01*
X168219188Y-96339482D01*
X168255498Y-96459180D01*
X168314463Y-96569494D01*
X168393815Y-96666185D01*
X168447813Y-96710500D01*
X166686498Y-96710500D01*
X166658426Y-96707735D01*
X166630354Y-96710500D01*
X166630353Y-96710500D01*
X166546393Y-96718769D01*
X166438665Y-96751448D01*
X166339382Y-96804516D01*
X166252360Y-96875933D01*
X166234461Y-96897743D01*
X165506703Y-97625502D01*
X165150674Y-97269473D01*
X165092659Y-97221862D01*
X165046293Y-97197078D01*
X165021509Y-97150712D01*
X164973898Y-97092697D01*
X164712967Y-96831766D01*
X167383233Y-94161500D01*
X168512639Y-94161500D01*
X168568810Y-94266589D01*
X168647512Y-94362488D01*
X168738780Y-94437389D01*
X168720518Y-94439188D01*
X168600820Y-94475498D01*
X168490506Y-94534463D01*
X168393815Y-94613815D01*
X168314463Y-94710506D01*
X168255498Y-94820820D01*
X168219188Y-94940518D01*
X168206928Y-95065000D01*
X168210000Y-95354250D01*
X168368750Y-95513000D01*
X169418000Y-95513000D01*
X169418000Y-95493000D01*
X169672000Y-95493000D01*
X169672000Y-95513000D01*
X170721250Y-95513000D01*
X170880000Y-95354250D01*
X170883072Y-95065000D01*
X170870812Y-94940518D01*
X170834502Y-94820820D01*
X170775537Y-94710506D01*
X170696185Y-94613815D01*
X170599494Y-94534463D01*
X170489180Y-94475498D01*
X170369482Y-94439188D01*
X170351220Y-94437389D01*
X170442488Y-94362488D01*
X170521190Y-94266589D01*
X170579671Y-94157179D01*
X170615683Y-94038462D01*
X170617993Y-94015000D01*
X170974157Y-94015000D01*
X170974157Y-95215000D01*
X170981513Y-95289689D01*
X171003299Y-95361508D01*
X171038678Y-95427696D01*
X171086289Y-95485711D01*
X171144304Y-95533322D01*
X171210492Y-95568701D01*
X171282311Y-95590487D01*
X171357000Y-95597843D01*
X173557000Y-95597843D01*
X173631689Y-95590487D01*
X173703508Y-95568701D01*
X173769696Y-95533322D01*
X173827711Y-95485711D01*
X173875322Y-95427696D01*
X173910701Y-95361508D01*
X173925264Y-95313500D01*
X175174157Y-95313500D01*
X175174157Y-97515000D01*
X175181513Y-97589689D01*
X175203299Y-97661508D01*
X175238678Y-97727696D01*
X175286289Y-97785711D01*
X175344304Y-97833322D01*
X175410492Y-97868701D01*
X175482311Y-97890487D01*
X175557000Y-97897843D01*
X181957000Y-97897843D01*
X182031689Y-97890487D01*
X182103508Y-97868701D01*
X182169696Y-97833322D01*
X182227711Y-97785711D01*
X182275322Y-97727696D01*
X182310701Y-97661508D01*
X182332487Y-97589689D01*
X182339843Y-97515000D01*
X182339843Y-96583500D01*
X182699621Y-96583500D01*
X186001437Y-99885316D01*
X186226068Y-100069666D01*
X186568043Y-100252456D01*
X186939106Y-100365016D01*
X187325000Y-100403023D01*
X187710893Y-100365016D01*
X188081957Y-100252456D01*
X188423931Y-100069666D01*
X188723674Y-99823674D01*
X188969666Y-99523931D01*
X189152456Y-99181957D01*
X189265016Y-98810893D01*
X189303023Y-98425000D01*
X189265016Y-98039106D01*
X189152456Y-97668043D01*
X188969666Y-97326068D01*
X188785316Y-97101437D01*
X184975316Y-93291437D01*
X184913674Y-93216326D01*
X184613931Y-92970333D01*
X184271957Y-92787544D01*
X183900893Y-92674983D01*
X183611699Y-92646500D01*
X183611689Y-92646500D01*
X183515000Y-92636977D01*
X183418311Y-92646500D01*
X182339843Y-92646500D01*
X182339843Y-92569059D01*
X185894000Y-92569059D01*
X185894000Y-92850941D01*
X185948993Y-93127407D01*
X186056864Y-93387833D01*
X186213470Y-93622209D01*
X186412791Y-93821530D01*
X186647167Y-93978136D01*
X186907593Y-94086007D01*
X187184059Y-94141000D01*
X187465941Y-94141000D01*
X187742407Y-94086007D01*
X188002833Y-93978136D01*
X188237209Y-93821530D01*
X188436530Y-93622209D01*
X188593136Y-93387833D01*
X188701007Y-93127407D01*
X188756000Y-92850941D01*
X188756000Y-92569059D01*
X188701007Y-92292593D01*
X188593136Y-92032167D01*
X188436530Y-91797791D01*
X188237209Y-91598470D01*
X188002833Y-91441864D01*
X187742407Y-91333993D01*
X187465941Y-91279000D01*
X187184059Y-91279000D01*
X186907593Y-91333993D01*
X186647167Y-91441864D01*
X186412791Y-91598470D01*
X186213470Y-91797791D01*
X186056864Y-92032167D01*
X185948993Y-92292593D01*
X185894000Y-92569059D01*
X182339843Y-92569059D01*
X182339843Y-91715000D01*
X182332487Y-91640311D01*
X182310701Y-91568492D01*
X182275322Y-91502304D01*
X182227711Y-91444289D01*
X182169696Y-91396678D01*
X182103508Y-91361299D01*
X182031689Y-91339513D01*
X181957000Y-91332157D01*
X175557000Y-91332157D01*
X175482311Y-91339513D01*
X175410492Y-91361299D01*
X175344304Y-91396678D01*
X175286289Y-91444289D01*
X175238678Y-91502304D01*
X175203299Y-91568492D01*
X175181513Y-91640311D01*
X175174157Y-91715000D01*
X175174157Y-93916500D01*
X173925264Y-93916500D01*
X173910701Y-93868492D01*
X173875322Y-93802304D01*
X173827711Y-93744289D01*
X173769696Y-93696678D01*
X173703508Y-93661299D01*
X173631689Y-93639513D01*
X173557000Y-93632157D01*
X171357000Y-93632157D01*
X171282311Y-93639513D01*
X171210492Y-93661299D01*
X171144304Y-93696678D01*
X171086289Y-93744289D01*
X171038678Y-93802304D01*
X171003299Y-93868492D01*
X170981513Y-93940311D01*
X170974157Y-94015000D01*
X170617993Y-94015000D01*
X170627843Y-93915001D01*
X170627843Y-93494984D01*
X171016543Y-93106285D01*
X171038678Y-93147696D01*
X171086289Y-93205711D01*
X171144304Y-93253322D01*
X171210492Y-93288701D01*
X171282311Y-93310487D01*
X171357000Y-93317843D01*
X173557000Y-93317843D01*
X173631689Y-93310487D01*
X173703508Y-93288701D01*
X173769696Y-93253322D01*
X173827711Y-93205711D01*
X173875322Y-93147696D01*
X173910701Y-93081508D01*
X173932487Y-93009689D01*
X173939843Y-92935000D01*
X173939843Y-91735000D01*
X173932487Y-91660311D01*
X173910701Y-91588492D01*
X173875322Y-91522304D01*
X173827711Y-91464289D01*
X173769696Y-91416678D01*
X173703508Y-91381299D01*
X173631689Y-91359513D01*
X173557000Y-91352157D01*
X171357000Y-91352157D01*
X171282311Y-91359513D01*
X171210492Y-91381299D01*
X171144304Y-91416678D01*
X171086289Y-91464289D01*
X171038678Y-91522304D01*
X171003299Y-91588492D01*
X170988736Y-91636500D01*
X170834297Y-91636500D01*
X170799999Y-91633122D01*
X170765701Y-91636500D01*
X170765691Y-91636500D01*
X170663070Y-91646607D01*
X170531403Y-91686548D01*
X170531401Y-91686549D01*
X170410056Y-91751409D01*
X170330346Y-91816826D01*
X170330343Y-91816829D01*
X170303697Y-91838697D01*
X170281829Y-91865343D01*
X169515016Y-92632157D01*
X169094999Y-92632157D01*
X168971538Y-92644317D01*
X168852821Y-92680329D01*
X168743411Y-92738810D01*
X168647512Y-92817512D01*
X168568810Y-92913411D01*
X168512639Y-93018500D01*
X167174584Y-93018500D01*
X167146510Y-93015735D01*
X167043208Y-93025909D01*
X167034476Y-93026769D01*
X166926748Y-93059448D01*
X166827465Y-93112516D01*
X166740443Y-93183933D01*
X166722544Y-93205743D01*
X163896690Y-96031598D01*
X163890138Y-96019341D01*
X163842527Y-95961326D01*
X163453618Y-95572417D01*
X163395603Y-95524806D01*
X163349235Y-95500021D01*
X163324452Y-95453656D01*
X163276841Y-95395641D01*
X162887932Y-95006732D01*
X162829917Y-94959121D01*
X162783552Y-94934338D01*
X162758767Y-94887970D01*
X162711156Y-94829955D01*
X162322247Y-94441046D01*
X162264232Y-94393435D01*
X162198044Y-94358056D01*
X162126225Y-94336270D01*
X162051536Y-94328914D01*
X161976847Y-94336270D01*
X161905028Y-94358056D01*
X161838840Y-94393435D01*
X161780825Y-94441046D01*
X160655000Y-95566871D01*
X159529175Y-94441046D01*
X159480733Y-94401291D01*
X159685241Y-94196784D01*
X163277413Y-94196784D01*
X163637909Y-94557280D01*
X163733808Y-94635982D01*
X163843218Y-94694463D01*
X163961935Y-94730475D01*
X164085396Y-94742635D01*
X164208857Y-94730475D01*
X164327574Y-94694463D01*
X164436984Y-94635982D01*
X164532883Y-94557280D01*
X165169280Y-93920883D01*
X165247982Y-93824984D01*
X165306463Y-93715574D01*
X165342475Y-93596857D01*
X165354635Y-93473396D01*
X165342475Y-93349935D01*
X165306463Y-93231218D01*
X165247982Y-93121808D01*
X165169280Y-93025909D01*
X164709659Y-92566288D01*
X164613760Y-92487586D01*
X164504350Y-92429105D01*
X164385633Y-92393093D01*
X164262172Y-92380933D01*
X164138711Y-92393093D01*
X164019994Y-92429105D01*
X163910584Y-92487586D01*
X163814685Y-92566288D01*
X163454189Y-92926784D01*
X163264243Y-92926784D01*
X163719712Y-92471315D01*
X163798414Y-92375416D01*
X163856895Y-92266006D01*
X163892907Y-92147289D01*
X163905067Y-92023828D01*
X163892907Y-91900367D01*
X163856895Y-91781650D01*
X163798414Y-91672240D01*
X163719712Y-91576341D01*
X163260091Y-91116720D01*
X163164192Y-91038018D01*
X163054782Y-90979537D01*
X162936065Y-90943525D01*
X162812604Y-90931365D01*
X162689143Y-90943525D01*
X162570426Y-90979537D01*
X162461016Y-91038018D01*
X162365117Y-91116720D01*
X162004621Y-91477216D01*
X159305379Y-91477216D01*
X158944883Y-91116720D01*
X158848984Y-91038018D01*
X158739574Y-90979537D01*
X158620857Y-90943525D01*
X158497396Y-90931365D01*
X158373935Y-90943525D01*
X158255218Y-90979537D01*
X158145808Y-91038018D01*
X158049909Y-91116720D01*
X157590288Y-91576341D01*
X157511586Y-91672240D01*
X157453105Y-91781650D01*
X157417093Y-91900367D01*
X157404933Y-92023828D01*
X157417093Y-92147289D01*
X157453105Y-92266006D01*
X157511586Y-92375416D01*
X157590288Y-92471315D01*
X158226685Y-93107712D01*
X158322584Y-93186414D01*
X158431994Y-93244895D01*
X158550711Y-93280907D01*
X158674172Y-93293067D01*
X158797633Y-93280907D01*
X158808306Y-93277670D01*
X158301669Y-93784306D01*
X158304907Y-93773633D01*
X158317067Y-93650172D01*
X158304907Y-93526711D01*
X158268895Y-93407994D01*
X158210414Y-93298584D01*
X158131712Y-93202685D01*
X157495315Y-92566288D01*
X157399416Y-92487586D01*
X157290006Y-92429105D01*
X157171289Y-92393093D01*
X157047828Y-92380933D01*
X156924367Y-92393093D01*
X156805650Y-92429105D01*
X156696240Y-92487586D01*
X156600341Y-92566288D01*
X156140720Y-93025909D01*
X156062018Y-93121808D01*
X156003537Y-93231218D01*
X155967525Y-93349935D01*
X155955365Y-93473396D01*
X155967525Y-93596857D01*
X156003537Y-93715574D01*
X156031704Y-93768271D01*
X154873633Y-94926342D01*
X154864556Y-94834174D01*
X154817353Y-94678566D01*
X154740699Y-94535158D01*
X154637541Y-94409459D01*
X154511842Y-94306301D01*
X154368434Y-94229647D01*
X154212826Y-94182444D01*
X154091553Y-94170500D01*
X153543000Y-94170500D01*
X153543000Y-92837000D01*
X153535679Y-92762671D01*
X153513998Y-92691198D01*
X153478790Y-92625328D01*
X153431408Y-92567592D01*
X153373672Y-92520210D01*
X153307802Y-92485002D01*
X153236329Y-92463321D01*
X153162000Y-92456000D01*
X152293817Y-92456000D01*
X152290552Y-92445238D01*
X152237484Y-92345955D01*
X152166067Y-92258933D01*
X152144257Y-92241034D01*
X150479222Y-90576000D01*
X187305146Y-90576000D01*
X187739115Y-90618551D01*
X188137462Y-90738819D01*
X188504864Y-90934170D01*
X188827317Y-91197157D01*
X189092553Y-91517773D01*
X189290460Y-91883795D01*
X189413506Y-92281291D01*
X189459001Y-92714146D01*
X189459000Y-119360146D01*
X189416449Y-119794115D01*
X189296181Y-120192464D01*
X189100831Y-120559862D01*
X188837845Y-120882315D01*
X188517226Y-121147554D01*
X188151204Y-121345461D01*
X187753708Y-121468506D01*
X187320863Y-121514000D01*
X128924854Y-121514000D01*
X128490885Y-121471449D01*
X128092536Y-121351181D01*
X127725138Y-121155831D01*
X127402685Y-120892845D01*
X127137446Y-120572226D01*
X126939539Y-120206204D01*
X126816494Y-119808708D01*
X126771000Y-119375863D01*
X126771000Y-119239059D01*
X127474000Y-119239059D01*
X127474000Y-119520941D01*
X127528993Y-119797407D01*
X127636864Y-120057833D01*
X127793470Y-120292209D01*
X127992791Y-120491530D01*
X128227167Y-120648136D01*
X128487593Y-120756007D01*
X128764059Y-120811000D01*
X129045941Y-120811000D01*
X129322407Y-120756007D01*
X129582833Y-120648136D01*
X129817209Y-120491530D01*
X130016530Y-120292209D01*
X130173136Y-120057833D01*
X130281007Y-119797407D01*
X130325843Y-119572000D01*
X134150928Y-119572000D01*
X134163188Y-119696482D01*
X134199498Y-119816180D01*
X134258463Y-119926494D01*
X134337815Y-120023185D01*
X134434506Y-120102537D01*
X134544820Y-120161502D01*
X134664518Y-120197812D01*
X134789000Y-120210072D01*
X135078250Y-120207000D01*
X135237000Y-120048250D01*
X135237000Y-118999000D01*
X134312750Y-118999000D01*
X134154000Y-119157750D01*
X134150928Y-119572000D01*
X130325843Y-119572000D01*
X130336000Y-119520941D01*
X130336000Y-119239059D01*
X130281007Y-118962593D01*
X130173136Y-118702167D01*
X130016530Y-118467791D01*
X129817209Y-118268470D01*
X129672833Y-118172000D01*
X134150928Y-118172000D01*
X134154000Y-118586250D01*
X134312750Y-118745000D01*
X135237000Y-118745000D01*
X135237000Y-117695750D01*
X135078250Y-117537000D01*
X134789000Y-117533928D01*
X134664518Y-117546188D01*
X134544820Y-117582498D01*
X134434506Y-117641463D01*
X134337815Y-117720815D01*
X134258463Y-117817506D01*
X134199498Y-117927820D01*
X134163188Y-118047518D01*
X134150928Y-118172000D01*
X129672833Y-118172000D01*
X129582833Y-118111864D01*
X129322407Y-118003993D01*
X129045941Y-117949000D01*
X128764059Y-117949000D01*
X128487593Y-118003993D01*
X128227167Y-118111864D01*
X127992791Y-118268470D01*
X127793470Y-118467791D01*
X127636864Y-118702167D01*
X127528993Y-118962593D01*
X127474000Y-119239059D01*
X126771000Y-119239059D01*
X126771000Y-112729224D01*
X132355381Y-112729224D01*
X132487317Y-113024312D01*
X132828045Y-113195159D01*
X133195557Y-113296250D01*
X133575729Y-113323701D01*
X133953951Y-113276457D01*
X134315690Y-113156333D01*
X134562683Y-113024312D01*
X134694619Y-112729224D01*
X133525000Y-111559605D01*
X132355381Y-112729224D01*
X126771000Y-112729224D01*
X126771000Y-111430729D01*
X131581299Y-111430729D01*
X131628543Y-111808951D01*
X131748667Y-112170690D01*
X131880688Y-112417683D01*
X132175776Y-112549619D01*
X133345395Y-111380000D01*
X133704605Y-111380000D01*
X134874224Y-112549619D01*
X135169312Y-112417683D01*
X135340159Y-112076955D01*
X135441250Y-111709443D01*
X135468701Y-111329271D01*
X135421457Y-110951049D01*
X135301333Y-110589310D01*
X135169312Y-110342317D01*
X134874224Y-110210381D01*
X133704605Y-111380000D01*
X133345395Y-111380000D01*
X132175776Y-110210381D01*
X131880688Y-110342317D01*
X131709841Y-110683045D01*
X131608750Y-111050557D01*
X131581299Y-111430729D01*
X126771000Y-111430729D01*
X126771000Y-110030776D01*
X132355381Y-110030776D01*
X133525000Y-111200395D01*
X134694619Y-110030776D01*
X134562683Y-109735688D01*
X134221955Y-109564841D01*
X133854443Y-109463750D01*
X133474271Y-109436299D01*
X133096049Y-109483543D01*
X132734310Y-109603667D01*
X132487317Y-109735688D01*
X132355381Y-110030776D01*
X126771000Y-110030776D01*
X126771000Y-108029224D01*
X129355381Y-108029224D01*
X129487317Y-108324312D01*
X129828045Y-108495159D01*
X130195557Y-108596250D01*
X130575729Y-108623701D01*
X130953951Y-108576457D01*
X131315690Y-108456333D01*
X131562683Y-108324312D01*
X131694619Y-108029224D01*
X130525000Y-106859605D01*
X129355381Y-108029224D01*
X126771000Y-108029224D01*
X126771000Y-106730729D01*
X128581299Y-106730729D01*
X128628543Y-107108951D01*
X128748667Y-107470690D01*
X128880688Y-107717683D01*
X129175776Y-107849619D01*
X130345395Y-106680000D01*
X130704605Y-106680000D01*
X131874224Y-107849619D01*
X132169312Y-107717683D01*
X132340159Y-107376955D01*
X132441250Y-107009443D01*
X132468701Y-106629271D01*
X132421457Y-106251049D01*
X132301333Y-105889310D01*
X132169312Y-105642317D01*
X131874224Y-105510381D01*
X130704605Y-106680000D01*
X130345395Y-106680000D01*
X129175776Y-105510381D01*
X128880688Y-105642317D01*
X128709841Y-105983045D01*
X128608750Y-106350557D01*
X128581299Y-106730729D01*
X126771000Y-106730729D01*
X126771000Y-105330776D01*
X129355381Y-105330776D01*
X130525000Y-106500395D01*
X131645395Y-105380000D01*
X134842157Y-105380000D01*
X134842157Y-107980000D01*
X134849513Y-108054689D01*
X134871299Y-108126508D01*
X134906678Y-108192696D01*
X134954289Y-108250711D01*
X135012304Y-108298322D01*
X135078492Y-108333701D01*
X135150311Y-108355487D01*
X135225000Y-108362843D01*
X137825000Y-108362843D01*
X137899689Y-108355487D01*
X137971508Y-108333701D01*
X138037696Y-108298322D01*
X138095711Y-108250711D01*
X138143322Y-108192696D01*
X138178701Y-108126508D01*
X138200487Y-108054689D01*
X138207843Y-107980000D01*
X138207843Y-105569000D01*
X146973928Y-105569000D01*
X146986188Y-105693482D01*
X147022498Y-105813180D01*
X147081463Y-105923494D01*
X147160815Y-106020185D01*
X147257506Y-106099537D01*
X147367820Y-106158502D01*
X147487518Y-106194812D01*
X147612000Y-106207072D01*
X148076250Y-106204000D01*
X148235000Y-106045250D01*
X148235000Y-104521000D01*
X147135750Y-104521000D01*
X146977000Y-104679750D01*
X146973928Y-105569000D01*
X138207843Y-105569000D01*
X138207843Y-105380000D01*
X138200487Y-105305311D01*
X138178701Y-105233492D01*
X138143322Y-105167304D01*
X138095711Y-105109289D01*
X138037696Y-105061678D01*
X137971508Y-105026299D01*
X137899689Y-105004513D01*
X137825000Y-104997157D01*
X137350500Y-104997157D01*
X137350500Y-102140000D01*
X146973928Y-102140000D01*
X146986188Y-102264482D01*
X147022498Y-102384180D01*
X147081463Y-102494494D01*
X147160815Y-102591185D01*
X147257506Y-102670537D01*
X147274274Y-102679500D01*
X147257506Y-102688463D01*
X147160815Y-102767815D01*
X147081463Y-102864506D01*
X147022498Y-102974820D01*
X146986188Y-103094518D01*
X146973928Y-103219000D01*
X146977000Y-104108250D01*
X147135750Y-104267000D01*
X148235000Y-104267000D01*
X148235000Y-102742750D01*
X148171750Y-102679500D01*
X148235000Y-102616250D01*
X148235000Y-101092000D01*
X148489000Y-101092000D01*
X148489000Y-102616250D01*
X148552250Y-102679500D01*
X148489000Y-102742750D01*
X148489000Y-104267000D01*
X149588250Y-104267000D01*
X149747000Y-104108250D01*
X149750072Y-103219000D01*
X149737812Y-103094518D01*
X149701502Y-102974820D01*
X149642537Y-102864506D01*
X149563185Y-102767815D01*
X149466494Y-102688463D01*
X149449726Y-102679500D01*
X149466494Y-102670537D01*
X149563185Y-102591185D01*
X149642537Y-102494494D01*
X149701502Y-102384180D01*
X149737812Y-102264482D01*
X149750072Y-102140000D01*
X149747000Y-101250750D01*
X149588250Y-101092000D01*
X148489000Y-101092000D01*
X148235000Y-101092000D01*
X147135750Y-101092000D01*
X146977000Y-101250750D01*
X146973928Y-102140000D01*
X137350500Y-102140000D01*
X137350500Y-97760814D01*
X137392179Y-97748171D01*
X137501589Y-97689690D01*
X137597488Y-97610988D01*
X137676190Y-97515089D01*
X137734671Y-97405679D01*
X137770683Y-97286962D01*
X137782843Y-97163500D01*
X137782843Y-96238500D01*
X137770683Y-96115038D01*
X137734671Y-95996321D01*
X137676190Y-95886911D01*
X137597488Y-95791012D01*
X137501589Y-95712310D01*
X137392179Y-95653829D01*
X137273462Y-95617817D01*
X137150000Y-95605657D01*
X135900000Y-95605657D01*
X135776538Y-95617817D01*
X135657821Y-95653829D01*
X135548411Y-95712310D01*
X135452512Y-95791012D01*
X135373810Y-95886911D01*
X135315329Y-95996321D01*
X135279317Y-96115038D01*
X135267157Y-96238500D01*
X135267157Y-97163500D01*
X135279317Y-97286962D01*
X135315329Y-97405679D01*
X135373810Y-97515089D01*
X135452512Y-97610988D01*
X135548411Y-97689690D01*
X135657821Y-97748171D01*
X135699500Y-97760814D01*
X135699501Y-104997157D01*
X135225000Y-104997157D01*
X135150311Y-105004513D01*
X135078492Y-105026299D01*
X135012304Y-105061678D01*
X134954289Y-105109289D01*
X134906678Y-105167304D01*
X134871299Y-105233492D01*
X134849513Y-105305311D01*
X134842157Y-105380000D01*
X131645395Y-105380000D01*
X131694619Y-105330776D01*
X131562683Y-105035688D01*
X131221955Y-104864841D01*
X130854443Y-104763750D01*
X130474271Y-104736299D01*
X130096049Y-104783543D01*
X129734310Y-104903667D01*
X129487317Y-105035688D01*
X129355381Y-105330776D01*
X126771000Y-105330776D01*
X126771000Y-92729854D01*
X126786766Y-92569059D01*
X127474000Y-92569059D01*
X127474000Y-92850941D01*
X127528993Y-93127407D01*
X127636864Y-93387833D01*
X127793470Y-93622209D01*
X127992791Y-93821530D01*
X128227167Y-93978136D01*
X128487593Y-94086007D01*
X128764059Y-94141000D01*
X129045941Y-94141000D01*
X129322407Y-94086007D01*
X129582833Y-93978136D01*
X129817209Y-93821530D01*
X130016530Y-93622209D01*
X130173136Y-93387833D01*
X130281007Y-93127407D01*
X130336000Y-92850941D01*
X130336000Y-92569059D01*
X130281007Y-92292593D01*
X130173136Y-92032167D01*
X130016530Y-91797791D01*
X129817209Y-91598470D01*
X129582833Y-91441864D01*
X129322407Y-91333993D01*
X129045941Y-91279000D01*
X128764059Y-91279000D01*
X128487593Y-91333993D01*
X128227167Y-91441864D01*
X127992791Y-91598470D01*
X127793470Y-91797791D01*
X127636864Y-92032167D01*
X127528993Y-92292593D01*
X127474000Y-92569059D01*
X126786766Y-92569059D01*
X126813551Y-92295885D01*
X126933819Y-91897538D01*
X127129170Y-91530136D01*
X127392157Y-91207683D01*
X127712773Y-90942447D01*
X128078795Y-90744540D01*
X128476291Y-90621494D01*
X128909137Y-90576000D01*
X142168777Y-90576000D01*
X141161748Y-91583030D01*
G36*
X153969498Y-95894821D02*
G01*
X153933189Y-96014519D01*
X153920929Y-96139000D01*
X153924001Y-96170191D01*
X153924000Y-97158245D01*
X153920929Y-97189427D01*
X153924000Y-97220608D01*
X153924000Y-97220618D01*
X153933188Y-97313908D01*
X153969498Y-97433606D01*
X154028463Y-97543920D01*
X154107815Y-97640612D01*
X154132050Y-97660501D01*
X154950173Y-98478626D01*
X154639046Y-98789753D01*
X154591435Y-98847768D01*
X154556056Y-98913956D01*
X154534270Y-98985775D01*
X154526914Y-99060464D01*
X154534270Y-99135153D01*
X154556056Y-99206972D01*
X154591435Y-99273160D01*
X154639046Y-99331175D01*
X155764871Y-100457000D01*
X154639046Y-101582825D01*
X154591435Y-101640840D01*
X154556056Y-101707028D01*
X154534270Y-101778847D01*
X154526914Y-101853536D01*
X154534270Y-101928225D01*
X154556056Y-102000044D01*
X154591435Y-102066232D01*
X154639046Y-102124247D01*
X155027955Y-102513156D01*
X155085970Y-102560767D01*
X155132338Y-102585552D01*
X155157121Y-102631917D01*
X155204732Y-102689932D01*
X155593641Y-103078841D01*
X155651656Y-103126452D01*
X155698021Y-103151235D01*
X155722806Y-103197603D01*
X155770417Y-103255618D01*
X156159326Y-103644527D01*
X156217341Y-103692138D01*
X156263707Y-103716922D01*
X156288491Y-103763288D01*
X156336102Y-103821303D01*
X156663288Y-104148489D01*
X155083662Y-105728116D01*
X154988067Y-105747131D01*
X154859584Y-105800351D01*
X154743951Y-105877614D01*
X154645614Y-105975951D01*
X154568351Y-106091584D01*
X154515131Y-106220067D01*
X154488000Y-106356465D01*
X154488000Y-106495535D01*
X154515131Y-106631933D01*
X154561344Y-106743500D01*
X151804423Y-106743500D01*
X151691605Y-106630682D01*
X151547310Y-106534268D01*
X151386978Y-106467856D01*
X151216771Y-106434000D01*
X151043229Y-106434000D01*
X150873022Y-106467856D01*
X150712690Y-106534268D01*
X150568395Y-106630682D01*
X150445682Y-106753395D01*
X150349268Y-106897690D01*
X150282856Y-107058022D01*
X150249000Y-107228229D01*
X150249000Y-107401771D01*
X150282856Y-107571978D01*
X150349268Y-107732310D01*
X150445682Y-107876605D01*
X150568395Y-107999318D01*
X150712690Y-108095732D01*
X150873022Y-108162144D01*
X151043229Y-108196000D01*
X151216771Y-108196000D01*
X151386978Y-108162144D01*
X151547310Y-108095732D01*
X151691605Y-107999318D01*
X151804423Y-107886500D01*
X155055510Y-107886500D01*
X154166510Y-108775500D01*
X151804423Y-108775500D01*
X151691605Y-108662682D01*
X151547310Y-108566268D01*
X151386978Y-108499856D01*
X151216771Y-108466000D01*
X151043229Y-108466000D01*
X150873022Y-108499856D01*
X150712690Y-108566268D01*
X150568395Y-108662682D01*
X150445682Y-108785395D01*
X150349268Y-108929690D01*
X150282856Y-109090022D01*
X150249000Y-109260229D01*
X150249000Y-109433771D01*
X150282856Y-109603978D01*
X150349268Y-109764310D01*
X150445682Y-109908605D01*
X150568395Y-110031318D01*
X150712690Y-110127732D01*
X150873022Y-110194144D01*
X151043229Y-110228000D01*
X151216771Y-110228000D01*
X151386978Y-110194144D01*
X151547310Y-110127732D01*
X151691605Y-110031318D01*
X151804423Y-109918500D01*
X153845182Y-109918500D01*
X152337139Y-111426543D01*
X152313204Y-111421782D01*
X152159360Y-111421782D01*
X152008473Y-111451795D01*
X151866340Y-111510669D01*
X151738423Y-111596140D01*
X151629640Y-111704923D01*
X151544169Y-111832840D01*
X151485295Y-111974973D01*
X151455282Y-112125860D01*
X151455282Y-112279704D01*
X151485295Y-112430591D01*
X151496855Y-112458500D01*
X150970422Y-112458500D01*
X150962950Y-112440461D01*
X150826744Y-112236614D01*
X150653386Y-112063256D01*
X150449539Y-111927050D01*
X150223036Y-111833229D01*
X149982582Y-111785400D01*
X149737418Y-111785400D01*
X149496964Y-111833229D01*
X149270461Y-111927050D01*
X149066614Y-112063256D01*
X148893256Y-112236614D01*
X148757050Y-112440461D01*
X148663229Y-112666964D01*
X148615400Y-112907418D01*
X148615400Y-113152582D01*
X148663229Y-113393036D01*
X148757050Y-113619539D01*
X148840479Y-113744399D01*
X148602175Y-113744399D01*
X148574101Y-113741634D01*
X148546027Y-113744399D01*
X148462067Y-113752668D01*
X148354339Y-113785347D01*
X148288728Y-113820417D01*
X148422950Y-113619539D01*
X148516771Y-113393036D01*
X148564600Y-113152582D01*
X148564600Y-112907418D01*
X148516771Y-112666964D01*
X148422950Y-112440461D01*
X148286744Y-112236614D01*
X148113386Y-112063256D01*
X147909539Y-111927050D01*
X147683036Y-111833229D01*
X147442582Y-111785400D01*
X147197418Y-111785400D01*
X146956964Y-111833229D01*
X146730461Y-111927050D01*
X146526614Y-112063256D01*
X146353256Y-112236614D01*
X146217050Y-112440461D01*
X146123229Y-112666964D01*
X146075400Y-112907418D01*
X146075400Y-113152582D01*
X146123229Y-113393036D01*
X146217050Y-113619539D01*
X146353256Y-113823386D01*
X146526614Y-113996744D01*
X146730461Y-114132950D01*
X146956964Y-114226771D01*
X147197418Y-114274600D01*
X147442582Y-114274600D01*
X147683036Y-114226771D01*
X147909539Y-114132950D01*
X148027940Y-114053837D01*
X147701076Y-114380701D01*
X147683036Y-114373229D01*
X147442582Y-114325400D01*
X147197418Y-114325400D01*
X146956964Y-114373229D01*
X146730461Y-114467050D01*
X146526614Y-114603256D01*
X146353256Y-114776614D01*
X146217050Y-114980461D01*
X146123229Y-115206964D01*
X146075400Y-115447418D01*
X146075400Y-115692582D01*
X146123229Y-115933036D01*
X146217050Y-116159539D01*
X146353256Y-116363386D01*
X146526614Y-116536744D01*
X146730461Y-116672950D01*
X146956964Y-116766771D01*
X147197418Y-116814600D01*
X147442582Y-116814600D01*
X147683036Y-116766771D01*
X147909539Y-116672950D01*
X148113386Y-116536744D01*
X148286744Y-116363386D01*
X148422950Y-116159539D01*
X148516771Y-115933036D01*
X148564600Y-115692582D01*
X148564600Y-115447418D01*
X148516771Y-115206964D01*
X148509299Y-115188924D01*
X148810824Y-114887399D01*
X148819232Y-114887399D01*
X148757050Y-114980461D01*
X148663229Y-115206964D01*
X148615400Y-115447418D01*
X148615400Y-115692582D01*
X148663229Y-115933036D01*
X148757050Y-116159539D01*
X148893256Y-116363386D01*
X149066614Y-116536744D01*
X149270461Y-116672950D01*
X149496964Y-116766771D01*
X149737418Y-116814600D01*
X149937168Y-116814600D01*
X150703501Y-117580934D01*
X150703501Y-118006207D01*
X150650810Y-118070411D01*
X150592329Y-118179821D01*
X150556317Y-118298538D01*
X150544157Y-118421999D01*
X150544157Y-119322001D01*
X150556317Y-119445462D01*
X150592329Y-119564179D01*
X150618474Y-119613093D01*
X150407067Y-119824500D01*
X148108055Y-119824500D01*
X148112502Y-119816180D01*
X148148812Y-119696482D01*
X148161072Y-119572000D01*
X148158000Y-119157750D01*
X147999250Y-118999000D01*
X147075000Y-118999000D01*
X147075000Y-119019000D01*
X146821000Y-119019000D01*
X146821000Y-118999000D01*
X146801000Y-118999000D01*
X146801000Y-118745000D01*
X146821000Y-118745000D01*
X146821000Y-117695750D01*
X147075000Y-117695750D01*
X147075000Y-118745000D01*
X147999250Y-118745000D01*
X148158000Y-118586250D01*
X148161072Y-118172000D01*
X148148812Y-118047518D01*
X148112502Y-117927820D01*
X148053537Y-117817506D01*
X147974185Y-117720815D01*
X147877494Y-117641463D01*
X147767180Y-117582498D01*
X147647482Y-117546188D01*
X147523000Y-117533928D01*
X147233750Y-117537000D01*
X147075000Y-117695750D01*
X146821000Y-117695750D01*
X146662250Y-117537000D01*
X146373000Y-117533928D01*
X146248518Y-117546188D01*
X146128820Y-117582498D01*
X146018506Y-117641463D01*
X145921815Y-117720815D01*
X145842463Y-117817506D01*
X145783498Y-117927820D01*
X145747188Y-118047518D01*
X145745389Y-118065780D01*
X145691528Y-118000149D01*
X145664353Y-117910566D01*
X145599458Y-117789157D01*
X145587699Y-117767157D01*
X145510391Y-117672958D01*
X145484541Y-117641459D01*
X145453039Y-117615606D01*
X145185433Y-117348000D01*
X145335046Y-117198388D01*
X145366541Y-117172541D01*
X145392389Y-117141045D01*
X145392392Y-117141042D01*
X145469699Y-117046843D01*
X145546353Y-116903434D01*
X145551290Y-116887158D01*
X145593556Y-116747826D01*
X145605500Y-116626553D01*
X145605500Y-116626551D01*
X145609494Y-116586000D01*
X145605500Y-116545450D01*
X145605500Y-116504630D01*
X145746744Y-116363386D01*
X145882950Y-116159539D01*
X145976771Y-115933036D01*
X146024600Y-115692582D01*
X146024600Y-115447418D01*
X145976771Y-115206964D01*
X145882950Y-114980461D01*
X145746744Y-114776614D01*
X145573386Y-114603256D01*
X145369539Y-114467050D01*
X145143036Y-114373229D01*
X144902582Y-114325400D01*
X144657418Y-114325400D01*
X144416964Y-114373229D01*
X144190461Y-114467050D01*
X143986614Y-114603256D01*
X143813256Y-114776614D01*
X143677050Y-114980461D01*
X143583229Y-115206964D01*
X143535400Y-115447418D01*
X143535400Y-115692582D01*
X143583229Y-115933036D01*
X143677050Y-116159539D01*
X143813256Y-116363386D01*
X143824218Y-116374348D01*
X143676067Y-116522500D01*
X143474776Y-116522500D01*
X143479087Y-116508289D01*
X143486443Y-116433600D01*
X143486443Y-114706400D01*
X143479087Y-114631711D01*
X143457301Y-114559892D01*
X143421922Y-114493704D01*
X143374311Y-114435689D01*
X143316296Y-114388078D01*
X143250108Y-114352699D01*
X143178289Y-114330913D01*
X143103600Y-114323557D01*
X142992162Y-114323557D01*
X143014944Y-114312684D01*
X143250293Y-114136854D01*
X143446817Y-113918488D01*
X143596964Y-113665978D01*
X143642722Y-113536664D01*
X143677050Y-113619539D01*
X143813256Y-113823386D01*
X143986614Y-113996744D01*
X144190461Y-114132950D01*
X144416964Y-114226771D01*
X144657418Y-114274600D01*
X144902582Y-114274600D01*
X145143036Y-114226771D01*
X145369539Y-114132950D01*
X145573386Y-113996744D01*
X145746744Y-113823386D01*
X145882950Y-113619539D01*
X145976771Y-113393036D01*
X146024600Y-113152582D01*
X146024600Y-112907418D01*
X145976771Y-112666964D01*
X145882950Y-112440461D01*
X145746744Y-112236614D01*
X145573386Y-112063256D01*
X145369539Y-111927050D01*
X145143036Y-111833229D01*
X144902582Y-111785400D01*
X144657418Y-111785400D01*
X144416964Y-111833229D01*
X144190461Y-111927050D01*
X143986614Y-112063256D01*
X143813256Y-112236614D01*
X143677050Y-112440461D01*
X143642722Y-112523336D01*
X143596964Y-112394022D01*
X143446817Y-112141512D01*
X143250293Y-111923146D01*
X143014944Y-111747316D01*
X142749814Y-111620778D01*
X142599026Y-111575042D01*
X142367000Y-111696183D01*
X142367000Y-112903000D01*
X142387000Y-112903000D01*
X142387000Y-113157000D01*
X142367000Y-113157000D01*
X142367000Y-113177000D01*
X142113000Y-113177000D01*
X142113000Y-113157000D01*
X140905536Y-113157000D01*
X140785037Y-113389027D01*
X140883036Y-113665978D01*
X141033183Y-113918488D01*
X141229707Y-114136854D01*
X141465056Y-114312684D01*
X141487838Y-114323557D01*
X141376400Y-114323557D01*
X141301711Y-114330913D01*
X141229892Y-114352699D01*
X141163704Y-114388078D01*
X141105689Y-114435689D01*
X141058078Y-114493704D01*
X141022699Y-114559892D01*
X141000913Y-114631711D01*
X140993557Y-114706400D01*
X140993557Y-116433600D01*
X141000913Y-116508289D01*
X141005224Y-116522500D01*
X140676933Y-116522500D01*
X138874500Y-114720068D01*
X138874500Y-112670973D01*
X140785037Y-112670973D01*
X140905536Y-112903000D01*
X142113000Y-112903000D01*
X142113000Y-111696183D01*
X141880974Y-111575042D01*
X141730186Y-111620778D01*
X141465056Y-111747316D01*
X141229707Y-111923146D01*
X141033183Y-112141512D01*
X140883036Y-112394022D01*
X140785037Y-112670973D01*
X138874500Y-112670973D01*
X138874500Y-110831932D01*
X139581266Y-110125166D01*
X145451439Y-110125166D01*
X145486550Y-110338588D01*
X145690826Y-110429458D01*
X145908905Y-110478731D01*
X146132406Y-110484511D01*
X146352740Y-110446577D01*
X146561440Y-110366387D01*
X146613450Y-110338588D01*
X146648561Y-110125166D01*
X146050000Y-109526605D01*
X145451439Y-110125166D01*
X139581266Y-110125166D01*
X140277026Y-109429406D01*
X144912489Y-109429406D01*
X144950423Y-109649740D01*
X145030613Y-109858440D01*
X145058412Y-109910450D01*
X145271834Y-109945561D01*
X145870395Y-109347000D01*
X146229605Y-109347000D01*
X146828166Y-109945561D01*
X147041588Y-109910450D01*
X147132458Y-109706174D01*
X147181731Y-109488095D01*
X147187511Y-109264594D01*
X147149577Y-109044260D01*
X147069387Y-108835560D01*
X147041588Y-108783550D01*
X146828166Y-108748439D01*
X146229605Y-109347000D01*
X145870395Y-109347000D01*
X145271834Y-108748439D01*
X145058412Y-108783550D01*
X144967542Y-108987826D01*
X144918269Y-109205905D01*
X144912489Y-109429406D01*
X140277026Y-109429406D01*
X141137598Y-108568834D01*
X145451439Y-108568834D01*
X146050000Y-109167395D01*
X146648561Y-108568834D01*
X146613450Y-108355412D01*
X146409174Y-108264542D01*
X146191095Y-108215269D01*
X145967594Y-108209489D01*
X145747260Y-108247423D01*
X145538560Y-108327613D01*
X145486550Y-108355412D01*
X145451439Y-108568834D01*
X141137598Y-108568834D01*
X141565933Y-108140500D01*
X145740769Y-108140500D01*
X145793022Y-108162144D01*
X145963229Y-108196000D01*
X146136771Y-108196000D01*
X146306978Y-108162144D01*
X146359231Y-108140500D01*
X148650450Y-108140500D01*
X148691000Y-108144494D01*
X148731550Y-108140500D01*
X148731553Y-108140500D01*
X148852826Y-108128556D01*
X149008434Y-108081353D01*
X149151842Y-108004699D01*
X149277541Y-107901541D01*
X149303398Y-107870034D01*
X150874433Y-106299000D01*
X153162000Y-106299000D01*
X153236329Y-106291679D01*
X153307802Y-106269998D01*
X153373672Y-106234790D01*
X153431408Y-106187408D01*
X153478790Y-106129672D01*
X153513998Y-106063802D01*
X153535679Y-105992329D01*
X153543000Y-105918000D01*
X153543000Y-95821500D01*
X154008690Y-95821500D01*
X153969498Y-95894821D01*
G37*
X153969498Y-95894821D02*
X153933189Y-96014519D01*
X153920929Y-96139000D01*
X153924001Y-96170191D01*
X153924000Y-97158245D01*
X153920929Y-97189427D01*
X153924000Y-97220608D01*
X153924000Y-97220618D01*
X153933188Y-97313908D01*
X153969498Y-97433606D01*
X154028463Y-97543920D01*
X154107815Y-97640612D01*
X154132050Y-97660501D01*
X154950173Y-98478626D01*
X154639046Y-98789753D01*
X154591435Y-98847768D01*
X154556056Y-98913956D01*
X154534270Y-98985775D01*
X154526914Y-99060464D01*
X154534270Y-99135153D01*
X154556056Y-99206972D01*
X154591435Y-99273160D01*
X154639046Y-99331175D01*
X155764871Y-100457000D01*
X154639046Y-101582825D01*
X154591435Y-101640840D01*
X154556056Y-101707028D01*
X154534270Y-101778847D01*
X154526914Y-101853536D01*
X154534270Y-101928225D01*
X154556056Y-102000044D01*
X154591435Y-102066232D01*
X154639046Y-102124247D01*
X155027955Y-102513156D01*
X155085970Y-102560767D01*
X155132338Y-102585552D01*
X155157121Y-102631917D01*
X155204732Y-102689932D01*
X155593641Y-103078841D01*
X155651656Y-103126452D01*
X155698021Y-103151235D01*
X155722806Y-103197603D01*
X155770417Y-103255618D01*
X156159326Y-103644527D01*
X156217341Y-103692138D01*
X156263707Y-103716922D01*
X156288491Y-103763288D01*
X156336102Y-103821303D01*
X156663288Y-104148489D01*
X155083662Y-105728116D01*
X154988067Y-105747131D01*
X154859584Y-105800351D01*
X154743951Y-105877614D01*
X154645614Y-105975951D01*
X154568351Y-106091584D01*
X154515131Y-106220067D01*
X154488000Y-106356465D01*
X154488000Y-106495535D01*
X154515131Y-106631933D01*
X154561344Y-106743500D01*
X151804423Y-106743500D01*
X151691605Y-106630682D01*
X151547310Y-106534268D01*
X151386978Y-106467856D01*
X151216771Y-106434000D01*
X151043229Y-106434000D01*
X150873022Y-106467856D01*
X150712690Y-106534268D01*
X150568395Y-106630682D01*
X150445682Y-106753395D01*
X150349268Y-106897690D01*
X150282856Y-107058022D01*
X150249000Y-107228229D01*
X150249000Y-107401771D01*
X150282856Y-107571978D01*
X150349268Y-107732310D01*
X150445682Y-107876605D01*
X150568395Y-107999318D01*
X150712690Y-108095732D01*
X150873022Y-108162144D01*
X151043229Y-108196000D01*
X151216771Y-108196000D01*
X151386978Y-108162144D01*
X151547310Y-108095732D01*
X151691605Y-107999318D01*
X151804423Y-107886500D01*
X155055510Y-107886500D01*
X154166510Y-108775500D01*
X151804423Y-108775500D01*
X151691605Y-108662682D01*
X151547310Y-108566268D01*
X151386978Y-108499856D01*
X151216771Y-108466000D01*
X151043229Y-108466000D01*
X150873022Y-108499856D01*
X150712690Y-108566268D01*
X150568395Y-108662682D01*
X150445682Y-108785395D01*
X150349268Y-108929690D01*
X150282856Y-109090022D01*
X150249000Y-109260229D01*
X150249000Y-109433771D01*
X150282856Y-109603978D01*
X150349268Y-109764310D01*
X150445682Y-109908605D01*
X150568395Y-110031318D01*
X150712690Y-110127732D01*
X150873022Y-110194144D01*
X151043229Y-110228000D01*
X151216771Y-110228000D01*
X151386978Y-110194144D01*
X151547310Y-110127732D01*
X151691605Y-110031318D01*
X151804423Y-109918500D01*
X153845182Y-109918500D01*
X152337139Y-111426543D01*
X152313204Y-111421782D01*
X152159360Y-111421782D01*
X152008473Y-111451795D01*
X151866340Y-111510669D01*
X151738423Y-111596140D01*
X151629640Y-111704923D01*
X151544169Y-111832840D01*
X151485295Y-111974973D01*
X151455282Y-112125860D01*
X151455282Y-112279704D01*
X151485295Y-112430591D01*
X151496855Y-112458500D01*
X150970422Y-112458500D01*
X150962950Y-112440461D01*
X150826744Y-112236614D01*
X150653386Y-112063256D01*
X150449539Y-111927050D01*
X150223036Y-111833229D01*
X149982582Y-111785400D01*
X149737418Y-111785400D01*
X149496964Y-111833229D01*
X149270461Y-111927050D01*
X149066614Y-112063256D01*
X148893256Y-112236614D01*
X148757050Y-112440461D01*
X148663229Y-112666964D01*
X148615400Y-112907418D01*
X148615400Y-113152582D01*
X148663229Y-113393036D01*
X148757050Y-113619539D01*
X148840479Y-113744399D01*
X148602175Y-113744399D01*
X148574101Y-113741634D01*
X148546027Y-113744399D01*
X148462067Y-113752668D01*
X148354339Y-113785347D01*
X148288728Y-113820417D01*
X148422950Y-113619539D01*
X148516771Y-113393036D01*
X148564600Y-113152582D01*
X148564600Y-112907418D01*
X148516771Y-112666964D01*
X148422950Y-112440461D01*
X148286744Y-112236614D01*
X148113386Y-112063256D01*
X147909539Y-111927050D01*
X147683036Y-111833229D01*
X147442582Y-111785400D01*
X147197418Y-111785400D01*
X146956964Y-111833229D01*
X146730461Y-111927050D01*
X146526614Y-112063256D01*
X146353256Y-112236614D01*
X146217050Y-112440461D01*
X146123229Y-112666964D01*
X146075400Y-112907418D01*
X146075400Y-113152582D01*
X146123229Y-113393036D01*
X146217050Y-113619539D01*
X146353256Y-113823386D01*
X146526614Y-113996744D01*
X146730461Y-114132950D01*
X146956964Y-114226771D01*
X147197418Y-114274600D01*
X147442582Y-114274600D01*
X147683036Y-114226771D01*
X147909539Y-114132950D01*
X148027940Y-114053837D01*
X147701076Y-114380701D01*
X147683036Y-114373229D01*
X147442582Y-114325400D01*
X147197418Y-114325400D01*
X146956964Y-114373229D01*
X146730461Y-114467050D01*
X146526614Y-114603256D01*
X146353256Y-114776614D01*
X146217050Y-114980461D01*
X146123229Y-115206964D01*
X146075400Y-115447418D01*
X146075400Y-115692582D01*
X146123229Y-115933036D01*
X146217050Y-116159539D01*
X146353256Y-116363386D01*
X146526614Y-116536744D01*
X146730461Y-116672950D01*
X146956964Y-116766771D01*
X147197418Y-116814600D01*
X147442582Y-116814600D01*
X147683036Y-116766771D01*
X147909539Y-116672950D01*
X148113386Y-116536744D01*
X148286744Y-116363386D01*
X148422950Y-116159539D01*
X148516771Y-115933036D01*
X148564600Y-115692582D01*
X148564600Y-115447418D01*
X148516771Y-115206964D01*
X148509299Y-115188924D01*
X148810824Y-114887399D01*
X148819232Y-114887399D01*
X148757050Y-114980461D01*
X148663229Y-115206964D01*
X148615400Y-115447418D01*
X148615400Y-115692582D01*
X148663229Y-115933036D01*
X148757050Y-116159539D01*
X148893256Y-116363386D01*
X149066614Y-116536744D01*
X149270461Y-116672950D01*
X149496964Y-116766771D01*
X149737418Y-116814600D01*
X149937168Y-116814600D01*
X150703501Y-117580934D01*
X150703501Y-118006207D01*
X150650810Y-118070411D01*
X150592329Y-118179821D01*
X150556317Y-118298538D01*
X150544157Y-118421999D01*
X150544157Y-119322001D01*
X150556317Y-119445462D01*
X150592329Y-119564179D01*
X150618474Y-119613093D01*
X150407067Y-119824500D01*
X148108055Y-119824500D01*
X148112502Y-119816180D01*
X148148812Y-119696482D01*
X148161072Y-119572000D01*
X148158000Y-119157750D01*
X147999250Y-118999000D01*
X147075000Y-118999000D01*
X147075000Y-119019000D01*
X146821000Y-119019000D01*
X146821000Y-118999000D01*
X146801000Y-118999000D01*
X146801000Y-118745000D01*
X146821000Y-118745000D01*
X146821000Y-117695750D01*
X147075000Y-117695750D01*
X147075000Y-118745000D01*
X147999250Y-118745000D01*
X148158000Y-118586250D01*
X148161072Y-118172000D01*
X148148812Y-118047518D01*
X148112502Y-117927820D01*
X148053537Y-117817506D01*
X147974185Y-117720815D01*
X147877494Y-117641463D01*
X147767180Y-117582498D01*
X147647482Y-117546188D01*
X147523000Y-117533928D01*
X147233750Y-117537000D01*
X147075000Y-117695750D01*
X146821000Y-117695750D01*
X146662250Y-117537000D01*
X146373000Y-117533928D01*
X146248518Y-117546188D01*
X146128820Y-117582498D01*
X146018506Y-117641463D01*
X145921815Y-117720815D01*
X145842463Y-117817506D01*
X145783498Y-117927820D01*
X145747188Y-118047518D01*
X145745389Y-118065780D01*
X145691528Y-118000149D01*
X145664353Y-117910566D01*
X145599458Y-117789157D01*
X145587699Y-117767157D01*
X145510391Y-117672958D01*
X145484541Y-117641459D01*
X145453039Y-117615606D01*
X145185433Y-117348000D01*
X145335046Y-117198388D01*
X145366541Y-117172541D01*
X145392389Y-117141045D01*
X145392392Y-117141042D01*
X145469699Y-117046843D01*
X145546353Y-116903434D01*
X145551290Y-116887158D01*
X145593556Y-116747826D01*
X145605500Y-116626553D01*
X145605500Y-116626551D01*
X145609494Y-116586000D01*
X145605500Y-116545450D01*
X145605500Y-116504630D01*
X145746744Y-116363386D01*
X145882950Y-116159539D01*
X145976771Y-115933036D01*
X146024600Y-115692582D01*
X146024600Y-115447418D01*
X145976771Y-115206964D01*
X145882950Y-114980461D01*
X145746744Y-114776614D01*
X145573386Y-114603256D01*
X145369539Y-114467050D01*
X145143036Y-114373229D01*
X144902582Y-114325400D01*
X144657418Y-114325400D01*
X144416964Y-114373229D01*
X144190461Y-114467050D01*
X143986614Y-114603256D01*
X143813256Y-114776614D01*
X143677050Y-114980461D01*
X143583229Y-115206964D01*
X143535400Y-115447418D01*
X143535400Y-115692582D01*
X143583229Y-115933036D01*
X143677050Y-116159539D01*
X143813256Y-116363386D01*
X143824218Y-116374348D01*
X143676067Y-116522500D01*
X143474776Y-116522500D01*
X143479087Y-116508289D01*
X143486443Y-116433600D01*
X143486443Y-114706400D01*
X143479087Y-114631711D01*
X143457301Y-114559892D01*
X143421922Y-114493704D01*
X143374311Y-114435689D01*
X143316296Y-114388078D01*
X143250108Y-114352699D01*
X143178289Y-114330913D01*
X143103600Y-114323557D01*
X142992162Y-114323557D01*
X143014944Y-114312684D01*
X143250293Y-114136854D01*
X143446817Y-113918488D01*
X143596964Y-113665978D01*
X143642722Y-113536664D01*
X143677050Y-113619539D01*
X143813256Y-113823386D01*
X143986614Y-113996744D01*
X144190461Y-114132950D01*
X144416964Y-114226771D01*
X144657418Y-114274600D01*
X144902582Y-114274600D01*
X145143036Y-114226771D01*
X145369539Y-114132950D01*
X145573386Y-113996744D01*
X145746744Y-113823386D01*
X145882950Y-113619539D01*
X145976771Y-113393036D01*
X146024600Y-113152582D01*
X146024600Y-112907418D01*
X145976771Y-112666964D01*
X145882950Y-112440461D01*
X145746744Y-112236614D01*
X145573386Y-112063256D01*
X145369539Y-111927050D01*
X145143036Y-111833229D01*
X144902582Y-111785400D01*
X144657418Y-111785400D01*
X144416964Y-111833229D01*
X144190461Y-111927050D01*
X143986614Y-112063256D01*
X143813256Y-112236614D01*
X143677050Y-112440461D01*
X143642722Y-112523336D01*
X143596964Y-112394022D01*
X143446817Y-112141512D01*
X143250293Y-111923146D01*
X143014944Y-111747316D01*
X142749814Y-111620778D01*
X142599026Y-111575042D01*
X142367000Y-111696183D01*
X142367000Y-112903000D01*
X142387000Y-112903000D01*
X142387000Y-113157000D01*
X142367000Y-113157000D01*
X142367000Y-113177000D01*
X142113000Y-113177000D01*
X142113000Y-113157000D01*
X140905536Y-113157000D01*
X140785037Y-113389027D01*
X140883036Y-113665978D01*
X141033183Y-113918488D01*
X141229707Y-114136854D01*
X141465056Y-114312684D01*
X141487838Y-114323557D01*
X141376400Y-114323557D01*
X141301711Y-114330913D01*
X141229892Y-114352699D01*
X141163704Y-114388078D01*
X141105689Y-114435689D01*
X141058078Y-114493704D01*
X141022699Y-114559892D01*
X141000913Y-114631711D01*
X140993557Y-114706400D01*
X140993557Y-116433600D01*
X141000913Y-116508289D01*
X141005224Y-116522500D01*
X140676933Y-116522500D01*
X138874500Y-114720068D01*
X138874500Y-112670973D01*
X140785037Y-112670973D01*
X140905536Y-112903000D01*
X142113000Y-112903000D01*
X142113000Y-111696183D01*
X141880974Y-111575042D01*
X141730186Y-111620778D01*
X141465056Y-111747316D01*
X141229707Y-111923146D01*
X141033183Y-112141512D01*
X140883036Y-112394022D01*
X140785037Y-112670973D01*
X138874500Y-112670973D01*
X138874500Y-110831932D01*
X139581266Y-110125166D01*
X145451439Y-110125166D01*
X145486550Y-110338588D01*
X145690826Y-110429458D01*
X145908905Y-110478731D01*
X146132406Y-110484511D01*
X146352740Y-110446577D01*
X146561440Y-110366387D01*
X146613450Y-110338588D01*
X146648561Y-110125166D01*
X146050000Y-109526605D01*
X145451439Y-110125166D01*
X139581266Y-110125166D01*
X140277026Y-109429406D01*
X144912489Y-109429406D01*
X144950423Y-109649740D01*
X145030613Y-109858440D01*
X145058412Y-109910450D01*
X145271834Y-109945561D01*
X145870395Y-109347000D01*
X146229605Y-109347000D01*
X146828166Y-109945561D01*
X147041588Y-109910450D01*
X147132458Y-109706174D01*
X147181731Y-109488095D01*
X147187511Y-109264594D01*
X147149577Y-109044260D01*
X147069387Y-108835560D01*
X147041588Y-108783550D01*
X146828166Y-108748439D01*
X146229605Y-109347000D01*
X145870395Y-109347000D01*
X145271834Y-108748439D01*
X145058412Y-108783550D01*
X144967542Y-108987826D01*
X144918269Y-109205905D01*
X144912489Y-109429406D01*
X140277026Y-109429406D01*
X141137598Y-108568834D01*
X145451439Y-108568834D01*
X146050000Y-109167395D01*
X146648561Y-108568834D01*
X146613450Y-108355412D01*
X146409174Y-108264542D01*
X146191095Y-108215269D01*
X145967594Y-108209489D01*
X145747260Y-108247423D01*
X145538560Y-108327613D01*
X145486550Y-108355412D01*
X145451439Y-108568834D01*
X141137598Y-108568834D01*
X141565933Y-108140500D01*
X145740769Y-108140500D01*
X145793022Y-108162144D01*
X145963229Y-108196000D01*
X146136771Y-108196000D01*
X146306978Y-108162144D01*
X146359231Y-108140500D01*
X148650450Y-108140500D01*
X148691000Y-108144494D01*
X148731550Y-108140500D01*
X148731553Y-108140500D01*
X148852826Y-108128556D01*
X149008434Y-108081353D01*
X149151842Y-108004699D01*
X149277541Y-107901541D01*
X149303398Y-107870034D01*
X150874433Y-106299000D01*
X153162000Y-106299000D01*
X153236329Y-106291679D01*
X153307802Y-106269998D01*
X153373672Y-106234790D01*
X153431408Y-106187408D01*
X153478790Y-106129672D01*
X153513998Y-106063802D01*
X153535679Y-105992329D01*
X153543000Y-105918000D01*
X153543000Y-95821500D01*
X154008690Y-95821500D01*
X153969498Y-95894821D01*
G36*
X157366953Y-97555034D02*
G01*
X157377671Y-97544316D01*
X157557276Y-97723921D01*
X157546558Y-97734639D01*
X158359201Y-98547281D01*
X158412942Y-98547281D01*
X159004001Y-99138340D01*
X159004000Y-100075896D01*
X159000929Y-100107078D01*
X159004000Y-100138259D01*
X159004000Y-100138269D01*
X159013188Y-100231559D01*
X159049498Y-100351257D01*
X159108463Y-100461571D01*
X159187815Y-100558263D01*
X159212050Y-100578152D01*
X162805899Y-104172002D01*
X162825784Y-104196232D01*
X162922475Y-104275584D01*
X162994783Y-104314234D01*
X163803924Y-105123374D01*
X163857663Y-105123374D01*
X164062611Y-105328322D01*
X163999859Y-105379822D01*
X163797500Y-105586525D01*
X163797500Y-105811031D01*
X164539432Y-106552963D01*
X164553574Y-106538820D01*
X164733180Y-106718426D01*
X164719037Y-106732568D01*
X164733180Y-106746711D01*
X164553575Y-106926316D01*
X164539432Y-106912173D01*
X163885889Y-107565717D01*
X163885889Y-107790223D01*
X164176635Y-108085314D01*
X164273327Y-108164667D01*
X164383641Y-108223631D01*
X164503339Y-108259941D01*
X164627820Y-108272201D01*
X164752302Y-108259941D01*
X164872000Y-108223631D01*
X164982314Y-108164667D01*
X165079005Y-108085314D01*
X165281364Y-107878611D01*
X165281364Y-107654108D01*
X165290500Y-107663244D01*
X165290500Y-108930671D01*
X164614015Y-109607157D01*
X161900588Y-109607157D01*
X161913987Y-109574809D01*
X161944000Y-109423922D01*
X161944000Y-109270078D01*
X161913987Y-109119191D01*
X161855113Y-108977058D01*
X161769642Y-108849141D01*
X161660859Y-108740358D01*
X161532942Y-108654887D01*
X161390809Y-108596013D01*
X161239922Y-108566000D01*
X161086078Y-108566000D01*
X160935191Y-108596013D01*
X160793058Y-108654887D01*
X160665141Y-108740358D01*
X160556358Y-108849141D01*
X160470887Y-108977058D01*
X160433524Y-109067258D01*
X160372642Y-108976141D01*
X160263859Y-108867358D01*
X160135942Y-108781887D01*
X159993809Y-108723013D01*
X159842922Y-108693000D01*
X159689078Y-108693000D01*
X159538191Y-108723013D01*
X159396058Y-108781887D01*
X159268141Y-108867358D01*
X159159358Y-108976141D01*
X159073887Y-109104058D01*
X159015013Y-109246191D01*
X158985000Y-109397078D01*
X158985000Y-109446777D01*
X158824621Y-109607157D01*
X156758066Y-109607157D01*
X157208723Y-109156500D01*
X158509334Y-109156500D01*
X158537408Y-109159265D01*
X158565482Y-109156500D01*
X158649442Y-109148231D01*
X158757170Y-109115552D01*
X158856453Y-109062484D01*
X158943475Y-108991067D01*
X158961378Y-108969252D01*
X161286450Y-106644180D01*
X162999799Y-106644180D01*
X163012059Y-106768661D01*
X163048369Y-106888359D01*
X163107333Y-106998673D01*
X163186686Y-107095365D01*
X163481777Y-107386111D01*
X163706283Y-107386111D01*
X164359827Y-106732568D01*
X163617895Y-105990636D01*
X163393389Y-105990636D01*
X163186686Y-106192995D01*
X163107333Y-106289686D01*
X163048369Y-106400000D01*
X163012059Y-106519698D01*
X162999799Y-106644180D01*
X161286450Y-106644180D01*
X161619251Y-106311380D01*
X161780825Y-106472954D01*
X161838840Y-106520565D01*
X161905028Y-106555944D01*
X161976847Y-106577730D01*
X162051536Y-106585086D01*
X162126225Y-106577730D01*
X162198044Y-106555944D01*
X162264232Y-106520565D01*
X162322247Y-106472954D01*
X162711156Y-106084045D01*
X162758767Y-106026030D01*
X162783552Y-105979662D01*
X162829917Y-105954879D01*
X162887932Y-105907268D01*
X163095029Y-105700171D01*
X163179838Y-105708937D01*
X163304377Y-105697274D01*
X163424248Y-105661541D01*
X163534845Y-105603108D01*
X163624318Y-105527486D01*
X163624318Y-105302980D01*
X162811676Y-104490337D01*
X162800959Y-104501055D01*
X162621353Y-104321449D01*
X162632071Y-104310732D01*
X161819428Y-103498090D01*
X161594922Y-103498090D01*
X161519300Y-103587563D01*
X161460867Y-103698160D01*
X161425134Y-103818031D01*
X161413471Y-103942570D01*
X161422237Y-104027377D01*
X161215139Y-104234475D01*
X161167528Y-104292490D01*
X161142743Y-104338858D01*
X161096378Y-104363641D01*
X161038363Y-104411252D01*
X160655000Y-104794615D01*
X160271637Y-104411252D01*
X160213622Y-104363641D01*
X160167257Y-104338858D01*
X160142472Y-104292490D01*
X160094861Y-104234475D01*
X159705952Y-103845566D01*
X159647937Y-103797955D01*
X159601569Y-103773170D01*
X159576786Y-103726805D01*
X159529175Y-103668790D01*
X159140266Y-103279881D01*
X159082251Y-103232270D01*
X159035885Y-103207486D01*
X159011101Y-103161120D01*
X158963490Y-103103105D01*
X158574581Y-102714196D01*
X158516566Y-102666585D01*
X158470199Y-102641801D01*
X158445415Y-102595434D01*
X158397804Y-102537419D01*
X158008895Y-102148510D01*
X157950880Y-102100899D01*
X157904514Y-102076115D01*
X157879730Y-102029749D01*
X157832119Y-101971734D01*
X157443210Y-101582825D01*
X157385195Y-101535214D01*
X157338830Y-101510431D01*
X157314045Y-101464063D01*
X157266434Y-101406048D01*
X156877525Y-101017139D01*
X156819510Y-100969528D01*
X156773142Y-100944743D01*
X156748359Y-100898378D01*
X156700748Y-100840363D01*
X156317385Y-100457000D01*
X156700748Y-100073637D01*
X156748359Y-100015622D01*
X156773142Y-99969257D01*
X156819510Y-99944472D01*
X156877525Y-99896861D01*
X157266434Y-99507952D01*
X157314045Y-99449937D01*
X157338830Y-99403569D01*
X157385195Y-99378786D01*
X157443210Y-99331175D01*
X157650307Y-99124078D01*
X157735115Y-99132844D01*
X157859654Y-99121181D01*
X157979525Y-99085448D01*
X158090122Y-99027015D01*
X158179595Y-98951393D01*
X158179595Y-98726887D01*
X157366953Y-97914244D01*
X157356236Y-97924961D01*
X157176631Y-97745356D01*
X157187348Y-97734639D01*
X157173205Y-97720497D01*
X157352811Y-97540891D01*
X157366953Y-97555034D01*
G37*
X157366953Y-97555034D02*
X157377671Y-97544316D01*
X157557276Y-97723921D01*
X157546558Y-97734639D01*
X158359201Y-98547281D01*
X158412942Y-98547281D01*
X159004001Y-99138340D01*
X159004000Y-100075896D01*
X159000929Y-100107078D01*
X159004000Y-100138259D01*
X159004000Y-100138269D01*
X159013188Y-100231559D01*
X159049498Y-100351257D01*
X159108463Y-100461571D01*
X159187815Y-100558263D01*
X159212050Y-100578152D01*
X162805899Y-104172002D01*
X162825784Y-104196232D01*
X162922475Y-104275584D01*
X162994783Y-104314234D01*
X163803924Y-105123374D01*
X163857663Y-105123374D01*
X164062611Y-105328322D01*
X163999859Y-105379822D01*
X163797500Y-105586525D01*
X163797500Y-105811031D01*
X164539432Y-106552963D01*
X164553574Y-106538820D01*
X164733180Y-106718426D01*
X164719037Y-106732568D01*
X164733180Y-106746711D01*
X164553575Y-106926316D01*
X164539432Y-106912173D01*
X163885889Y-107565717D01*
X163885889Y-107790223D01*
X164176635Y-108085314D01*
X164273327Y-108164667D01*
X164383641Y-108223631D01*
X164503339Y-108259941D01*
X164627820Y-108272201D01*
X164752302Y-108259941D01*
X164872000Y-108223631D01*
X164982314Y-108164667D01*
X165079005Y-108085314D01*
X165281364Y-107878611D01*
X165281364Y-107654108D01*
X165290500Y-107663244D01*
X165290500Y-108930671D01*
X164614015Y-109607157D01*
X161900588Y-109607157D01*
X161913987Y-109574809D01*
X161944000Y-109423922D01*
X161944000Y-109270078D01*
X161913987Y-109119191D01*
X161855113Y-108977058D01*
X161769642Y-108849141D01*
X161660859Y-108740358D01*
X161532942Y-108654887D01*
X161390809Y-108596013D01*
X161239922Y-108566000D01*
X161086078Y-108566000D01*
X160935191Y-108596013D01*
X160793058Y-108654887D01*
X160665141Y-108740358D01*
X160556358Y-108849141D01*
X160470887Y-108977058D01*
X160433524Y-109067258D01*
X160372642Y-108976141D01*
X160263859Y-108867358D01*
X160135942Y-108781887D01*
X159993809Y-108723013D01*
X159842922Y-108693000D01*
X159689078Y-108693000D01*
X159538191Y-108723013D01*
X159396058Y-108781887D01*
X159268141Y-108867358D01*
X159159358Y-108976141D01*
X159073887Y-109104058D01*
X159015013Y-109246191D01*
X158985000Y-109397078D01*
X158985000Y-109446777D01*
X158824621Y-109607157D01*
X156758066Y-109607157D01*
X157208723Y-109156500D01*
X158509334Y-109156500D01*
X158537408Y-109159265D01*
X158565482Y-109156500D01*
X158649442Y-109148231D01*
X158757170Y-109115552D01*
X158856453Y-109062484D01*
X158943475Y-108991067D01*
X158961378Y-108969252D01*
X161286450Y-106644180D01*
X162999799Y-106644180D01*
X163012059Y-106768661D01*
X163048369Y-106888359D01*
X163107333Y-106998673D01*
X163186686Y-107095365D01*
X163481777Y-107386111D01*
X163706283Y-107386111D01*
X164359827Y-106732568D01*
X163617895Y-105990636D01*
X163393389Y-105990636D01*
X163186686Y-106192995D01*
X163107333Y-106289686D01*
X163048369Y-106400000D01*
X163012059Y-106519698D01*
X162999799Y-106644180D01*
X161286450Y-106644180D01*
X161619251Y-106311380D01*
X161780825Y-106472954D01*
X161838840Y-106520565D01*
X161905028Y-106555944D01*
X161976847Y-106577730D01*
X162051536Y-106585086D01*
X162126225Y-106577730D01*
X162198044Y-106555944D01*
X162264232Y-106520565D01*
X162322247Y-106472954D01*
X162711156Y-106084045D01*
X162758767Y-106026030D01*
X162783552Y-105979662D01*
X162829917Y-105954879D01*
X162887932Y-105907268D01*
X163095029Y-105700171D01*
X163179838Y-105708937D01*
X163304377Y-105697274D01*
X163424248Y-105661541D01*
X163534845Y-105603108D01*
X163624318Y-105527486D01*
X163624318Y-105302980D01*
X162811676Y-104490337D01*
X162800959Y-104501055D01*
X162621353Y-104321449D01*
X162632071Y-104310732D01*
X161819428Y-103498090D01*
X161594922Y-103498090D01*
X161519300Y-103587563D01*
X161460867Y-103698160D01*
X161425134Y-103818031D01*
X161413471Y-103942570D01*
X161422237Y-104027377D01*
X161215139Y-104234475D01*
X161167528Y-104292490D01*
X161142743Y-104338858D01*
X161096378Y-104363641D01*
X161038363Y-104411252D01*
X160655000Y-104794615D01*
X160271637Y-104411252D01*
X160213622Y-104363641D01*
X160167257Y-104338858D01*
X160142472Y-104292490D01*
X160094861Y-104234475D01*
X159705952Y-103845566D01*
X159647937Y-103797955D01*
X159601569Y-103773170D01*
X159576786Y-103726805D01*
X159529175Y-103668790D01*
X159140266Y-103279881D01*
X159082251Y-103232270D01*
X159035885Y-103207486D01*
X159011101Y-103161120D01*
X158963490Y-103103105D01*
X158574581Y-102714196D01*
X158516566Y-102666585D01*
X158470199Y-102641801D01*
X158445415Y-102595434D01*
X158397804Y-102537419D01*
X158008895Y-102148510D01*
X157950880Y-102100899D01*
X157904514Y-102076115D01*
X157879730Y-102029749D01*
X157832119Y-101971734D01*
X157443210Y-101582825D01*
X157385195Y-101535214D01*
X157338830Y-101510431D01*
X157314045Y-101464063D01*
X157266434Y-101406048D01*
X156877525Y-101017139D01*
X156819510Y-100969528D01*
X156773142Y-100944743D01*
X156748359Y-100898378D01*
X156700748Y-100840363D01*
X156317385Y-100457000D01*
X156700748Y-100073637D01*
X156748359Y-100015622D01*
X156773142Y-99969257D01*
X156819510Y-99944472D01*
X156877525Y-99896861D01*
X157266434Y-99507952D01*
X157314045Y-99449937D01*
X157338830Y-99403569D01*
X157385195Y-99378786D01*
X157443210Y-99331175D01*
X157650307Y-99124078D01*
X157735115Y-99132844D01*
X157859654Y-99121181D01*
X157979525Y-99085448D01*
X158090122Y-99027015D01*
X158179595Y-98951393D01*
X158179595Y-98726887D01*
X157366953Y-97914244D01*
X157356236Y-97924961D01*
X157176631Y-97745356D01*
X157187348Y-97734639D01*
X157173205Y-97720497D01*
X157352811Y-97540891D01*
X157366953Y-97555034D01*
G36*
X162274115Y-97706514D02*
G01*
X162298899Y-97752880D01*
X162346510Y-97810895D01*
X162735419Y-98199804D01*
X162793434Y-98247415D01*
X162839801Y-98272199D01*
X162864585Y-98318566D01*
X162912196Y-98376581D01*
X163301105Y-98765490D01*
X163359120Y-98813101D01*
X163405486Y-98837885D01*
X163430270Y-98884251D01*
X163477881Y-98942266D01*
X163866790Y-99331175D01*
X163924805Y-99378786D01*
X163971170Y-99403569D01*
X163995955Y-99449937D01*
X164043566Y-99507952D01*
X164432475Y-99896861D01*
X164490490Y-99944472D01*
X164536858Y-99969257D01*
X164561641Y-100015622D01*
X164609252Y-100073637D01*
X164992615Y-100457000D01*
X164609252Y-100840363D01*
X164561641Y-100898378D01*
X164536858Y-100944743D01*
X164490490Y-100969528D01*
X164432475Y-101017139D01*
X164043566Y-101406048D01*
X163995955Y-101464063D01*
X163971170Y-101510431D01*
X163924805Y-101535214D01*
X163866790Y-101582825D01*
X163659693Y-101789922D01*
X163574885Y-101781156D01*
X163450346Y-101792819D01*
X163330475Y-101828552D01*
X163219878Y-101886985D01*
X163130405Y-101962607D01*
X163130405Y-102187113D01*
X163943047Y-102999756D01*
X163953764Y-102989039D01*
X164133369Y-103168644D01*
X164122652Y-103179361D01*
X164935295Y-103992003D01*
X164989034Y-103992003D01*
X165354000Y-104356969D01*
X165354000Y-104386629D01*
X165135484Y-104605145D01*
X164755689Y-104225350D01*
X164755689Y-104171609D01*
X163943047Y-103358966D01*
X163932329Y-103369684D01*
X163752724Y-103190079D01*
X163763442Y-103179361D01*
X162950799Y-102366719D01*
X162796666Y-102366719D01*
X160274000Y-99844054D01*
X160274000Y-98906503D01*
X160277072Y-98875314D01*
X160274000Y-98844122D01*
X160268324Y-98786489D01*
X160358366Y-98749192D01*
X160359449Y-98752762D01*
X160412517Y-98852045D01*
X160483934Y-98939068D01*
X160505749Y-98956971D01*
X160509000Y-98960222D01*
X160509000Y-99009922D01*
X160539013Y-99160809D01*
X160597887Y-99302942D01*
X160683358Y-99430859D01*
X160792141Y-99539642D01*
X160920058Y-99625113D01*
X161062191Y-99683987D01*
X161213078Y-99714000D01*
X161366922Y-99714000D01*
X161517809Y-99683987D01*
X161659942Y-99625113D01*
X161787859Y-99539642D01*
X161790002Y-99537500D01*
X161792144Y-99539642D01*
X161920061Y-99625113D01*
X162062194Y-99683987D01*
X162213081Y-99714000D01*
X162366925Y-99714000D01*
X162517812Y-99683987D01*
X162659945Y-99625113D01*
X162787862Y-99539642D01*
X162896645Y-99430859D01*
X162982116Y-99302942D01*
X163040990Y-99160809D01*
X163071003Y-99009922D01*
X163071003Y-98856078D01*
X163040990Y-98705191D01*
X162982116Y-98563058D01*
X162896645Y-98435141D01*
X162787862Y-98326358D01*
X162659945Y-98240887D01*
X162517812Y-98182013D01*
X162506516Y-98179766D01*
X162232526Y-97905777D01*
X162232526Y-97684283D01*
X162274115Y-97706514D01*
G37*
X162274115Y-97706514D02*
X162298899Y-97752880D01*
X162346510Y-97810895D01*
X162735419Y-98199804D01*
X162793434Y-98247415D01*
X162839801Y-98272199D01*
X162864585Y-98318566D01*
X162912196Y-98376581D01*
X163301105Y-98765490D01*
X163359120Y-98813101D01*
X163405486Y-98837885D01*
X163430270Y-98884251D01*
X163477881Y-98942266D01*
X163866790Y-99331175D01*
X163924805Y-99378786D01*
X163971170Y-99403569D01*
X163995955Y-99449937D01*
X164043566Y-99507952D01*
X164432475Y-99896861D01*
X164490490Y-99944472D01*
X164536858Y-99969257D01*
X164561641Y-100015622D01*
X164609252Y-100073637D01*
X164992615Y-100457000D01*
X164609252Y-100840363D01*
X164561641Y-100898378D01*
X164536858Y-100944743D01*
X164490490Y-100969528D01*
X164432475Y-101017139D01*
X164043566Y-101406048D01*
X163995955Y-101464063D01*
X163971170Y-101510431D01*
X163924805Y-101535214D01*
X163866790Y-101582825D01*
X163659693Y-101789922D01*
X163574885Y-101781156D01*
X163450346Y-101792819D01*
X163330475Y-101828552D01*
X163219878Y-101886985D01*
X163130405Y-101962607D01*
X163130405Y-102187113D01*
X163943047Y-102999756D01*
X163953764Y-102989039D01*
X164133369Y-103168644D01*
X164122652Y-103179361D01*
X164935295Y-103992003D01*
X164989034Y-103992003D01*
X165354000Y-104356969D01*
X165354000Y-104386629D01*
X165135484Y-104605145D01*
X164755689Y-104225350D01*
X164755689Y-104171609D01*
X163943047Y-103358966D01*
X163932329Y-103369684D01*
X163752724Y-103190079D01*
X163763442Y-103179361D01*
X162950799Y-102366719D01*
X162796666Y-102366719D01*
X160274000Y-99844054D01*
X160274000Y-98906503D01*
X160277072Y-98875314D01*
X160274000Y-98844122D01*
X160268324Y-98786489D01*
X160358366Y-98749192D01*
X160359449Y-98752762D01*
X160412517Y-98852045D01*
X160483934Y-98939068D01*
X160505749Y-98956971D01*
X160509000Y-98960222D01*
X160509000Y-99009922D01*
X160539013Y-99160809D01*
X160597887Y-99302942D01*
X160683358Y-99430859D01*
X160792141Y-99539642D01*
X160920058Y-99625113D01*
X161062191Y-99683987D01*
X161213078Y-99714000D01*
X161366922Y-99714000D01*
X161517809Y-99683987D01*
X161659942Y-99625113D01*
X161787859Y-99539642D01*
X161790002Y-99537500D01*
X161792144Y-99539642D01*
X161920061Y-99625113D01*
X162062194Y-99683987D01*
X162213081Y-99714000D01*
X162366925Y-99714000D01*
X162517812Y-99683987D01*
X162659945Y-99625113D01*
X162787862Y-99539642D01*
X162896645Y-99430859D01*
X162982116Y-99302942D01*
X163040990Y-99160809D01*
X163071003Y-99009922D01*
X163071003Y-98856078D01*
X163040990Y-98705191D01*
X162982116Y-98563058D01*
X162896645Y-98435141D01*
X162787862Y-98326358D01*
X162659945Y-98240887D01*
X162517812Y-98182013D01*
X162506516Y-98179766D01*
X162232526Y-97905777D01*
X162232526Y-97684283D01*
X162274115Y-97706514D01*
%TO.N,+3V3*%
G36*
X153035000Y-105791000D02*
G01*
X150622000Y-105791000D01*
X150622000Y-92964000D01*
X153035000Y-92964000D01*
X153035000Y-105791000D01*
G37*
X153035000Y-105791000D02*
X150622000Y-105791000D01*
X150622000Y-92964000D01*
X153035000Y-92964000D01*
X153035000Y-105791000D01*
%TO.N,Net-(C3-Pad1)*%
G36*
X147828000Y-92837000D02*
G01*
X147830440Y-92861776D01*
X147837667Y-92885601D01*
X147849403Y-92907557D01*
X147865197Y-92926803D01*
X147884443Y-92942597D01*
X147906399Y-92954333D01*
X147930224Y-92961560D01*
X147955000Y-92964000D01*
X148463000Y-92964000D01*
X148463000Y-98806000D01*
X146685000Y-98806000D01*
X146685000Y-94869000D01*
X146682560Y-94844224D01*
X146675333Y-94820399D01*
X146663597Y-94798443D01*
X146647803Y-94779197D01*
X146628557Y-94763403D01*
X146606601Y-94751667D01*
X146582776Y-94744440D01*
X146558000Y-94742000D01*
X146055481Y-94742000D01*
X146040689Y-94737513D01*
X145966000Y-94730157D01*
X144018000Y-94730157D01*
X144018000Y-94245843D01*
X145966000Y-94245843D01*
X146040689Y-94238487D01*
X146055481Y-94234000D01*
X146558000Y-94234000D01*
X146582776Y-94231560D01*
X146606601Y-94224333D01*
X146628557Y-94212597D01*
X146647803Y-94196803D01*
X146663597Y-94177557D01*
X146675333Y-94155601D01*
X146682560Y-94131776D01*
X146685000Y-94107000D01*
X146685000Y-91174990D01*
X147828000Y-91174990D01*
X147828000Y-92837000D01*
G37*
X147828000Y-92837000D02*
X147830440Y-92861776D01*
X147837667Y-92885601D01*
X147849403Y-92907557D01*
X147865197Y-92926803D01*
X147884443Y-92942597D01*
X147906399Y-92954333D01*
X147930224Y-92961560D01*
X147955000Y-92964000D01*
X148463000Y-92964000D01*
X148463000Y-98806000D01*
X146685000Y-98806000D01*
X146685000Y-94869000D01*
X146682560Y-94844224D01*
X146675333Y-94820399D01*
X146663597Y-94798443D01*
X146647803Y-94779197D01*
X146628557Y-94763403D01*
X146606601Y-94751667D01*
X146582776Y-94744440D01*
X146558000Y-94742000D01*
X146055481Y-94742000D01*
X146040689Y-94737513D01*
X145966000Y-94730157D01*
X144018000Y-94730157D01*
X144018000Y-94245843D01*
X145966000Y-94245843D01*
X146040689Y-94238487D01*
X146055481Y-94234000D01*
X146558000Y-94234000D01*
X146582776Y-94231560D01*
X146606601Y-94224333D01*
X146628557Y-94212597D01*
X146647803Y-94196803D01*
X146663597Y-94177557D01*
X146675333Y-94155601D01*
X146682560Y-94131776D01*
X146685000Y-94107000D01*
X146685000Y-91174990D01*
X147828000Y-91174990D01*
X147828000Y-92837000D01*
%TO.N,Net-(C3-Pad2)*%
G36*
X145796000Y-93091000D02*
G01*
X145798440Y-93115776D01*
X145805667Y-93139601D01*
X145817403Y-93161557D01*
X145833197Y-93180803D01*
X145852443Y-93196597D01*
X145874399Y-93208333D01*
X145898224Y-93215560D01*
X145923000Y-93218000D01*
X146177000Y-93218000D01*
X146177000Y-93726000D01*
X144018000Y-93726000D01*
X144018000Y-91174990D01*
X145796000Y-91174990D01*
X145796000Y-93091000D01*
G37*
X145796000Y-93091000D02*
X145798440Y-93115776D01*
X145805667Y-93139601D01*
X145817403Y-93161557D01*
X145833197Y-93180803D01*
X145852443Y-93196597D01*
X145874399Y-93208333D01*
X145898224Y-93215560D01*
X145923000Y-93218000D01*
X146177000Y-93218000D01*
X146177000Y-93726000D01*
X144018000Y-93726000D01*
X144018000Y-91174990D01*
X145796000Y-91174990D01*
X145796000Y-93091000D01*
%TO.N,Net-(C2-Pad1)*%
G36*
X142748000Y-100584000D02*
G01*
X140462000Y-100584000D01*
X140462000Y-94235663D01*
X140471311Y-94238487D01*
X140546000Y-94245843D01*
X142546000Y-94245843D01*
X142620689Y-94238487D01*
X142635481Y-94234000D01*
X142748000Y-94234000D01*
X142748000Y-100584000D01*
G37*
X142748000Y-100584000D02*
X140462000Y-100584000D01*
X140462000Y-94235663D01*
X140471311Y-94238487D01*
X140546000Y-94245843D01*
X142546000Y-94245843D01*
X142620689Y-94238487D01*
X142635481Y-94234000D01*
X142748000Y-94234000D01*
X142748000Y-100584000D01*
%TD*%
M02*
