M48
; DRILL file {KiCad (5.1.6)-1} date 10/21/20 10:45:25
; FORMAT={-:-/ absolute / inch / decimal}
; #@! TF.CreationDate,2020-10-21T10:45:25-05:00
; #@! TF.GenerationSoftware,Kicad,Pcbnew,(5.1.6)-1
; #@! TF.FileFunction,Plated,1,2,PTH
FMAT,2
INCH
T1C0.0138
T2C0.0157
T3C0.0400
T4C0.0598
T5C0.0630
%
G90
G05
T1
X6.01Y-4.555
X6.065Y-3.74
X6.1Y-4.455
X6.11Y-4.19
X6.135Y-3.795
X6.425Y-4.185
X6.435Y-3.915
X6.435Y-3.955
X6.435Y-3.995
X6.455Y-4.155
X6.475Y-3.955
X6.55Y-4.06
X6.58Y-4.03
T2
X5.9936Y-4.4174
X6.245Y-4.4
X6.29Y-4.31
X6.3Y-3.86
X6.345Y-4.305
X6.35Y-3.895
X6.3894Y-3.895
T3
X5.6Y-4.45
X5.6Y-4.55
X5.7Y-4.45
X5.7Y-4.55
X5.8Y-4.45
X5.8Y-4.55
X5.9Y-4.45
X5.9Y-4.55
T4
X7.375Y-3.875
X7.375Y-4.075
X7.375Y-4.275
X7.375Y-4.475
T5
X5.1388Y-4.2
X5.2569Y-4.385
X5.375Y-4.2
T0
M30
